<svg width="102" height="102" viewBox="0 0 102 102" fill="none" xmlns="http://www.w3.org/2000/svg">
<path d="M101 51C101 78.6142 78.6142 101 51 101C23.3858 101 1 78.6142 1 51C1 23.3858 23.3858 1 51 1C78.6142 1 101 23.3858 101 51Z" fill="url(#paint0_linear_39_856)"/>
<path fill-rule="evenodd" clip-rule="evenodd" d="M51.2266 1.00049C78.7366 1.12256 101 23.4613 101 51C101 78.6142 78.6142 101 51 101C23.3858 101 1 78.6142 1 51C1 42.4177 3.16231 34.3404 6.97185 27.2831C6.90365 27.5462 6.85594 27.8454 6.82873 28.1806C6.82873 29.4204 7.2623 30.1357 8.12944 30.3264C8.99658 30.5171 10.0805 30.8509 11.3812 31.3278C12.8987 31.8046 14.091 32.2815 14.9582 32.7583C15.8253 33.1398 16.7466 32.806 17.7222 31.7569C18.6977 30.7079 18.8061 29.8972 18.0474 29.325C17.2886 28.6574 16.4757 27.7514 15.6085 26.6069C14.9582 25.7486 14.362 25.1764 13.82 24.8903C13.3865 24.6042 12.6277 24.6042 11.5438 24.8903C10.1347 25.2718 8.99658 25.6056 8.12944 25.8917C7.92836 25.9422 7.75012 26.033 7.59472 26.1639C16.0045 11.4981 31.6332 1.50086 49.6347 1.01828C50.1615 1.00809 50.6922 1.00216 51.2266 1.00049ZM43.899 7.72361L45.5249 6.57917L47.1507 8.00973L46.0126 9.72639L43.7364 9.58333L43.899 7.72361ZM56.9061 6.86528C57.8816 6.76991 59.2365 7.05602 60.9708 7.72361C62.4883 8.29584 63.247 9.01112 63.247 9.86945C63.3554 10.6324 63.3554 11.7292 63.247 13.1597C63.0303 14.3995 62.7051 15.3056 62.2715 15.8778C61.8379 16.3546 60.9166 16.6884 59.5075 16.8792C57.99 17.1653 56.7435 17.3083 55.7679 17.3083C54.9008 17.213 54.0879 16.5454 53.3291 15.3056C52.3536 13.875 51.8116 12.7306 51.7032 11.8722C51.5948 11.0139 52.191 9.96482 53.4917 8.725C54.7924 7.48519 55.9305 6.86528 56.9061 6.86528ZM42.2731 12.8736C43.0318 12.8736 44.0616 13.2551 45.3623 14.0181C46.4462 14.5903 46.8798 15.2102 46.663 15.8778C46.5546 16.5454 46.2836 17.4037 45.85 18.4528C45.5249 19.4065 45.1455 20.0264 44.7119 20.3125C44.2783 20.5032 43.5196 20.5986 42.4357 20.5986C41.3517 20.5986 40.4846 20.5509 39.8343 20.4556C39.1839 20.3602 38.6419 19.8356 38.2084 18.8819C37.7748 17.6421 37.558 16.6884 37.558 16.0208C37.558 15.3532 38.1542 14.638 39.3465 13.875C40.5388 13.112 41.5143 12.7782 42.2731 12.8736ZM26.3394 14.1611C26.773 13.9704 27.3691 14.0657 28.1279 14.4472C28.995 14.8287 29.5912 15.2102 29.9163 15.5917C30.3499 15.8778 30.5125 16.45 30.4041 17.3083C30.2957 18.0713 29.9705 18.5005 29.4286 18.5958C28.8866 18.5958 28.1821 18.6912 27.3149 18.8819C26.3394 19.0727 25.5264 19.2634 24.8761 19.4542C24.3341 19.6449 23.7922 19.3588 23.2502 18.5958C22.7082 17.8329 22.654 17.2606 23.0876 16.8792C23.5212 16.4023 24.1173 15.8301 24.8761 15.1625C25.418 14.6856 25.9058 14.3518 26.3394 14.1611ZM68.6125 19.8833C68.9376 18.9296 69.6964 18.4528 70.8887 18.4528C71.6475 18.4528 72.1894 18.5482 72.5146 18.7389C72.9482 18.8343 73.2733 19.2157 73.4901 19.8833C73.7069 20.4556 73.6527 20.837 73.3275 21.0278L71.8642 21.8861C71.2139 22.363 70.5093 22.363 69.7506 21.8861C69.317 21.5046 68.9376 21.2185 68.6125 21.0278C68.3957 20.837 68.3957 20.4556 68.6125 19.8833ZM67.3118 24.4611C67.7453 24.8426 68.1247 25.5102 68.4499 26.4639C68.7751 27.4176 68.7209 28.0852 68.2873 28.4667C67.9621 28.7528 67.366 29.1819 66.4988 29.7542C65.7401 30.1357 65.1439 30.231 64.7103 30.0403C64.3852 29.8495 63.8974 29.5157 63.247 29.0389C62.4883 28.562 61.8379 28.1806 61.296 27.8944C60.754 27.6083 60.6456 27.0838 60.9708 26.3208C61.4044 25.2718 61.8379 24.6042 62.2715 24.3181C62.8135 23.9366 63.6806 23.7458 64.8729 23.7458C66.0652 23.7458 66.8782 23.9843 67.3118 24.4611ZM29.4286 24.4611C30.1873 24.3657 30.8919 24.7472 31.5422 25.6056C32.301 26.4639 32.4636 27.1792 32.03 27.7514C31.7048 28.2282 31.1628 28.8958 30.4041 29.7542C29.7537 30.5171 29.2118 31.0894 28.7782 31.4708C28.3446 31.8523 27.5859 31.9 26.502 31.6139C25.2013 31.2324 24.2799 30.8509 23.738 30.4694C23.3044 29.9926 23.0876 29.1819 23.0876 28.0375C23.0876 26.8931 23.3586 26.1778 23.9006 25.8917C24.5509 25.6056 25.4722 25.2718 26.6646 24.8903C27.8569 24.6042 28.7782 24.4611 29.4286 24.4611ZM76.7419 25.1764C77.2839 25.2718 77.9884 25.4625 78.8556 25.7486C79.7227 25.9394 80.4273 26.1301 80.9692 26.3208C81.5112 26.4162 81.7822 26.8454 81.7822 27.6083C81.7822 28.4667 81.5654 29.0389 81.1318 29.325C80.6982 29.5157 80.0479 29.7542 79.1807 30.0403C78.3136 30.3264 77.609 30.5171 77.0671 30.6125C76.5251 30.6125 75.9832 30.3264 75.4412 29.7542C74.7908 28.9912 74.4115 28.3713 74.3031 27.8944C74.3031 27.4176 74.6283 26.7977 75.2786 26.0347C75.7122 25.3671 76.1999 25.081 76.7419 25.1764ZM58.2068 73.3861C56.9061 75.1028 54.684 75.9611 51.5406 75.9611C48.5057 75.9611 46.3378 75.1028 45.0371 73.3861C43.7364 71.5741 42.9776 69.3329 42.7608 66.6625C42.6525 63.8968 42.5441 60.7972 42.4357 57.3639V47.0639C42.5441 43.5352 42.6525 40.4833 42.7608 37.9083C42.9776 35.4287 43.6822 33.2829 44.8745 31.4708C46.0668 29.6588 48.2889 28.7051 51.5406 28.6097C54.7924 28.7051 57.0145 29.6588 58.2068 31.4708C59.5075 33.2829 60.212 35.4287 60.3204 37.9083C60.5372 40.4833 60.6456 43.5352 60.6456 47.0639C60.754 50.4972 60.754 53.9306 60.6456 57.3639C60.6456 60.7972 60.5372 63.8968 60.3204 66.6625C60.212 69.3329 59.5075 71.5741 58.2068 73.3861ZM91.8627 33.3306C93.2718 33.9981 94.6267 35.5718 95.9274 38.0514C97.1197 40.2449 97.2281 41.8662 96.2526 42.9153C95.277 43.9644 93.8137 45.2995 91.8627 46.9208C90.3452 48.1607 89.0986 49.2574 88.1231 50.2111C87.1476 51.0694 86.1179 51.6417 85.0339 51.9278C83.95 52.2139 82.5409 51.9278 80.8066 51.0694C78.0968 49.7343 76.9045 48.3037 77.2297 46.7778C77.5549 45.2519 77.9884 43.1537 78.5304 40.4833C79.0723 38.0991 79.6143 36.3347 80.1563 35.1903C80.8066 33.9505 82.4867 33.1398 85.1965 32.7583C88.2315 32.4722 90.4536 32.663 91.8627 33.3306ZM17.7222 44.4889C18.6977 44.2028 19.8358 44.5366 21.1365 45.4903C22.5456 46.3486 23.1418 47.2069 22.925 48.0653C22.8166 48.8282 22.4914 49.925 21.9495 51.3556C21.5159 52.4046 20.974 53.0245 20.3236 53.2153C19.6732 53.3106 18.6977 53.3583 17.397 53.3583H13.82C13.0613 53.263 12.4651 52.5954 12.0316 51.3556C11.598 50.0204 11.5438 49.019 11.869 48.3514C12.1942 47.5884 13.0071 46.8255 14.3078 46.0625C15.7169 45.2042 16.855 44.6796 17.7222 44.4889ZM68.1247 49.0667C68.9918 48.4944 69.6422 48.3991 70.0758 48.7806C70.5093 49.0667 71.1597 49.4482 72.0268 49.925C72.7856 50.4019 73.3817 50.7833 73.8153 51.0694C74.2489 51.3556 74.3573 51.8801 74.1405 52.6431C73.9237 53.5014 73.5443 54.0259 73.0024 54.2167C72.5688 54.4074 71.8642 54.5505 70.8887 54.6458C69.9132 54.6458 69.2086 54.5505 68.7751 54.3597C68.3415 54.169 67.9079 53.6921 67.4743 52.9292C67.1492 51.9755 66.9324 51.2602 66.824 50.7833C66.824 50.2111 67.2576 49.6389 68.1247 49.0667ZM29.7537 49.4958L31.217 48.9236L33.1681 49.925L31.3796 51.0694H29.5912L29.7537 49.4958ZM34.1436 53.3583L35.9321 52.3569L37.2328 53.7875L36.5825 55.5042L34.6314 55.075L34.1436 53.3583ZM79.3433 54.5028C80.1021 54.2167 81.1318 54.312 82.4325 54.7889C83.8416 55.1704 84.8172 55.5995 85.3591 56.0764C86.0095 56.5532 86.3346 57.5069 86.3346 58.9375C86.3346 60.2727 86.0095 61.1787 85.3591 61.6556C84.7088 62.037 83.6248 62.4185 82.1073 62.8C80.6982 63.1815 79.5601 63.3722 78.693 63.3722C77.9342 63.2769 77.1213 62.7046 76.2541 61.6556C75.387 60.5111 75.0618 59.6051 75.2786 58.9375C75.6038 58.2699 76.2541 57.4116 77.2297 56.3625C77.9884 55.4088 78.693 54.7889 79.3433 54.5028ZM17.5596 62.9431C18.2099 63.0384 19.0771 63.4199 20.161 64.0875C21.0281 64.5644 21.4075 65.0889 21.2991 65.6611C21.1907 66.138 20.974 66.8056 20.6488 67.6639C20.432 68.8083 19.619 69.4282 18.2099 69.5236C17.3428 69.619 16.6924 69.5713 16.2589 69.3806C15.8253 69.1898 15.4459 68.7607 15.1208 68.0931C14.6872 67.1394 14.3078 66.3764 13.9826 65.8042C13.7659 65.2319 14.091 64.612 14.9582 63.9445C16.0421 63.1815 16.9092 62.8477 17.5596 62.9431ZM85.1965 69.9528C86.6056 69.1898 87.9063 69.3329 89.0987 70.382C89.8574 70.9542 90.2368 71.4787 90.2368 71.9556C90.3452 72.337 90.1826 72.9093 89.749 73.6722C89.3154 74.4352 88.8819 74.912 88.4483 75.1028C88.0147 75.2935 87.3644 75.3412 86.4972 75.2458C85.7385 75.1505 85.3591 74.912 85.3591 74.5306C85.3591 74.0537 85.2507 73.4815 85.0339 72.8139C84.9255 72.1463 84.7088 71.5741 84.3836 71.0972C84.1668 70.6204 84.4378 70.2389 85.1965 69.9528ZM72.1894 69.9528L73.4901 71.6694L72.8398 73.6722L70.4009 72.9569L70.2383 70.9542L72.1894 69.9528ZM39.6717 75.3889L40.9724 76.6764L40.8098 78.1069L39.0213 78.25L37.558 76.5333L39.6717 75.3889ZM14.3078 75.8181C14.8498 75.3412 15.7711 75.2935 17.0718 75.675C18.3725 75.9611 19.1313 76.438 19.3481 77.1056C19.5648 77.6778 19.6732 78.5838 19.6732 79.8236C19.6732 80.8727 19.4565 81.588 19.0229 81.9695C18.5893 82.3509 17.7764 82.7324 16.5841 83.1139C15.6085 83.4 14.8498 83.4 14.3078 83.1139C13.8742 82.8278 13.3323 82.3032 12.6819 81.5403C12.0316 80.8727 11.7064 80.3005 11.7064 79.8236C11.7064 79.3468 11.9774 78.7269 12.5193 77.9639C13.2781 77.0102 13.8742 76.2949 14.3078 75.8181ZM67.9621 76.8195C68.8292 76.3426 69.6964 76.6764 70.5635 77.8208C71.6475 79.2514 72.1894 80.3958 72.1894 81.2542C72.2978 82.1125 71.7559 83.2093 70.5635 84.5445C69.3712 85.8796 68.2873 86.6903 67.3118 86.9764C66.3362 87.2625 64.9271 87.1195 63.0844 86.5472C61.4586 85.975 60.5372 85.2597 60.3204 84.4014C60.1037 83.5431 60.0495 82.3509 60.1578 80.825C60.1578 79.6806 60.5372 79.013 61.296 78.8222C62.0547 78.5361 63.0844 78.25 64.3852 77.9639C65.9027 77.5824 67.095 77.2009 67.9621 76.8195ZM30.4041 79.5375L31.8674 80.3958L32.3552 81.8264L30.7293 82.1125L29.5912 80.9681L30.4041 79.5375ZM44.8745 82.6847C46.0668 83.257 47.5843 84.0676 49.427 85.1167C51.0529 86.0704 52.191 86.9287 52.8414 87.6917C53.6001 88.3593 53.7085 89.5514 53.1665 91.2681C52.6246 93.1755 51.9742 94.5583 51.2155 95.4167C50.4567 96.1796 48.9392 96.6088 46.663 96.7042C44.2783 96.7995 42.5441 96.5611 41.4601 95.9889C40.3762 95.3213 39.4007 94.0338 38.5335 92.1264C37.6664 90.0282 37.287 88.407 37.3954 87.2625C37.6122 86.1181 38.6961 84.8782 40.6472 83.5431C42.3815 82.3032 43.7906 82.0171 44.8745 82.6847ZM75.116 83.257C75.5496 83.1616 76.0916 83.1139 76.7419 83.1139C77.3923 83.1139 77.88 83.1616 78.2052 83.257C78.6388 83.3523 78.964 83.6861 79.1807 84.2583C79.3975 85.3074 78.964 86.1657 77.88 86.8333C77.3381 87.1194 76.9045 87.1671 76.5793 86.9764C76.2541 86.7857 75.8206 86.4995 75.2786 86.1181L74.3031 85.2597C74.0863 84.9736 74.0863 84.5444 74.3031 83.9722C74.5199 83.4954 74.7908 83.257 75.116 83.257ZM84.8713 84.8306L86.3346 84.2583L87.1476 85.4028L86.1721 86.4042L85.0339 85.832L84.8713 84.8306ZM33.6559 90.8389H34.794L35.1192 91.8403L34.1436 92.5556L33.0055 91.8403L33.6559 90.8389Z" fill="url(#paint1_linear_39_856)"/>
<mask id="mask0_39_856" style="mask-type:alpha" maskUnits="userSpaceOnUse" x="0" y="0" width="102" height="102">
<circle cx="51" cy="51" r="51" fill="#FEFEFE"/>
</mask>
<g mask="url(#mask0_39_856)">
<path d="M71 48C71 59.0457 62.0457 68 51 68C39.9543 68 31 59.0457 31 48C31 36.9543 39.9543 28 51 28C62.0457 28 71 36.9543 71 48Z" fill="#FEFEFE"/>
<path d="M21 95C21 78.4315 34.4315 65 51 65C67.5685 65 81 78.4315 81 95V102H21V95Z" fill="#FEFEFE"/>
</g>
<defs>
<linearGradient id="paint0_linear_39_856" x1="50.505" y1="5.5" x2="50.505" y2="96.5" gradientUnits="userSpaceOnUse">
<stop stop-color="#FEFEFE"/>
<stop offset="1" stop-color="#14CDE1"/>
</linearGradient>
<linearGradient id="paint1_linear_39_856" x1="18.1032" y1="99.7754" x2="85.6187" y2="5.23877" gradientUnits="userSpaceOnUse">
<stop stop-color="#02092A"/>
<stop offset="1" stop-color="#02CBE5"/>
</linearGradient>
</defs>
</svg>
