<svg width="60" height="58" viewBox="0 0 60 58" fill="none" xmlns="http://www.w3.org/2000/svg">
<path d="M5.0419 14.3401C3.43849 14.3401 2.13867 12.9969 2.13867 11.3401V4.62207C2.13867 2.96521 3.43849 1.62206 5.0419 1.62206H54.967C56.5704 1.62206 57.8702 2.96521 57.8702 4.62206V11.3401C57.8702 12.9969 56.5704 14.3401 54.967 14.3401H5.0419Z" fill="#FEFEFE"/>
<path fill-rule="evenodd" clip-rule="evenodd" d="M3.62212 7.29457C3.40092 7.4031 3.26267 7.62016 3.20737 7.94574C3.15207 8.30749 3.20738 8.57881 3.37328 8.75969C3.53917 8.90439 3.87097 9.0491 4.36866 9.1938C4.86636 9.3385 5.22581 9.37468 5.44701 9.30233C5.6682 9.1938 5.9447 8.99483 6.2765 8.70543C6.55065 8.50046 6.79707 8.33179 7.01575 8.1994C7.03759 8.18618 7.06039 8.173 7.08352 8.15962C7.23796 8.0703 7.4072 7.97244 7.40458 7.79781C7.40244 7.65555 7.30291 7.48781 7.10599 7.29457C6.77419 6.93282 6.4424 6.77003 6.1106 6.8062C5.7788 6.84238 5.3364 6.91473 4.78341 7.02326C4.23042 7.09561 3.84332 7.18605 3.62212 7.29457ZM10.341 6.42636C10.4516 6.39018 10.5899 6.44444 10.7558 6.58915L10.1342 7.35007L10.1378 7.35361C10.1492 7.35969 10.1646 7.36713 10.184 7.37475C10.2039 7.38254 10.2295 7.39102 10.2601 7.39822L10.7558 6.58915C10.9748 6.73246 10.7971 6.98401 10.6303 7.18907C10.6169 7.20547 10.6036 7.22239 10.5902 7.23985V7.23985C10.5688 7.26783 10.5467 7.29636 10.5243 7.32403C10.4994 7.35495 10.4738 7.38538 10.4475 7.41467C10.4433 7.4194 10.439 7.42409 10.4347 7.42875C10.2887 7.58769 10.1196 7.70898 9.9091 7.68377C9.88774 7.68122 9.86582 7.6781 9.84332 7.67442C9.77869 7.66596 9.71747 7.65578 9.65964 7.64387C9.63868 7.63955 9.61816 7.635 9.59809 7.63023C9.5397 7.61634 9.48507 7.60053 9.43424 7.58279C9.40198 7.57153 9.37124 7.5595 9.34203 7.5467C9.20466 7.48649 9.10096 7.40914 9.03092 7.31467C8.92861 7.17666 8.89351 6.96032 9.01276 6.83768C9.05333 6.79594 9.10899 6.76736 9.17973 6.75194L9.67742 6.58915C9.7564 6.56848 9.83087 6.54929 9.90083 6.53157C9.91 6.52925 9.91909 6.52695 9.92811 6.52468C10.0911 6.48362 10.2287 6.45084 10.341 6.42636ZM9.91506 6.6896V6.6896ZM5.14053 8.3371C5.25766 8.26323 5.4263 8.13837 5.65228 7.94127L5.67992 7.91716L5.70923 7.89524C5.72324 7.88477 5.7372 7.87437 5.75113 7.86404C5.52769 7.89952 5.26588 7.94645 4.96398 8.0057L4.93462 8.01146L4.90497 8.01534C4.6297 8.05135 4.42942 8.0887 4.28949 8.12126C4.38368 8.1554 4.49679 8.19222 4.63078 8.23118C4.84597 8.29374 5.00105 8.32367 5.10533 8.33417C5.11859 8.3355 5.13029 8.33645 5.14053 8.3371ZM1.1137 15.4108C0.503024 15.0113 0 14.3931 0 13.5349V2.46512C0 1.60688 0.503024 0.988679 1.1137 0.589191C1.73465 0.182981 2.44603 0 3.20737 0H56.7926C57.554 0 58.2654 0.18298 58.8863 0.589192C59.497 0.988678 60 1.60688 60 2.46512V13.5349C60 14.3931 59.497 15.0113 58.8863 15.4108C58.2654 15.817 57.554 16 56.7926 16H3.20737C2.44603 16 1.73465 15.817 1.1137 15.4108ZM24.0276 5.39535C24.1598 5.54659 24.2327 5.67847 24.2464 5.791C24.2638 5.93268 24.144 6.04278 24.0336 6.12862C23.9116 6.22343 23.7438 6.34076 23.53 6.48062C23.3639 6.56754 23.2177 6.62836 23.0915 6.66307C22.9447 6.70347 22.7906 6.68715 22.6422 6.65303C22.4665 6.61262 22.2647 6.55515 22.0369 6.48062C21.8305 6.41313 21.6562 6.35263 21.5141 6.29912C21.3639 6.24263 21.1969 6.17725 21.1358 6.02467C21.0972 5.92813 21.0934 5.80879 21.1244 5.66667C21.235 5.34109 21.3456 5.10594 21.4562 4.96124C21.5668 4.78036 21.871 4.67184 22.3687 4.63566C22.8664 4.59948 23.2258 4.65375 23.447 4.79845C23.6129 4.90698 23.8065 5.10594 24.0276 5.39535ZM22.9436 5.65383C22.9319 5.6503 22.9089 5.64435 22.8716 5.63872C22.8167 5.63043 22.7434 5.62474 22.649 5.62481C22.7232 5.64549 22.7909 5.66277 22.8524 5.67691C22.8651 5.67981 22.8754 5.68192 22.8839 5.68344C22.9018 5.677 22.9233 5.6686 22.9486 5.65777C22.9468 5.65637 22.9436 5.65383 22.9436 5.65383ZM28.424 7.51163C28.7005 7.80103 29.0323 8.23514 29.4194 8.81395C29.6959 9.24806 29.7235 9.57364 29.5023 9.7907C29.2811 10.0078 28.8664 10.2791 28.2581 10.6047C27.7051 10.9302 27.235 11.1654 26.8479 11.3101C26.4608 11.4186 25.9355 11.3463 25.2719 11.093C24.553 10.7674 24.0829 10.478 23.8617 10.2248C23.6406 9.9354 23.6406 9.51938 23.8617 8.97674C24.0469 8.46191 24.2709 8.06117 24.5335 7.7745C24.633 7.66593 24.7352 7.55743 24.8545 7.4729C25.1839 7.23961 25.7654 7.10782 26.5991 7.07752C27.5392 7.04134 28.1475 7.18605 28.424 7.51163ZM24.6701 9.6342C24.8098 9.7413 25.1025 9.92283 25.6335 10.1649C26.1698 10.3663 26.4534 10.3715 26.5678 10.351C26.8769 10.2306 27.278 10.0308 27.779 9.73579L27.7958 9.72589L27.813 9.7167C28.1437 9.53968 28.3853 9.3944 28.5548 9.28091C28.2125 8.77612 27.9404 8.42885 27.7353 8.21418L27.7153 8.19329L27.7142 8.19197C27.6968 8.18231 27.6469 8.15807 27.5433 8.13343C27.3526 8.08807 27.0585 8.06054 26.6351 8.07683L26.6331 8.0769C25.8221 8.10638 25.4864 8.23772 25.4016 8.29776C25.3776 8.31473 25.3395 8.3494 25.2362 8.46207C25.0908 8.62078 24.9252 8.89041 24.7689 9.32513L24.7616 9.3452L24.7536 9.36494C24.7021 9.4913 24.6796 9.57926 24.6701 9.6342ZM43.8525 5.1783C43.4101 5.28682 43.0783 5.34109 42.8571 5.34109C42.5806 5.30491 42.3041 5.16021 42.0276 4.90698C41.5299 4.47287 41.5299 4.02067 42.0276 3.55039C42.4147 3.26098 42.7465 3.04393 43.023 2.89923C43.2442 2.75452 43.6313 2.73643 44.1843 2.84496C44.7926 2.98967 45.1797 3.17054 45.3456 3.3876C45.5115 3.56848 45.5945 3.85788 45.5945 4.25581C45.5945 4.61757 45.4562 4.83463 45.1797 4.90698C44.8479 4.97933 44.4055 5.06977 43.8525 5.1783ZM42.7628 4.23725C42.8393 4.29586 42.8961 4.32384 42.9335 4.33726C43.0608 4.3263 43.2839 4.29001 43.629 4.20534L43.6504 4.20009L43.672 4.19586C44.0139 4.12875 44.3115 4.06896 44.5652 4.01643C44.5555 4.01148 44.5445 4.0061 44.5321 4.00032C44.4198 3.94784 44.2435 3.88612 43.9857 3.82389C43.763 3.78122 43.6135 3.77188 43.523 3.77611C43.5062 3.7769 43.4931 3.77806 43.4835 3.77921L43.4603 3.79134C43.2804 3.88548 43.0493 4.03079 42.7628 4.23725ZM43.4613 3.78281L43.4633 3.78232ZM56.8756 4.31008C56.7779 4.43791 56.6748 4.53752 56.5663 4.60888C56.532 4.63145 56.4971 4.6512 56.4617 4.66812L56.4583 4.66972L56.4551 4.67125C56.351 4.71987 56.2424 4.74419 56.129 4.74419C55.8525 4.74419 55.4654 4.7261 54.9677 4.68992C54.5806 4.61757 54.3594 4.52713 54.3041 4.41861C54.2488 4.2739 54.1935 4.07494 54.1382 3.82171C54.0829 3.5323 54.0276 3.29716 53.9724 3.11628C53.9171 2.9354 54.0829 2.7907 54.47 2.68217C54.6949 2.61913 54.8824 2.59881 55.0327 2.62122C55.1815 2.64341 55.2945 2.74948 55.4074 2.85554C55.4409 2.88699 55.4744 2.91843 55.5089 2.94768C55.6254 3.04674 55.7768 3.1572 55.9631 3.27907C56.2949 3.49612 56.5991 3.65892 56.8756 3.76744C57.0968 3.87597 57.0968 4.05685 56.8756 4.31008ZM48.6636 11.5814C48.3871 11.6537 48.1659 11.8527 48 12.1783C47.8894 12.4315 47.9724 12.5943 48.2488 12.6667C48.47 12.739 48.7742 12.8656 49.1613 13.0465C49.5484 13.2274 49.9355 13.2274 50.3226 13.0465C50.6544 12.8656 50.9032 12.739 51.0691 12.6667C51.235 12.5943 51.2627 12.4315 51.1521 12.1783C51.0522 12.0041 50.9523 11.8692 50.8524 11.7736C50.7352 11.6614 50.5874 11.5846 50.4328 11.5426C50.2617 11.4961 50.0314 11.4729 49.7419 11.4729C49.2442 11.4729 48.8848 11.509 48.6636 11.5814ZM16.7008 7.13334C16.7008 7.13334 16.7037 7.13635 16.7079 7.14232C16.7026 7.13632 16.7008 7.13334 16.7008 7.13334ZM16.0645 7.02326C16.4516 6.73385 16.894 6.6615 17.3917 6.8062C17.638 6.87524 17.8395 6.93696 17.9962 6.99136C18.1477 7.04394 18.3073 7.12009 18.3533 7.2782C18.36 7.30134 18.3657 7.32612 18.3705 7.35254C18.3955 7.49286 18.3873 7.64178 18.3269 7.77009C18.1913 8.05816 17.8519 8.26141 17.3088 8.37985C17.1065 8.4019 16.935 8.40379 16.7944 8.3855C16.6358 8.36488 16.492 8.28429 16.3671 8.18126C16.2662 8.09804 16.1654 8.00144 16.0645 7.89147C15.7327 7.56589 15.7327 7.27649 16.0645 7.02326ZM35.8894 12.5039C35.6129 12.3953 35.2535 12.2868 34.8111 12.1783C34.3687 12.0698 34.0092 11.9974 33.7327 11.9612C33.4009 11.9251 33.2627 11.7442 33.318 11.4186C33.3733 11.0568 33.5115 10.8036 33.7327 10.6589C33.8986 10.5142 34.2304 10.4057 34.7281 10.3333C35.2258 10.261 35.53 10.3152 35.6406 10.4961C35.7512 10.677 35.917 10.8941 36.1382 11.1473C36.3594 11.4005 36.5806 11.5995 36.8018 11.7442C36.9677 11.8889 36.9124 12.0698 36.6359 12.2868C36.5424 12.3602 36.4521 12.4171 36.3649 12.4574C36.302 12.4865 36.2406 12.507 36.181 12.5188C36.079 12.5391 35.9818 12.5341 35.8894 12.5039ZM33.8301 10.9662L33.8323 10.9665ZM45.4286 11.4729C45.1521 11.5814 44.8203 11.7442 44.4332 11.9612C44.1014 12.1421 43.8525 12.2687 43.6866 12.3411C43.4654 12.4134 43.1613 12.3773 42.7742 12.2326C42.5632 12.134 42.4015 12.0408 42.2891 11.9529C42.1444 11.8398 42.0362 11.6625 42.0448 11.4752C42.0473 11.4224 42.0571 11.3667 42.0743 11.308C42.1226 11.1436 42.1968 10.988 42.2705 10.8334C42.2814 10.8105 42.2923 10.7875 42.3032 10.7646C42.3386 10.6896 42.3762 10.6216 42.4159 10.5605C42.5246 10.3933 42.6727 10.2452 42.8577 10.1821C43.0299 10.1233 43.2786 10.0833 43.6037 10.062C44.1567 10.062 44.5714 10.1163 44.8479 10.2248C45.0003 10.2747 45.1396 10.3932 45.2658 10.5805C45.2841 10.6076 45.3028 10.6347 45.3215 10.6619C45.4313 10.8211 45.5437 10.984 45.5862 11.1721C45.6164 11.3062 45.5639 11.4065 45.4286 11.4729ZM43.987 11.0737C43.8855 11.0669 43.7685 11.0627 43.6346 11.0621C43.4289 11.0767 43.297 11.0979 43.221 11.1153L43.2192 11.1181C43.2072 11.1365 43.1914 11.164 43.1728 11.2032C43.161 11.2283 43.15 11.2516 43.1396 11.2734C43.1354 11.2824 43.1312 11.2912 43.1272 11.2997C43.1307 11.3014 43.1343 11.3031 43.1379 11.3048C43.2644 11.35 43.351 11.3686 43.4033 11.3748L43.4074 11.3752C43.5369 11.3136 43.7241 11.2171 43.9767 11.0795C43.9801 11.0775 43.9836 11.0756 43.987 11.0737ZM49.1968 4.29002C49.1926 4.30642 49.1864 4.3253 49.1775 4.34565C49.1718 4.35876 49.1649 4.37248 49.1568 4.38654C49.1503 4.39774 49.1435 4.40821 49.1366 4.41795C49.1326 4.42361 49.1285 4.42903 49.1244 4.4342C49.1119 4.45003 49.0993 4.46357 49.0872 4.47486C49.084 4.47417 49.0807 4.47343 49.0773 4.47262C49.0726 4.47147 49.0676 4.47019 49.0624 4.46877C49.0226 4.45774 48.9875 4.44389 48.9572 4.42923C48.9504 4.39883 48.945 4.36489 48.9422 4.32752C48.9411 4.31259 48.9404 4.29711 48.9402 4.28109C48.9401 4.27722 48.9401 4.27332 48.9401 4.26938C48.9401 4.25236 48.9407 4.23545 48.9418 4.21869C48.9503 4.08869 48.9912 3.96744 49.0523 3.86777C49.055 3.86335 49.0578 3.85897 49.0606 3.85464C49.0774 3.82852 49.0945 3.80571 49.111 3.78592C49.1286 3.81779 49.1453 3.85361 49.1598 3.89363C49.1712 3.92492 49.1803 3.95607 49.1874 3.98684C49.1972 4.02965 49.2031 4.07174 49.2057 4.11248C49.2092 4.16634 49.2069 4.21786 49.2005 4.26562C49.1994 4.27387 49.1982 4.282 49.1968 4.29002ZM49.0367 4.61687C49.0367 4.61687 49.033 4.6129 49.0278 4.60526C49.0344 4.6131 49.0367 4.61687 49.0367 4.61687ZM54.9677 7.29457C54.7767 7.31243 54.6126 7.33469 54.4754 7.36136C54.4606 7.36424 54.4458 7.36708 54.431 7.36991C54.2171 7.41094 54.005 7.45163 53.8408 7.59932C53.675 7.74848 53.6066 8.0033 53.5997 8.23035C53.5959 8.35727 53.6095 8.46136 53.6405 8.54264C53.6958 8.68734 53.9171 8.83204 54.3041 8.97674C54.5277 9.06031 54.7144 9.09562 54.8642 9.08266C55.0158 9.06954 55.1302 8.96102 55.2443 8.8527C55.2763 8.82229 55.3083 8.79189 55.3412 8.76363C55.4417 8.67707 55.5661 8.58532 55.7143 8.48837C55.8074 8.44267 55.8908 8.40017 55.9643 8.36088C56.1322 8.27118 56.3311 8.13835 56.285 7.94891C56.2725 7.89746 56.2482 7.84214 56.212 7.78295C55.9355 7.42119 55.5207 7.2584 54.9677 7.29457ZM9.07931 9.71868C9.14929 9.75482 9.21044 9.80451 9.26043 9.8637C9.28452 9.89222 9.30601 9.92295 9.32465 9.95542C9.33072 9.966 9.33649 9.97676 9.34194 9.98769C9.39633 10.0966 9.41974 10.2225 9.40323 10.3497C9.39747 10.394 9.38687 10.4385 9.37105 10.4825C9.36743 10.4926 9.36353 10.5026 9.35936 10.5126C9.3381 10.5637 9.31038 10.6111 9.27714 10.654C9.24855 10.6595 9.21956 10.6622 9.19056 10.662C9.13791 10.6616 9.08527 10.6518 9.0351 10.6325C9.02187 10.6274 9.00881 10.6216 8.99596 10.6152C8.9913 10.6128 8.98667 10.6104 8.98207 10.6079C8.9778 10.6052 8.97359 10.6025 8.96944 10.5996C8.89383 10.5485 8.83723 10.4791 8.80106 10.4009C8.77819 10.3515 8.76349 10.2986 8.75731 10.2446C8.75463 10.2212 8.75355 10.1975 8.75412 10.1738C8.75643 10.0771 8.78612 9.98014 8.84521 9.89646C8.856 9.88118 8.86777 9.86634 8.88054 9.85203C8.90094 9.82915 8.92319 9.80852 8.94694 9.79028C8.98733 9.75926 9.03204 9.73516 9.07931 9.71868ZM9.0214 9.6927C8.98588 9.70576 8.95144 9.72298 8.91879 9.74434L8.6134 9.94412C8.55003 9.98558 8.50026 10.0458 8.47058 10.117C8.37034 10.3574 8.52671 10.6289 8.77904 10.6525L9.18805 10.6907C9.20695 10.6925 9.22581 10.6931 9.24455 10.6926C9.25719 10.6923 9.26977 10.6914 9.28228 10.6901C9.40001 10.6776 9.51058 10.6212 9.59222 10.5297C9.80556 10.2904 9.74809 9.90827 9.47454 9.74722L9.44805 9.73162C9.33342 9.66413 9.20026 9.64585 9.07582 9.67613C9.05746 9.6806 9.03929 9.68612 9.0214 9.6927ZM13.381 3.12536C13.4656 3.08737 13.5344 3.01725 13.5717 2.92767C13.661 2.71345 13.5437 2.46751 13.3249 2.41025L13.229 2.38515C13.2583 2.4116 13.2853 2.44104 13.3095 2.47316C13.3528 2.53075 13.387 2.59696 13.4093 2.67006C13.4293 2.73522 13.4385 2.80199 13.4377 2.86799C13.4365 2.95716 13.4171 3.04491 13.381 3.12536ZM12.7064 2.48205C12.6979 2.49825 12.6901 2.51492 12.6829 2.53202C12.668 2.56786 12.6566 2.60423 12.6485 2.64077C12.6279 2.73435 12.6292 2.82897 12.6494 2.91816C12.6761 3.03656 12.7362 3.14539 12.8223 3.22954C12.6708 3.22733 12.5337 3.1254 12.4866 2.9713C12.4431 2.82907 12.4866 2.67377 12.5969 2.57756L12.7064 2.48205ZM15.2426 12.3959C15.3387 12.3326 15.4009 12.2216 15.4009 12.0977C15.4009 11.9413 15.3026 11.8086 15.1664 11.762C15.1874 11.7903 15.2064 11.8206 15.2229 11.853C15.2625 11.9307 15.285 12.014 15.2911 12.0977C15.2986 12.1996 15.282 12.3021 15.2426 12.3959ZM14.4906 11.8271C14.4789 11.8362 14.4676 11.8461 14.4569 11.8566L14.4372 11.8759C14.3203 11.9906 14.2915 12.1715 14.3666 12.3189C14.4101 12.4043 14.4825 12.4666 14.5667 12.4969C14.5162 12.4306 14.4781 12.3539 14.4558 12.2704C14.441 12.2154 14.4332 12.1575 14.4332 12.0977C14.4332 12.0301 14.4433 11.9647 14.4621 11.903C14.4652 11.8929 14.4685 11.883 14.472 11.8731C14.4777 11.8575 14.4838 11.8421 14.4906 11.8271ZM17.3598 10.83C17.3783 10.9074 17.3839 10.9879 17.376 11.0675C17.3665 11.1642 17.3372 11.2595 17.287 11.346C17.3965 11.3042 17.4747 11.1953 17.4747 11.0675C17.4747 10.9715 17.4302 10.8847 17.3598 10.83ZM16.607 10.7002C16.5828 10.7099 16.5597 10.7228 16.5383 10.7388C16.3664 10.8673 16.3753 11.1217 16.5288 11.2446C16.5145 11.1878 16.5069 11.1284 16.5069 11.0675C16.5069 10.9648 16.5282 10.8672 16.5665 10.7792C16.5784 10.7519 16.592 10.7255 16.607 10.7002ZM19.5624 2.80668L19.5503 2.81369C19.3645 2.92173 19.2957 3.16295 19.395 3.35789C19.4563 3.47811 19.5689 3.55515 19.6926 3.57185L19.6982 3.57257L19.6944 3.56893C19.6132 3.49143 19.5549 3.39414 19.523 3.28826C19.482 3.15234 19.4847 3.00228 19.5383 2.86182C19.5435 2.84839 19.549 2.83519 19.555 2.82224C19.5574 2.81702 19.5598 2.81183 19.5624 2.80668ZM20.2621 3.42238C20.2968 3.34666 20.3157 3.26386 20.3174 3.17972C20.3193 3.08265 20.2981 2.9838 20.2513 2.89199C20.2499 2.88925 20.2485 2.88652 20.247 2.88381C20.2272 2.84622 20.2038 2.81161 20.1776 2.78024C20.1402 2.73558 20.097 2.69747 20.0497 2.66667C20.1045 2.6788 20.1577 2.7009 20.2066 2.7329L20.3015 2.79498C20.4421 2.88695 20.4996 3.06919 20.4384 3.22912C20.4056 3.31504 20.3422 3.38395 20.2621 3.42238ZM21.8907 13.1851C21.8931 13.1827 21.8954 13.1803 21.8977 13.1778C21.9069 13.168 21.9156 13.1579 21.9238 13.1475C21.9881 13.0659 22.0221 12.9678 22.0263 12.8688C22.0267 12.8594 22.0268 12.8501 22.0266 12.8408C22.0265 12.8322 22.0262 12.8236 22.0256 12.815C22.02 12.7309 21.993 12.6483 21.9449 12.5768C21.9198 12.5393 21.8888 12.5048 21.8521 12.4749C21.8144 12.444 21.7729 12.4199 21.729 12.4028C21.7033 12.3928 21.6768 12.3852 21.6498 12.3801C21.5839 12.4365 21.5307 12.5076 21.4944 12.5883C21.4787 12.6234 21.4661 12.6602 21.4571 12.6984C21.4552 12.7065 21.4535 12.7146 21.4519 12.7228C21.4499 12.7334 21.4481 12.744 21.4466 12.7547C21.4355 12.8347 21.4404 12.9139 21.4589 12.9883C21.4705 13.0346 21.4874 13.0791 21.509 13.1209C21.5444 13.1892 21.5925 13.2502 21.6509 13.3C21.6642 13.2981 21.6775 13.2957 21.6905 13.2927C21.7608 13.2763 21.8271 13.2422 21.8831 13.1921C21.8857 13.1898 21.8882 13.1874 21.8907 13.1851ZM22.1261 13.2272C22.2737 13.1833 22.3827 13.054 22.4045 12.8968C22.4317 12.7014 22.318 12.5144 22.1359 12.4549L21.7516 12.3292C21.7444 12.3268 21.7371 12.3246 21.7298 12.3226C21.7187 12.3195 21.7074 12.3167 21.6962 12.3144C21.5299 12.28 21.3562 12.3307 21.2316 12.453L21.217 12.4673C20.993 12.6871 21.0093 13.0609 21.2516 13.259C21.3748 13.3597 21.5358 13.3956 21.6876 13.3571C21.6941 13.3555 21.7005 13.3537 21.707 13.3518L22.1261 13.2272ZM34.778 7.37755C34.8601 7.45022 34.9242 7.54673 34.9592 7.66112C34.9802 7.72984 34.9892 7.80088 34.9866 7.87114C34.9848 7.9196 34.9776 7.9677 34.9649 8.01442C34.9976 7.98089 35.0242 7.9409 35.0429 7.89617C35.1351 7.67499 35.0054 7.42325 34.778 7.37755ZM34.3158 8.22111C34.229 8.14416 34.1653 8.04312 34.1316 7.93128C34.1046 7.84148 34.097 7.74472 34.1123 7.64786C34.1168 7.6189 34.1235 7.58993 34.1323 7.56113L34.0862 7.62895C34.0202 7.72601 34.0018 7.84928 34.0364 7.96237C34.0783 8.09946 34.1883 8.19478 34.3158 8.22111ZM41.3641 8.21705C41.2535 8.61499 40.894 8.85013 40.2857 8.92248C39.6774 8.99483 39.235 8.85013 38.9585 8.48837C38.682 8.12662 38.7373 7.81912 39.1244 7.56589C39.3008 7.45048 39.4616 7.35553 39.6068 7.28103L39.6121 7.27828C39.8343 7.16423 40.0687 7.04391 40.3165 7.05082C40.4484 7.0545 40.604 7.08149 40.7834 7.13178C40.869 7.16379 40.9465 7.1958 41.0159 7.22781C41.3493 7.38158 41.447 7.76103 41.3799 8.13182C41.3749 8.1595 41.3696 8.18791 41.3641 8.21705ZM47.2429 7.33549C47.2828 7.44201 47.2981 7.55806 47.2855 7.6733C47.326 7.56508 47.3152 7.43775 47.2429 7.33549ZM46.3796 7.76875C46.3458 7.67495 46.3346 7.57601 46.3442 7.47974C46.3035 7.57732 46.3196 7.68805 46.3796 7.76875ZM48.0444 9.24057C47.9932 9.29792 47.9522 9.36411 47.9231 9.43568C47.8697 9.56728 47.8565 9.71706 47.8947 9.86351C47.8982 9.87662 47.902 9.88971 47.9062 9.90275C47.9144 9.92767 47.924 9.95244 47.9352 9.97695C47.9475 10.0036 47.9613 10.0292 47.9766 10.0536C47.9294 10.0332 47.8856 10.004 47.8475 9.96665L47.8225 9.94211C47.6517 9.77447 47.6597 9.49062 47.8397 9.33359C47.8987 9.28213 47.97 9.25045 48.0444 9.24057ZM48.5305 10.0295L48.5672 10.0235C48.7812 9.98852 48.9025 9.75096 48.8098 9.54872C48.7696 9.46113 48.6947 9.39578 48.6044 9.36953L48.6005 9.36839C48.6014 9.3702 48.6023 9.37201 48.6032 9.37382C48.6418 9.45075 48.6629 9.53452 48.6665 9.61886C48.6722 9.74809 48.637 9.87866 48.5618 9.98802C48.552 10.0022 48.5416 10.0161 48.5305 10.0295ZM48.2488 4.09302C48.3041 3.76744 48.553 3.56848 48.9954 3.49612C49.1183 3.47602 49.2241 3.47826 49.3129 3.50283C49.4429 3.53883 49.5314 3.65468 49.6151 3.76425L49.7419 3.93023C49.9631 4.18346 49.9631 4.38243 49.7419 4.52713C49.5207 4.67183 49.2166 4.68992 48.8295 4.5814C48.3871 4.47287 48.1935 4.31008 48.2488 4.09302ZM51.4684 8.47738C51.6147 8.42686 51.7081 8.27328 51.6833 8.11111C51.6635 7.98121 51.5713 7.87601 51.4489 7.84232C51.5062 7.93215 51.5373 8.0327 51.5439 8.13387C51.5516 8.25301 51.5255 8.37301 51.4684 8.47738ZM50.8156 7.81237C50.8104 7.82114 50.8053 7.83003 50.8005 7.83905C50.7329 7.96492 50.7041 8.11413 50.7275 8.26713C50.7331 8.30406 50.7416 8.34001 50.7529 8.37469C50.7729 8.43681 50.8015 8.49491 50.8373 8.54745C50.7787 8.52752 50.7248 8.49278 50.681 8.44506C50.5042 8.25226 50.5611 7.93726 50.7933 7.82333L50.8156 7.81237ZM58.3687 14.5659C58.8111 14.2765 59.0323 13.9328 59.0323 13.5349V2.46512C59.0323 2.06718 58.8111 1.72351 58.3687 1.43411C57.9263 1.1447 57.4009 1 56.7926 1H3.20737C2.59908 1 2.07373 1.1447 1.63134 1.43411C1.18894 1.72351 0.967742 2.06718 0.967742 2.46512V13.5349C0.967742 13.9328 1.18894 14.2765 1.63134 14.5659C2.07373 14.8553 2.59908 15 3.20737 15H56.7926C57.4009 15 57.9263 14.8553 58.3687 14.5659Z" fill="#FEFEFE"/>
<path d="M59.0323 13.5349C59.0323 13.9328 58.8111 14.2765 58.3687 14.5659C57.9263 14.8553 57.401 15 56.7927 15L3.20741 15C2.59911 15 2.07377 14.8553 1.63137 14.5659C1.18897 14.2765 0.967773 13.9328 0.967773 13.5349L0.967773 2.46512C0.967773 2.06718 1.18897 1.72351 1.63137 1.43411C2.07377 1.1447 2.59911 1 3.20741 1L56.7927 1C57.401 1 57.9263 1.1447 58.3687 1.43411C58.8111 1.72351 59.0323 2.06718 59.0323 2.46512L59.0323 13.5349ZM3.20741 7.94574C3.15211 8.30749 3.20741 8.57881 3.37331 8.75969C3.5392 8.90439 3.871 9.0491 4.3687 9.1938C4.86639 9.3385 5.22584 9.37468 5.44704 9.30233C5.66824 9.1938 5.94473 8.99483 6.27653 8.70543C6.55068 8.50046 6.7971 8.33179 7.01578 8.1994C7.18345 8.0979 7.40762 7.99859 7.40461 7.79781C7.40247 7.65555 7.30294 7.48781 7.10602 7.29457C6.77423 6.93282 6.44243 6.77003 6.11063 6.8062C5.77883 6.84238 5.33644 6.91473 4.78344 7.02326C4.23045 7.09561 3.84335 7.18605 3.62215 7.29457C3.40095 7.4031 3.2627 7.62016 3.20741 7.94574ZM4.70273 11.7143C4.56653 11.7305 4.47164 11.8619 4.49534 12.0014V12.0014C4.51732 12.1308 4.63376 12.2196 4.7599 12.2031L5.15778 12.151C5.27569 12.1356 5.36409 12.032 5.36409 11.9091V11.9091C5.36409 11.7634 5.24124 11.6503 5.10116 11.6669L4.70273 11.7143ZM8.61343 9.94412C8.55006 9.98558 8.50029 10.0458 8.47062 10.117V10.117C8.37037 10.3574 8.52674 10.6289 8.77907 10.6525L9.18808 10.6907C9.33971 10.7049 9.48909 10.6453 9.59225 10.5297V10.5297C9.80559 10.2904 9.74812 9.90827 9.47457 9.74722L9.44809 9.73163C9.28296 9.63441 9.0794 9.6393 8.91882 9.74434L8.61343 9.94412ZM9.67745 6.58915C9.45625 6.6615 9.29036 6.71576 9.17976 6.75194C9.10902 6.76736 9.05336 6.79594 9.01279 6.83768C8.89355 6.96032 8.92864 7.17666 9.03095 7.31467C9.16967 7.50179 9.44047 7.62171 9.84335 7.67442C9.86585 7.6781 9.88777 7.68122 9.90913 7.68377C10.1984 7.71841 10.4094 7.47647 10.5899 7.24031V7.24031C10.6034 7.22269 10.6168 7.20561 10.6303 7.18907C10.7972 6.98401 10.9749 6.73246 10.7558 6.58915V6.58915C10.5899 6.44444 10.4516 6.39018 10.341 6.42636C10.1751 6.46253 9.95395 6.5168 9.67745 6.58915ZM10.8567 11.8659C10.791 11.8573 10.7244 11.8698 10.6658 11.9018L10.4712 12.0079C10.3478 12.0751 10.2887 12.224 10.3307 12.3614V12.3614C10.3811 12.5264 10.5564 12.6125 10.712 12.5489L11.047 12.4119C11.0739 12.4009 11.0988 12.3855 11.1209 12.3663V12.3663C11.2984 12.2115 11.2128 11.9125 10.9824 11.8824L10.8567 11.8659ZM12.5969 2.57756C12.4866 2.67377 12.4431 2.82907 12.4866 2.9713V2.9713C12.5405 3.1476 12.7122 3.25561 12.8885 3.22416L13.2973 3.15122C13.4194 3.12942 13.5227 3.04533 13.5718 2.92767V2.92767C13.6611 2.71345 13.5437 2.46751 13.3249 2.41025L13.1651 2.36844C13.0065 2.32694 12.8383 2.367 12.7133 2.47604L12.5969 2.57756ZM14.7294 11.7442C14.628 11.7442 14.5305 11.7844 14.4569 11.8566L14.4372 11.8759C14.3204 11.9906 14.2915 12.1715 14.3666 12.3189V12.3189C14.4393 12.4615 14.5926 12.5396 14.7464 12.5121L15.1171 12.446C15.2811 12.4167 15.401 12.2697 15.401 12.0977V12.0977C15.401 11.9024 15.2478 11.7442 15.0589 11.7442H14.7294ZM16.0646 7.02326C15.7328 7.27649 15.7328 7.56589 16.0646 7.89147C16.1654 8.00144 16.2663 8.09804 16.3671 8.18126C16.492 8.28429 16.6359 8.36489 16.7944 8.3855C16.935 8.40379 17.1065 8.4019 17.3088 8.37985C17.8519 8.26141 18.1913 8.05816 18.3269 7.77009C18.3874 7.64178 18.3956 7.49286 18.3705 7.35254C18.3658 7.32612 18.36 7.30134 18.3533 7.2782C18.3073 7.12009 18.1477 7.04394 17.9962 6.99136C17.8395 6.93696 17.638 6.87524 17.3917 6.8062C16.894 6.6615 16.4516 6.73385 16.0646 7.02326ZM16.7748 10.6844C16.6921 10.6681 16.6065 10.6878 16.5383 10.7388V10.7388C16.3382 10.8885 16.3831 11.2088 16.6162 11.2935L16.7498 11.3421C16.7904 11.3568 16.833 11.3643 16.876 11.3643H17.1874C17.3461 11.3643 17.4747 11.2314 17.4747 11.0675V11.0675C17.4747 10.9249 17.3766 10.8025 17.241 10.7758L16.7748 10.6844ZM19.5504 2.81369C19.3645 2.92173 19.2957 3.16295 19.395 3.35789V3.35789C19.4838 3.53213 19.6806 3.61568 19.8623 3.55625L20.2207 3.43902C20.3202 3.40648 20.4002 3.32939 20.4385 3.22912V3.22912C20.4996 3.06919 20.4421 2.88695 20.3015 2.79498L20.2066 2.7329C20.0567 2.63481 19.8667 2.62973 19.7121 2.71965L19.5504 2.81369ZM21.7516 12.3292C21.5694 12.2696 21.3702 12.317 21.2316 12.453L21.2171 12.4673C20.9931 12.6871 21.0094 13.0609 21.2516 13.259V13.259C21.3801 13.364 21.5496 13.3986 21.707 13.3518L22.1261 13.2272C22.2737 13.1833 22.3827 13.054 22.4046 12.8968V12.8968C22.4317 12.7014 22.3181 12.5144 22.136 12.4549L21.7516 12.3292ZM22.3687 4.63566C21.871 4.67184 21.5669 4.78036 21.4563 4.96124C21.3457 5.10594 21.2351 5.34109 21.1245 5.66667C21.0934 5.80879 21.0972 5.92813 21.1359 6.02467C21.1969 6.17725 21.364 6.24263 21.5141 6.29912C21.6563 6.35263 21.8305 6.41313 22.0369 6.48062C22.2648 6.55515 22.4665 6.61262 22.6422 6.65303C22.7906 6.68715 22.9447 6.70347 23.0916 6.66307C23.2178 6.62836 23.3639 6.56754 23.53 6.48062C23.7438 6.34076 23.9117 6.22343 24.0336 6.12862C24.1441 6.04277 24.2638 5.93268 24.2465 5.791C24.2327 5.67847 24.1598 5.54659 24.0277 5.39535C23.8065 5.10594 23.6129 4.90698 23.447 4.79845C23.2258 4.65375 22.8664 4.59948 22.3687 4.63566ZM23.8618 8.97674C23.6406 9.51938 23.6406 9.9354 23.8618 10.2248C24.083 10.478 24.553 10.7674 25.2719 11.093C25.9355 11.3463 26.4609 11.4186 26.848 11.3101C27.2351 11.1654 27.7051 10.9302 28.2581 10.6047C28.8664 10.2791 29.2811 10.0078 29.5023 9.7907C29.7235 9.57364 29.6959 9.24806 29.4194 8.81395C29.0323 8.23514 28.7005 7.80103 28.424 7.51163C28.1475 7.18605 27.5392 7.04134 26.5991 7.07752C25.7655 7.10782 25.184 7.23961 24.8545 7.4729C24.7352 7.55743 24.6331 7.66593 24.5336 7.7745C24.2709 8.06117 24.047 8.46191 23.8618 8.97674ZM26.0346 3.97395C25.9254 4.04535 25.8716 4.17997 25.9 4.31017V4.31017C25.9222 4.41197 25.9917 4.49584 26.0856 4.53423L26.3089 4.62555C26.4772 4.69436 26.6691 4.6297 26.7658 4.47158V4.47158C26.8618 4.31462 26.8371 4.10945 26.7068 3.9816L26.6756 3.95101C26.5331 3.81118 26.3168 3.7893 26.1508 3.89792L26.0346 3.97395ZM33.318 11.4186C33.2627 11.7442 33.401 11.9251 33.7328 11.9612C34.0092 11.9974 34.3687 12.0698 34.8111 12.1783C35.2535 12.2868 35.6129 12.3953 35.8894 12.5039C36.1106 12.5762 36.3595 12.5039 36.636 12.2868C36.9125 12.0698 36.9678 11.8889 36.8019 11.7442C36.5807 11.5995 36.3595 11.4005 36.1383 11.1473C35.9171 10.8941 35.7512 10.677 35.6406 10.4961C35.53 10.3152 35.2258 10.261 34.7281 10.3333C34.2304 10.4057 33.8987 10.5142 33.7328 10.6589C33.5116 10.8036 33.3733 11.0568 33.318 11.4186ZM34.0862 7.62895C34.0203 7.72601 34.0019 7.84928 34.0365 7.96237V7.96237C34.0978 8.16293 34.3049 8.27411 34.4989 8.21063L34.8182 8.10621C34.919 8.07322 35.001 7.99657 35.0429 7.89617V7.89617C35.1362 7.67247 35.0025 7.41751 34.7702 7.37607L34.6173 7.3488C34.4318 7.31569 34.2444 7.39617 34.1362 7.55543L34.0862 7.62895ZM38.2907 2.72786C38.2395 2.73344 38.1913 2.75538 38.1528 2.79063V2.79063C38.0032 2.92764 38.065 3.18197 38.2595 3.22968L38.3821 3.25975C38.4337 3.27242 38.4877 3.27127 38.5388 3.25641L38.707 3.20751C38.9108 3.14827 38.9595 2.87283 38.7893 2.74288V2.74288C38.7381 2.70383 38.6746 2.686 38.6114 2.69289L38.2907 2.72786ZM39.1245 7.56589C38.7374 7.81912 38.6821 8.12662 38.9586 8.48837C39.2351 8.85013 39.6775 8.99483 40.2857 8.92248C40.894 8.85013 41.2535 8.61499 41.3641 8.21705C41.3697 8.18791 41.3749 8.1595 41.38 8.13182C41.447 7.76103 41.3493 7.38158 41.016 7.22781C40.9466 7.1958 40.8691 7.16379 40.7834 7.13178C40.6041 7.08149 40.4484 7.0545 40.3165 7.05082C40.0668 7.04386 39.8306 7.16618 39.6068 7.28103C39.4617 7.35553 39.3009 7.45048 39.1245 7.56589ZM42.0277 3.55039C41.53 4.02067 41.53 4.47287 42.0277 4.90698C42.3042 5.16021 42.5807 5.30491 42.8572 5.34109C43.0784 5.34109 43.4102 5.28682 43.8526 5.1783C44.4056 5.06977 44.848 4.97933 45.1798 4.90698C45.4563 4.83463 45.5945 4.61757 45.5945 4.25581C45.5945 3.85788 45.5116 3.56848 45.3457 3.3876C45.1798 3.17054 44.7927 2.98967 44.1844 2.84496C43.6314 2.73644 43.2443 2.75452 43.0231 2.89923C42.7466 3.04393 42.4148 3.26098 42.0277 3.55039ZM42.3032 10.7646C42.2194 10.942 42.1298 11.1192 42.0744 11.308C42.0571 11.3667 42.0473 11.4224 42.0449 11.4752C42.0362 11.6625 42.1444 11.8398 42.2892 11.9529C42.4016 12.0408 42.5633 12.134 42.7742 12.2326C43.1613 12.3773 43.4655 12.4134 43.6867 12.3411C43.8526 12.2687 44.1014 12.1421 44.4332 11.9612C44.8203 11.7442 45.1521 11.5814 45.4286 11.4729C45.5639 11.4065 45.6165 11.3062 45.5862 11.1721C45.5365 10.9518 45.3909 10.7661 45.2658 10.5805C45.1397 10.3932 45.0004 10.2747 44.848 10.2248C44.5715 10.1163 44.1567 10.062 43.6037 10.062C43.2786 10.0833 43.03 10.1233 42.8578 10.1821C42.6727 10.2452 42.5246 10.3933 42.4159 10.5605C42.3762 10.6216 42.3386 10.6896 42.3032 10.7646ZM46.5163 7.31864C46.4565 7.3382 46.4049 7.37803 46.3697 7.43169V7.43169C46.2699 7.58412 46.3322 7.79291 46.4979 7.86064L46.6671 7.92984C46.7766 7.97459 46.8991 7.97038 47.0055 7.91821L47.1124 7.86572C47.312 7.76779 47.3718 7.50358 47.2348 7.32441V7.32441C47.1462 7.20847 46.9974 7.16127 46.8611 7.20586L46.5163 7.31864ZM48.2019 9.2525C48.0757 9.21579 47.94 9.24616 47.8398 9.33359V9.33359C47.6597 9.49062 47.6517 9.77447 47.8225 9.94211L47.8475 9.96665C47.9437 10.061 48.0768 10.1037 48.2077 10.0823L48.5673 10.0235C48.7812 9.98852 48.9025 9.75096 48.8098 9.54872V9.54872C48.7696 9.46113 48.6947 9.39578 48.6045 9.36953L48.2019 9.2525ZM49.742 11.4729C49.2443 11.4729 48.8848 11.509 48.6636 11.5814C48.3871 11.6537 48.1659 11.8527 48 12.1783C47.8894 12.4315 47.9724 12.5943 48.2489 12.6667C48.4701 12.739 48.7742 12.8656 49.1613 13.0465C49.5484 13.2274 49.9355 13.2274 50.3226 13.0465C50.6544 12.8656 50.9033 12.739 51.0692 12.6667C51.2351 12.5943 51.2627 12.4315 51.1521 12.1783C51.0522 12.0041 50.9524 11.8692 50.8525 11.7736C50.7352 11.6614 50.5874 11.5846 50.4329 11.5426C50.2618 11.4961 50.0315 11.4729 49.742 11.4729ZM48.2489 4.09302C48.1936 4.31008 48.3871 4.47287 48.8295 4.5814C49.2166 4.68992 49.5208 4.67183 49.742 4.52713C49.9632 4.38243 49.9632 4.18346 49.742 3.93023C49.6974 3.87194 49.6573 3.81952 49.6218 3.77297C49.5361 3.66089 49.4464 3.53979 49.3129 3.50283C49.2242 3.47826 49.1183 3.47602 48.9954 3.49612C48.553 3.56848 48.3042 3.76744 48.2489 4.09302ZM51.1315 7.76433C51.0375 7.74126 50.9386 7.75204 50.8513 7.79488L50.7933 7.82333C50.5611 7.93726 50.5042 8.25226 50.681 8.44506V8.44506C50.768 8.53991 50.8952 8.58354 51.0198 8.56131L51.4209 8.48975C51.5939 8.45889 51.7108 8.29024 51.6834 8.11111V8.11111C51.6631 7.97823 51.5671 7.87119 51.4404 7.84011L51.1315 7.76433ZM54.9678 7.29457C54.7767 7.31243 54.6126 7.33469 54.4754 7.36136C54.2467 7.40582 54.0164 7.44141 53.8409 7.59932V7.59932C53.6751 7.74848 53.6066 8.0033 53.5997 8.23035C53.5959 8.35727 53.6095 8.46136 53.6406 8.54264C53.6959 8.68734 53.9171 8.83204 54.3042 8.97674C54.5277 9.06031 54.7144 9.09562 54.8642 9.08266C55.0584 9.06586 55.1915 8.89256 55.3412 8.76363C55.4417 8.67707 55.5661 8.58532 55.7143 8.48837C55.8075 8.44267 55.8908 8.40017 55.9644 8.36088C56.1323 8.27118 56.3311 8.13835 56.2851 7.94891C56.2726 7.89746 56.2482 7.84214 56.212 7.78295C55.9355 7.42119 55.5208 7.2584 54.9678 7.29457ZM54.4701 2.68217C54.083 2.7907 53.9171 2.9354 53.9724 3.11628C54.0277 3.29716 54.083 3.5323 54.1383 3.82171C54.1936 4.07494 54.2489 4.2739 54.3042 4.41861C54.3595 4.52713 54.5807 4.61757 54.9678 4.68992C55.4655 4.7261 55.8526 4.74419 56.1291 4.74419C56.4056 4.74419 56.6544 4.59948 56.8756 4.31008C57.0968 4.05685 57.0968 3.87597 56.8756 3.76744C56.5991 3.65891 56.295 3.49612 55.9632 3.27907C55.7769 3.1572 55.6255 3.04674 55.5089 2.94768C55.3583 2.81974 55.2256 2.64999 55.0327 2.62122C54.8825 2.59881 54.6949 2.61913 54.4701 2.68217Z" fill="url(#paint0_linear_30_768)"/>
<path d="M54.9581 22.6599C56.5615 22.6599 57.8613 24.0031 57.8613 25.6599V32.3779C57.8613 34.0348 56.5615 35.3779 54.9581 35.3779H5.033C3.42959 35.3779 2.12977 34.0348 2.12977 32.3779V25.6599C2.12977 24.0031 3.42959 22.6599 5.03299 22.6599H54.9581Z" fill="#FEFEFE"/>
<path fill-rule="evenodd" clip-rule="evenodd" d="M56.3779 29.7054C56.5991 29.5969 56.7373 29.3798 56.7926 29.0543C56.8479 28.6925 56.7926 28.4212 56.6267 28.2403C56.4608 28.0956 56.129 27.9509 55.6313 27.8062C55.1336 27.6615 54.7742 27.6253 54.553 27.6977C54.3318 27.8062 54.0553 28.0052 53.7235 28.2946C53.4493 28.4995 53.2029 28.6682 52.9843 28.8006C52.9624 28.8138 52.9396 28.827 52.9165 28.8404C52.762 28.9297 52.5928 29.0276 52.5954 29.2022C52.5976 29.3444 52.6971 29.5122 52.894 29.7054C53.2258 30.0672 53.5576 30.23 53.8894 30.1938C54.2212 30.1576 54.6636 30.0853 55.2166 29.9767C55.7696 29.9044 56.1567 29.814 56.3779 29.7054ZM49.659 30.5736C49.5484 30.6098 49.4101 30.5556 49.2442 30.4109L49.8658 29.6499L49.8621 29.6464C49.8508 29.6403 49.8354 29.6329 49.816 29.6252C49.7961 29.6175 49.7705 29.609 49.7399 29.6018L49.2442 30.4109C49.0252 30.2675 49.2029 30.016 49.3697 29.8109C49.3831 29.7945 49.3964 29.7776 49.4098 29.7602V29.7602C49.4312 29.7322 49.4533 29.7036 49.4757 29.676C49.5006 29.6451 49.5262 29.6146 49.5525 29.5853C49.5567 29.5806 49.561 29.5759 49.5653 29.5713C49.7113 29.4123 49.8804 29.291 50.0909 29.3162C50.1123 29.3188 50.1342 29.3219 50.1567 29.3256C50.2213 29.334 50.2825 29.3442 50.3404 29.3561C50.3613 29.3605 50.3818 29.365 50.4019 29.3698C50.4603 29.3837 50.5149 29.3995 50.5658 29.4172C50.598 29.4285 50.6288 29.4405 50.658 29.4533C50.7953 29.5135 50.899 29.5909 50.9691 29.6853C51.0714 29.8233 51.1065 30.0397 50.9872 30.1623C50.9467 30.2041 50.891 30.2326 50.8203 30.2481L50.3226 30.4109C50.2436 30.4315 50.1691 30.4507 50.0992 30.4684C50.09 30.4707 50.0809 30.473 50.0719 30.4753C49.9089 30.5164 49.7713 30.5492 49.659 30.5736ZM50.0849 30.3104V30.3104ZM54.8595 28.6629C54.7423 28.7368 54.5737 28.8616 54.3477 29.0587L54.3201 29.0828L54.2908 29.1048C54.2768 29.1152 54.2628 29.1256 54.2489 29.136C54.4723 29.1005 54.7341 29.0536 55.036 28.9943L55.0654 28.9885L55.095 28.9847C55.3703 28.9486 55.5706 28.9113 55.7105 28.8787C55.6163 28.8446 55.5032 28.8078 55.3692 28.7688C55.154 28.7063 54.9989 28.6763 54.8947 28.6658C54.8814 28.6645 54.8697 28.6636 54.8595 28.6629ZM58.8863 21.5892C59.497 21.9887 60 22.6069 60 23.4651V34.5349C60 35.3931 59.497 36.0113 58.8863 36.4108C58.2654 36.817 57.554 37 56.7926 37H3.20737C2.44603 37 1.73465 36.817 1.11369 36.4108C0.503027 36.0113 0 35.3931 0 34.5349V23.4651C0 22.6069 0.503027 21.9887 1.1137 21.5892C1.73465 21.183 2.44603 21 3.20737 21H56.7926C57.554 21 58.2654 21.183 58.8863 21.5892ZM35.9724 31.6047C35.8402 31.4534 35.7673 31.3215 35.7535 31.209C35.7362 31.0673 35.856 30.9572 35.9664 30.8714C36.0884 30.7766 36.2562 30.6592 36.47 30.5194C36.6361 30.4325 36.7823 30.3716 36.9085 30.3369C37.0553 30.2965 37.2094 30.3129 37.3578 30.347C37.5335 30.3874 37.7353 30.4448 37.9631 30.5194C38.1695 30.5869 38.3437 30.6474 38.4859 30.7009C38.6361 30.7574 38.8031 30.8228 38.8642 30.9753C38.9028 31.0719 38.9066 31.1912 38.8756 31.3333C38.765 31.6589 38.6544 31.8941 38.5438 32.0388C38.4332 32.2196 38.129 32.3282 37.6313 32.3643C37.1336 32.4005 36.7742 32.3463 36.553 32.2015C36.3871 32.093 36.1935 31.8941 35.9724 31.6047ZM37.0564 31.3462C37.0681 31.3497 37.0911 31.3556 37.1284 31.3613C37.1833 31.3696 37.2566 31.3753 37.351 31.3752C37.2768 31.3545 37.209 31.3372 37.1476 31.3231C37.1349 31.3202 37.1246 31.3181 37.1161 31.3166C37.0982 31.323 37.0766 31.3314 37.0514 31.3422C37.0532 31.3436 37.0564 31.3462 37.0564 31.3462ZM31.576 29.4884C31.2995 29.199 30.9677 28.7649 30.5806 28.186C30.3041 27.7519 30.2765 27.4264 30.4977 27.2093C30.7189 26.9922 31.1336 26.7209 31.7419 26.3953C32.2949 26.0698 32.765 25.8346 33.1521 25.6899C33.5392 25.5814 34.0645 25.6537 34.7281 25.907C35.447 26.2326 35.917 26.522 36.1382 26.7752C36.3594 27.0646 36.3594 27.4806 36.1382 28.0233C35.9531 28.5381 35.7291 28.9388 35.4665 29.2255C35.367 29.3341 35.2648 29.4426 35.1455 29.5271C34.8161 29.7604 34.2346 29.8922 33.4009 29.9225C32.4608 29.9587 31.8525 29.814 31.576 29.4884ZM35.3299 27.3658C35.1902 27.2587 34.8975 27.0772 34.3665 26.8351C33.8302 26.6337 33.5466 26.6285 33.4322 26.649C33.1231 26.7694 32.722 26.9692 32.221 27.2642L32.2042 27.2741L32.187 27.2833C31.8563 27.4603 31.6147 27.6056 31.4452 27.7191C31.7874 28.2239 32.0596 28.5712 32.2647 28.7858L32.2847 28.8067L32.2858 28.808C32.3032 28.8177 32.3531 28.8419 32.4567 28.8666C32.6474 28.9119 32.9415 28.9395 33.3649 28.9232L33.3669 28.9231C34.1779 28.8936 34.5136 28.7623 34.5984 28.7022C34.6224 28.6853 34.6605 28.6506 34.7638 28.5379C34.9092 28.3792 35.0748 28.1096 35.2311 27.6749L35.2384 27.6548L35.2464 27.6351C35.2979 27.5087 35.3204 27.4207 35.3299 27.3658ZM16.1475 31.8217C16.5899 31.7132 16.9217 31.6589 17.1429 31.6589C17.4194 31.6951 17.6959 31.8398 17.9724 32.093C18.47 32.5271 18.47 32.9793 17.9724 33.4496C17.5853 33.739 17.2535 33.9561 16.977 34.1008C16.7558 34.2455 16.3687 34.2636 15.8157 34.155C15.2074 34.0103 14.8203 33.8295 14.6544 33.6124C14.4885 33.4315 14.4055 33.1421 14.4055 32.7442C14.4055 32.3824 14.5438 32.1654 14.8203 32.093C15.1521 32.0207 15.5945 31.9302 16.1475 31.8217ZM17.2372 32.7627C17.1607 32.7041 17.1039 32.6762 17.0665 32.6627C16.9392 32.6737 16.7161 32.71 16.371 32.7947L16.3496 32.7999L16.328 32.8041C15.9861 32.8713 15.6885 32.931 15.4348 32.9836C15.4445 32.9885 15.4555 32.9939 15.4679 32.9997C15.5802 33.0522 15.7565 33.1139 16.0143 33.1761C16.237 33.2188 16.3865 33.2281 16.477 33.2239C16.4938 33.2231 16.5069 33.2219 16.5165 33.2208L16.5397 33.2087C16.7196 33.1145 16.9507 32.9692 17.2372 32.7627ZM16.5387 33.2172L16.5367 33.2177ZM3.12443 32.6899C3.22213 32.5621 3.32524 32.4625 3.43373 32.3911C3.46804 32.3685 3.50289 32.3488 3.53828 32.3319L3.54165 32.3303L3.54491 32.3288C3.64896 32.2801 3.75764 32.2558 3.87097 32.2558C4.14747 32.2558 4.53457 32.2739 5.03226 32.3101C5.41936 32.3824 5.64055 32.4729 5.69585 32.5814C5.75115 32.7261 5.80645 32.9251 5.86175 33.1783C5.91705 33.4677 5.97235 33.7028 6.02765 33.8837C6.08295 34.0646 5.91705 34.2093 5.52995 34.3178C5.30509 34.3809 5.11755 34.4012 4.96733 34.3788C4.81852 34.3566 4.70553 34.2505 4.59255 34.1445C4.55906 34.113 4.52557 34.0816 4.49114 34.0523C4.37458 33.9533 4.22315 33.8428 4.03687 33.7209C3.70507 33.5039 3.40093 33.3411 3.12443 33.2326C2.90323 33.124 2.90323 32.9432 3.12443 32.6899ZM11.3364 25.4186C11.6129 25.3463 11.8341 25.1473 12 24.8217C12.1106 24.5685 12.0276 24.4057 11.7512 24.3333C11.53 24.261 11.2258 24.1344 10.8387 23.9535C10.4516 23.7726 10.0645 23.7726 9.67742 23.9535C9.34562 24.1344 9.09678 24.261 8.93088 24.3333C8.76498 24.4057 8.73733 24.5685 8.84793 24.8217C8.94781 24.9959 9.04768 25.1308 9.14756 25.2264C9.2648 25.3386 9.41263 25.4154 9.56716 25.4574C9.73826 25.5039 9.96856 25.5271 10.2581 25.5271C10.7558 25.5271 11.1152 25.491 11.3364 25.4186ZM43.2992 29.8667C43.2992 29.8667 43.2963 29.8636 43.2921 29.8577C43.2974 29.8637 43.2992 29.8667 43.2992 29.8667ZM43.9355 29.9767C43.5484 30.2661 43.106 30.3385 42.6083 30.1938C42.362 30.1248 42.1605 30.063 42.0038 30.0086C41.8523 29.9561 41.6927 29.8799 41.6467 29.7218C41.64 29.6987 41.6343 29.6739 41.6295 29.6475C41.6045 29.5071 41.6127 29.3582 41.6731 29.2299C41.8087 28.9418 42.1481 28.7386 42.6912 28.6202C42.8935 28.5981 43.065 28.5962 43.2056 28.6145C43.3642 28.6351 43.508 28.7157 43.6329 28.8187C43.7338 28.902 43.8346 28.9986 43.9355 29.1085C44.2673 29.4341 44.2673 29.7235 43.9355 29.9767ZM24.1106 24.4961C24.3871 24.6047 24.7465 24.7132 25.1889 24.8217C25.6313 24.9302 25.9908 25.0026 26.2673 25.0388C26.5991 25.0749 26.7373 25.2558 26.682 25.5814C26.6267 25.9432 26.4885 26.1964 26.2673 26.3411C26.1014 26.4858 25.7696 26.5943 25.2719 26.6667C24.7742 26.739 24.47 26.6848 24.3594 26.5039C24.2488 26.323 24.0829 26.1059 23.8617 25.8527C23.6406 25.5995 23.4194 25.4005 23.1982 25.2558C23.0323 25.1111 23.0876 24.9302 23.3641 24.7132C23.4576 24.6398 23.5479 24.5829 23.6351 24.5426C23.698 24.5135 23.7593 24.493 23.819 24.4812C23.921 24.4609 24.0182 24.4659 24.1106 24.4961ZM26.1699 26.0338L26.1677 26.0335ZM14.5714 25.5271C14.8479 25.4186 15.1797 25.2558 15.5668 25.0388C15.8986 24.8579 16.1475 24.7313 16.3134 24.6589C16.5346 24.5866 16.8387 24.6227 17.2258 24.7674C17.4368 24.866 17.5985 24.9592 17.7109 25.0471C17.8556 25.1602 17.9638 25.3375 17.9552 25.5248C17.9527 25.5776 17.9429 25.6333 17.9257 25.692C17.8774 25.8564 17.8032 26.012 17.7295 26.1666C17.7186 26.1895 17.7077 26.2125 17.6968 26.2354C17.6614 26.3104 17.6238 26.3784 17.5841 26.4395C17.4754 26.6067 17.3273 26.7548 17.1423 26.8179C16.9701 26.8767 16.7214 26.9167 16.3963 26.938C15.8433 26.938 15.4286 26.8837 15.1521 26.7752C14.9997 26.7253 14.8604 26.6068 14.7342 26.4195C14.7159 26.3924 14.6972 26.3653 14.6785 26.3381C14.5687 26.1789 14.4563 26.016 14.4138 25.8279C14.3836 25.6938 14.4361 25.5935 14.5714 25.5271ZM16.013 25.9263C16.1145 25.9331 16.2315 25.9373 16.3654 25.9379C16.571 25.9233 16.703 25.9021 16.779 25.8847L16.7808 25.8819C16.7928 25.8635 16.8086 25.836 16.8272 25.7968C16.839 25.7717 16.85 25.7484 16.8604 25.7266C16.8646 25.7176 16.8688 25.7088 16.8728 25.7003C16.8693 25.6986 16.8657 25.6969 16.8621 25.6952C16.7356 25.65 16.649 25.6314 16.5967 25.6252L16.5926 25.6248C16.4631 25.6864 16.2759 25.7829 16.0233 25.9205C16.0199 25.9225 16.0164 25.9244 16.013 25.9263ZM10.8032 32.71C10.8074 32.6936 10.8136 32.6747 10.8225 32.6543C10.8282 32.6412 10.8351 32.6275 10.8432 32.6135C10.8497 32.6023 10.8565 32.5918 10.8634 32.582C10.8674 32.5764 10.8715 32.571 10.8756 32.5658C10.8881 32.55 10.9007 32.5364 10.9128 32.5251C10.916 32.5258 10.9193 32.5266 10.9227 32.5274C10.9274 32.5285 10.9324 32.5298 10.9376 32.5312C10.9774 32.5423 11.0125 32.5561 11.0428 32.5708C11.0496 32.6012 11.055 32.6351 11.0578 32.6725C11.0589 32.6874 11.0596 32.7029 11.0598 32.7189C11.0599 32.7228 11.0599 32.7267 11.0599 32.7306C11.0599 32.7476 11.0593 32.7645 11.0582 32.7813C11.0497 32.9113 11.0088 33.0326 10.9477 33.1322C10.945 33.1366 10.9422 33.141 10.9394 33.1454C10.9226 33.1715 10.9055 33.1943 10.889 33.2141C10.8714 33.1822 10.8547 33.1464 10.8402 33.1064C10.8288 33.0751 10.8197 33.0439 10.8126 33.0132C10.8028 32.9703 10.7969 32.9283 10.7943 32.8875C10.7908 32.8337 10.7931 32.7821 10.7995 32.7344C10.8006 32.7261 10.8018 32.718 10.8032 32.71ZM10.9633 32.3831C10.9633 32.3831 10.967 32.3871 10.9722 32.3947C10.9656 32.3869 10.9633 32.3831 10.9633 32.3831ZM5.03226 29.7054C5.22332 29.6876 5.38744 29.6653 5.52461 29.6386C5.53941 29.6358 5.55421 29.6329 5.569 29.6301C5.78289 29.5891 5.99501 29.5484 6.15918 29.4007C6.32498 29.2515 6.39344 28.9967 6.40029 28.7696C6.40412 28.6427 6.39051 28.5386 6.35945 28.4574C6.30415 28.3127 6.08295 28.168 5.69585 28.0233C5.47229 27.9397 5.28562 27.9044 5.13584 27.9173C4.98419 27.9305 4.86985 28.039 4.75572 28.1473C4.72368 28.1777 4.69165 28.2081 4.65882 28.2364C4.55828 28.3229 4.43391 28.4147 4.28572 28.5116C4.19256 28.5573 4.10921 28.5998 4.03568 28.6391C3.86776 28.7288 3.66892 28.8616 3.71497 29.0511C3.72747 29.1025 3.75182 29.1579 3.78802 29.2171C4.06451 29.5788 4.47927 29.7416 5.03226 29.7054ZM50.9207 27.2813C50.8507 27.2452 50.7896 27.1955 50.7396 27.1363C50.7155 27.1078 50.694 27.0771 50.6753 27.0446C50.6693 27.034 50.6635 27.0232 50.6581 27.0123C50.6037 26.9034 50.5803 26.7775 50.5968 26.6503C50.6025 26.606 50.6131 26.5615 50.629 26.5175C50.6326 26.5074 50.6365 26.4974 50.6406 26.4873C50.6619 26.4363 50.6896 26.3889 50.7229 26.346C50.7514 26.3405 50.7804 26.3378 50.8094 26.338C50.8621 26.3384 50.9147 26.3482 50.9649 26.3675C50.9781 26.3726 50.9912 26.3784 51.004 26.3848C51.0087 26.3872 51.0133 26.3896 51.0179 26.3921C51.0222 26.3948 51.0264 26.3975 51.0306 26.4004C51.1062 26.4515 51.1628 26.5209 51.1989 26.5991C51.2218 26.6485 51.2365 26.7014 51.2427 26.7554C51.2454 26.7788 51.2464 26.8025 51.2459 26.8262C51.2436 26.9229 51.2139 27.0199 51.1548 27.1035C51.144 27.1188 51.1322 27.1337 51.1195 27.148C51.0991 27.1709 51.0768 27.1915 51.0531 27.2097C51.0127 27.2407 50.968 27.2648 50.9207 27.2813ZM50.9786 27.3073C51.0141 27.2942 51.0486 27.277 51.0812 27.2557L51.3866 27.0559C51.45 27.0144 51.4997 26.9542 51.5294 26.883C51.6297 26.6426 51.4733 26.3711 51.221 26.3475L50.812 26.3093C50.7931 26.3075 50.7742 26.3069 50.7554 26.3074C50.7428 26.3077 50.7302 26.3086 50.7177 26.3099C50.6 26.3224 50.4894 26.3788 50.4078 26.4703C50.1944 26.7096 50.2519 27.0917 50.5255 27.2528L50.5519 27.2684C50.6666 27.3359 50.7997 27.3541 50.9242 27.3239C50.9425 27.3194 50.9607 27.3139 50.9786 27.3073ZM46.619 33.8746C46.5344 33.9126 46.4656 33.9828 46.4283 34.0723C46.339 34.2865 46.4563 34.5325 46.6751 34.5898L46.771 34.6148C46.7417 34.5884 46.7147 34.559 46.6905 34.5268C46.6472 34.4693 46.613 34.403 46.5907 34.3299C46.5707 34.2648 46.5615 34.198 46.5623 34.132C46.5635 34.0428 46.5829 33.9551 46.619 33.8746ZM47.2936 34.5179C47.3021 34.5017 47.3099 34.4851 47.3171 34.468C47.332 34.4321 47.3434 34.3958 47.3515 34.3592C47.3721 34.2656 47.3708 34.171 47.3506 34.0818C47.3239 33.9634 47.2638 33.8546 47.1777 33.7705C47.3292 33.7727 47.4663 33.8746 47.5134 34.0287C47.5569 34.1709 47.5134 34.3262 47.4031 34.4224L47.2936 34.5179ZM44.7574 24.6041C44.6613 24.6674 44.5991 24.7784 44.5991 24.9023C44.5991 25.0587 44.6974 25.1914 44.8336 25.238C44.8126 25.2097 44.7936 25.1794 44.7771 25.147C44.7375 25.0693 44.715 24.986 44.7089 24.9023C44.7014 24.8004 44.718 24.6979 44.7574 24.6041ZM45.5094 25.1729C45.5211 25.1638 45.5324 25.1539 45.5431 25.1434L45.5628 25.1241C45.6797 25.0094 45.7085 24.8285 45.6334 24.6811C45.5899 24.5957 45.5175 24.5334 45.4333 24.5031C45.4838 24.5694 45.5219 24.6461 45.5442 24.7296C45.559 24.7846 45.5668 24.8425 45.5668 24.9023C45.5668 24.9699 45.5567 25.0353 45.5379 25.097C45.5348 25.1071 45.5315 25.117 45.528 25.1269C45.5223 25.1425 45.5162 25.1579 45.5094 25.1729ZM42.6402 26.17C42.6217 26.0926 42.6161 26.0121 42.624 25.9325C42.6335 25.8358 42.6628 25.7405 42.713 25.654C42.6035 25.6958 42.5253 25.8047 42.5253 25.9325C42.5253 26.0285 42.5698 26.1153 42.6402 26.17ZM43.393 26.2998C43.4172 26.2901 43.4403 26.2772 43.4617 26.2612C43.6336 26.1327 43.6247 25.8783 43.4712 25.7554C43.4855 25.8122 43.4931 25.8716 43.4931 25.9325C43.4931 26.0352 43.4718 26.1328 43.4335 26.2208C43.4216 26.2481 43.408 26.2745 43.393 26.2998ZM40.4376 34.1933L40.4497 34.1863C40.6355 34.0783 40.7043 33.837 40.605 33.6421C40.5437 33.5219 40.4311 33.4448 40.3074 33.4281L40.3018 33.4274L40.3056 33.4311C40.3868 33.5086 40.4451 33.6059 40.477 33.7117C40.518 33.8477 40.5153 33.9977 40.4617 34.1382C40.4565 34.1516 40.451 34.1648 40.445 34.1778C40.4426 34.183 40.4402 34.1882 40.4376 34.1933ZM39.7379 33.5776C39.7032 33.6533 39.6843 33.7361 39.6826 33.8203C39.6807 33.9174 39.7019 34.0162 39.7487 34.108C39.7501 34.1108 39.7515 34.1135 39.753 34.1162C39.7728 34.1538 39.7962 34.1884 39.8224 34.2198C39.8598 34.2644 39.903 34.3025 39.9503 34.3333C39.8955 34.3212 39.8423 34.2991 39.7934 34.2671L39.6985 34.205C39.5579 34.1131 39.5004 33.9308 39.5616 33.7709C39.5944 33.685 39.6578 33.6161 39.7379 33.5776ZM38.1093 23.8149C38.1069 23.8173 38.1046 23.8197 38.1023 23.8222C38.0931 23.832 38.0844 23.8421 38.0762 23.8525C38.0119 23.9341 37.9779 24.0322 37.9737 24.1312C37.9733 24.1406 37.9732 24.1499 37.9734 24.1592C37.9735 24.1678 37.9738 24.1764 37.9744 24.185C37.98 24.2691 38.007 24.3517 38.0551 24.4232C38.0802 24.4607 38.1112 24.4952 38.1479 24.5251C38.1856 24.556 38.2271 24.5801 38.271 24.5972C38.2967 24.6072 38.3232 24.6148 38.3502 24.6199C38.4161 24.5635 38.4693 24.4924 38.5056 24.4117C38.5213 24.3766 38.5339 24.3398 38.5429 24.3016C38.5448 24.2935 38.5465 24.2854 38.5481 24.2772C38.5501 24.2666 38.5519 24.256 38.5534 24.2453C38.5645 24.1653 38.5596 24.0861 38.5411 24.0117C38.5295 23.9654 38.5126 23.9209 38.491 23.8791C38.4556 23.8108 38.4075 23.7498 38.3491 23.7C38.3358 23.7019 38.3225 23.7043 38.3095 23.7073C38.2392 23.7237 38.1729 23.7578 38.1169 23.8079C38.1143 23.8102 38.1118 23.8126 38.1093 23.8149ZM37.8739 23.7728C37.7263 23.8167 37.6173 23.946 37.5955 24.1032C37.5683 24.2986 37.682 24.4856 37.8641 24.5451L38.2484 24.6708C38.2556 24.6732 38.2629 24.6754 38.2702 24.6774C38.2813 24.6805 38.2926 24.6833 38.3038 24.6856C38.4701 24.72 38.6438 24.6693 38.7684 24.547L38.783 24.5327C39.007 24.3129 38.9907 23.9391 38.7484 23.741C38.6252 23.6403 38.4642 23.6044 38.3124 23.6429C38.3059 23.6445 38.2995 23.6463 38.293 23.6482L37.8739 23.7728ZM25.222 29.6224C25.1399 29.5498 25.0758 29.4533 25.0408 29.3389C25.0198 29.2702 25.0108 29.1991 25.0134 29.1289C25.0152 29.0804 25.0224 29.0323 25.0351 28.9856C25.0024 29.0191 24.9758 29.0591 24.9571 29.1038C24.8649 29.325 24.9946 29.5767 25.222 29.6224ZM25.6842 28.7789C25.771 28.8558 25.8347 28.9569 25.8683 29.0687C25.8954 29.1585 25.903 29.2553 25.8877 29.3521C25.8832 29.3811 25.8765 29.4101 25.8677 29.4389L25.9138 29.3711C25.9797 29.274 25.9982 29.1507 25.9636 29.0376C25.9217 28.9005 25.8117 28.8052 25.6842 28.7789ZM18.6359 28.7829C18.7465 28.385 19.106 28.1499 19.7143 28.0775C20.3226 28.0052 20.765 28.1499 21.0415 28.5116C21.318 28.8734 21.2627 29.1809 20.8756 29.4341C20.6992 29.5495 20.5384 29.6445 20.3932 29.719L20.3879 29.7217C20.1657 29.8358 19.9313 29.9561 19.6835 29.9492C19.5516 29.9455 19.396 29.9185 19.2166 29.8682C19.131 29.8362 19.0534 29.8042 18.9841 29.7722C18.6507 29.6184 18.553 29.239 18.6201 28.8682C18.6251 28.8405 18.6304 28.8121 18.6359 28.7829ZM12.7571 29.6645C12.7172 29.558 12.7019 29.4419 12.7145 29.3267C12.674 29.4349 12.6848 29.5623 12.7571 29.6645ZM13.6204 29.2313C13.6542 29.3251 13.6654 29.424 13.6558 29.5203C13.6965 29.4227 13.6804 29.3119 13.6204 29.2313ZM11.9556 27.7594C12.0068 27.7021 12.0478 27.6359 12.0769 27.5643C12.1303 27.4327 12.1435 27.2829 12.1053 27.1365C12.1018 27.1234 12.098 27.1103 12.0938 27.0973C12.0856 27.0723 12.076 27.0476 12.0647 27.023C12.0525 26.9964 12.0387 26.9708 12.0234 26.9464C12.0706 26.9668 12.1144 26.996 12.1525 27.0334L12.1775 27.0579C12.3483 27.2255 12.3403 27.5094 12.1603 27.6664C12.1013 27.7179 12.03 27.7495 11.9556 27.7594ZM11.4695 26.9705L11.4327 26.9765C11.2188 27.0115 11.0975 27.249 11.1902 27.4513C11.2304 27.5389 11.3053 27.6042 11.3956 27.6305L11.3995 27.6316C11.3986 27.6298 11.3977 27.628 11.3967 27.6262C11.3582 27.5493 11.3371 27.4655 11.3335 27.3811C11.3278 27.2519 11.363 27.1213 11.4382 27.012C11.448 26.9978 11.4584 26.9839 11.4695 26.9705ZM11.7512 32.907C11.6959 33.2326 11.447 33.4315 11.0046 33.5039C10.8817 33.524 10.7759 33.5217 10.6871 33.4972C10.5571 33.4612 10.4686 33.3453 10.3849 33.2357L10.2581 33.0698C10.0369 32.8165 10.0369 32.6176 10.2581 32.4729C10.4793 32.3282 10.7834 32.3101 11.1705 32.4186C11.6129 32.5271 11.8065 32.6899 11.7512 32.907ZM8.53158 28.5226C8.38533 28.5731 8.29186 28.7267 8.31665 28.8889C8.33651 29.0188 8.42865 29.124 8.55111 29.1577C8.49378 29.0678 8.46274 28.9673 8.45614 28.8661C8.44837 28.747 8.47451 28.627 8.53158 28.5226ZM9.18439 29.1876C9.18962 29.1789 9.19466 29.17 9.1995 29.1609C9.26707 29.0351 9.29594 28.8859 9.27255 28.7329C9.2669 28.6959 9.25836 28.66 9.24714 28.6253C9.22707 28.5632 9.19845 28.5051 9.16266 28.4526C9.22131 28.4725 9.27522 28.5072 9.31899 28.5549C9.49582 28.7477 9.43894 29.0627 9.20673 29.1767L9.18439 29.1876ZM1.63134 22.4341C1.18894 22.7235 0.967742 23.0672 0.967742 23.4651V34.5349C0.967742 34.9328 1.18894 35.2765 1.63134 35.5659C2.07374 35.8553 2.59908 36 3.20737 36H56.7926C57.4009 36 57.9263 35.8553 58.3687 35.5659C58.8111 35.2765 59.0323 34.9328 59.0323 34.5349V23.4651C59.0323 23.0672 58.8111 22.7235 58.3687 22.4341C57.9263 22.1447 57.4009 22 56.7926 22H3.20737C2.59908 22 2.07374 22.1447 1.63134 22.4341Z" fill="#FEFEFE"/>
<path d="M0.967709 23.4651C0.967709 23.0672 1.18891 22.7235 1.6313 22.4341C2.0737 22.1447 2.59904 22 3.20734 22L56.7926 22C57.4009 22 57.9262 22.1447 58.3686 22.4341C58.811 22.7235 59.0322 23.0672 59.0322 23.4651V34.5349C59.0322 34.9328 58.811 35.2765 58.3686 35.5659C57.9262 35.8553 57.4009 36 56.7926 36L3.20734 36C2.59904 36 2.0737 35.8553 1.6313 35.5659C1.18891 35.2765 0.967709 34.9328 0.967709 34.5349V23.4651ZM56.7926 29.0543C56.8479 28.6925 56.7926 28.4212 56.6267 28.2403C56.4608 28.0956 56.129 27.9509 55.6313 27.8062C55.1336 27.6615 54.7742 27.6253 54.553 27.6977C54.3318 27.8062 54.0553 28.0052 53.7235 28.2946C53.4493 28.4995 53.2029 28.6682 52.9842 28.8006C52.8166 28.9021 52.5924 29.0014 52.5954 29.2022C52.5975 29.3444 52.6971 29.5122 52.894 29.7054C53.2258 30.0672 53.5576 30.23 53.8894 30.1938C54.2212 30.1576 54.6636 30.0853 55.2166 29.9767C55.7696 29.9044 56.1566 29.814 56.3778 29.7054C56.599 29.5969 56.7373 29.3798 56.7926 29.0543ZM55.2973 25.2857C55.4335 25.2695 55.5284 25.1381 55.5047 24.9986V24.9986C55.4827 24.8692 55.3662 24.7804 55.2401 24.7969L54.8422 24.849C54.7243 24.8644 54.6359 24.968 54.6359 25.0909V25.0909C54.6359 25.2366 54.7588 25.3497 54.8988 25.3331L55.2973 25.2857ZM51.3866 27.0559C51.4499 27.0144 51.4997 26.9542 51.5294 26.883V26.883C51.6296 26.6426 51.4733 26.3711 51.2209 26.3475L50.8119 26.3093C50.6603 26.2951 50.5109 26.3547 50.4077 26.4703V26.4703C50.1944 26.7096 50.2519 27.0917 50.5254 27.2528L50.5519 27.2684C50.717 27.3656 50.9206 27.3607 51.0812 27.2557L51.3866 27.0559ZM50.3225 30.4109C50.5437 30.3385 50.7096 30.2842 50.8202 30.2481C50.891 30.2326 50.9466 30.2041 50.9872 30.1623C51.1065 30.0397 51.0714 29.8233 50.969 29.6853C50.8303 29.4982 50.5595 29.3783 50.1567 29.3256C50.1342 29.3219 50.1122 29.3188 50.0909 29.3162C49.8016 29.2816 49.5906 29.5235 49.4101 29.7597V29.7597C49.3966 29.7773 49.3832 29.7944 49.3697 29.8109C49.2028 30.016 49.0251 30.2675 49.2442 30.4109V30.4109C49.4101 30.5556 49.5484 30.6098 49.659 30.5736C49.8249 30.5375 50.0461 30.4832 50.3225 30.4109ZM49.1433 25.1341C49.209 25.1427 49.2756 25.1302 49.3342 25.0982L49.5288 24.9921C49.6522 24.9249 49.7113 24.776 49.6693 24.6386V24.6386C49.6189 24.4736 49.4436 24.3875 49.288 24.4511L48.953 24.5881C48.9261 24.5991 48.9012 24.6145 48.8791 24.6337V24.6337C48.7016 24.7885 48.7872 25.0875 49.0176 25.1176L49.1433 25.1341ZM47.4031 34.4224C47.5134 34.3262 47.5569 34.1709 47.5134 34.0287V34.0287C47.4595 33.8524 47.2878 33.7444 47.1115 33.7758L46.7027 33.8488C46.5806 33.8706 46.4773 33.9547 46.4282 34.0723V34.0723C46.3389 34.2865 46.4563 34.5325 46.6751 34.5898L46.8349 34.6316C46.9935 34.6731 47.1617 34.633 47.2867 34.524L47.4031 34.4224ZM45.2706 25.2558C45.372 25.2558 45.4695 25.2156 45.5431 25.1434L45.5628 25.1241C45.6796 25.0094 45.7085 24.8285 45.6334 24.6811V24.6811C45.5607 24.5385 45.4074 24.4604 45.2536 24.4879L44.8829 24.554C44.7189 24.5833 44.599 24.7303 44.599 24.9023V24.9023C44.599 25.0976 44.7522 25.2558 44.9411 25.2558H45.2706ZM43.9354 29.9767C44.2672 29.7235 44.2672 29.4341 43.9354 29.1085C43.8346 28.9986 43.7337 28.902 43.6329 28.8187C43.508 28.7157 43.3641 28.6351 43.2056 28.6145C43.065 28.5962 42.8935 28.5981 42.6912 28.6202C42.1481 28.7386 41.8087 28.9418 41.6731 29.2299C41.6126 29.3582 41.6044 29.5071 41.6295 29.6475C41.6342 29.6739 41.64 29.6987 41.6467 29.7218C41.6927 29.8799 41.8523 29.9561 42.0038 30.0086C42.1605 30.063 42.362 30.1248 42.6083 30.1938C43.106 30.3385 43.5484 30.2661 43.9354 29.9767ZM43.2252 26.3156C43.3079 26.3319 43.3935 26.3122 43.4617 26.2612V26.2612C43.6618 26.1115 43.6169 25.7912 43.3838 25.7065L43.2502 25.6579C43.2096 25.6432 43.167 25.6357 43.124 25.6357H42.8126C42.6539 25.6357 42.5253 25.7686 42.5253 25.9325V25.9325C42.5253 26.0751 42.6234 26.1975 42.759 26.2242L43.2252 26.3156ZM40.4496 34.1863C40.6355 34.0783 40.7043 33.837 40.605 33.6421V33.6421C40.5162 33.4679 40.3194 33.3843 40.1377 33.4438L39.7793 33.561C39.6798 33.5935 39.5998 33.6706 39.5615 33.7709V33.7709C39.5004 33.9308 39.5579 34.113 39.6985 34.205L39.7934 34.2671C39.9433 34.3652 40.1333 34.3703 40.2879 34.2803L40.4496 34.1863ZM38.2484 24.6708C38.4306 24.7304 38.6298 24.683 38.7684 24.547L38.7829 24.5327C39.0069 24.3129 38.9906 23.9391 38.7484 23.741V23.741C38.6199 23.636 38.4504 23.6014 38.293 23.6482L37.8739 23.7728C37.7263 23.8167 37.6173 23.946 37.5954 24.1032V24.1032C37.5683 24.2986 37.6819 24.4856 37.864 24.5451L38.2484 24.6708ZM37.6313 32.3643C38.129 32.3282 38.4331 32.2196 38.5437 32.0388C38.6543 31.8941 38.7649 31.6589 38.8755 31.3333C38.9066 31.1912 38.9028 31.0719 38.8641 30.9753C38.8031 30.8228 38.636 30.7574 38.4859 30.7009C38.3437 30.6474 38.1695 30.5869 37.9631 30.5194C37.7352 30.4448 37.5335 30.3874 37.3578 30.347C37.2094 30.3129 37.0553 30.2965 36.9084 30.3369C36.7822 30.3716 36.6361 30.4325 36.47 30.5194C36.2562 30.6592 36.0883 30.7766 35.9664 30.8714C35.8559 30.9572 35.7362 31.0673 35.7535 31.209C35.7673 31.3215 35.8402 31.4534 35.9723 31.6047C36.1935 31.8941 36.3871 32.093 36.553 32.2015C36.7742 32.3463 37.1336 32.4005 37.6313 32.3643ZM36.1382 28.0233C36.3594 27.4806 36.3594 27.0646 36.1382 26.7752C35.917 26.522 35.447 26.2326 34.7281 25.907C34.0645 25.6537 33.5391 25.5814 33.152 25.6899C32.7649 25.8346 32.2949 26.0698 31.7419 26.3953C31.1336 26.7209 30.7189 26.9922 30.4977 27.2093C30.2765 27.4264 30.3041 27.7519 30.5806 28.186C30.9677 28.7649 31.2995 29.199 31.576 29.4884C31.8525 29.814 32.4608 29.9587 33.4009 29.9225C34.2345 29.8922 34.816 29.7604 35.1455 29.5271C35.2648 29.4426 35.3669 29.3341 35.4664 29.2255C35.7291 28.9388 35.953 28.5381 36.1382 28.0233ZM33.9654 33.026C34.0746 32.9547 34.1284 32.82 34.1 32.6898V32.6898C34.0778 32.588 34.0083 32.5042 33.9144 32.4658L33.6911 32.3745C33.5228 32.3056 33.3309 32.3703 33.2342 32.5284V32.5284C33.1382 32.6854 33.1629 32.8905 33.2932 33.0184L33.3244 33.049C33.4669 33.1888 33.6832 33.2107 33.8492 33.1021L33.9654 33.026ZM26.682 25.5814C26.7373 25.2558 26.599 25.0749 26.2672 25.0388C25.9908 25.0026 25.6313 24.9302 25.1889 24.8217C24.7465 24.7132 24.3871 24.6047 24.1106 24.4961C23.8894 24.4238 23.6405 24.4961 23.364 24.7132C23.0875 24.9302 23.0322 25.1111 23.1981 25.2558C23.4193 25.4005 23.6405 25.5995 23.8617 25.8527C24.0829 26.1059 24.2488 26.323 24.3594 26.5039C24.47 26.6848 24.7742 26.739 25.2719 26.6667C25.7696 26.5943 26.1013 26.4858 26.2672 26.3411C26.4884 26.1964 26.6267 25.9432 26.682 25.5814ZM25.9138 29.3711C25.9797 29.274 25.9981 29.1507 25.9635 29.0376V29.0376C25.9022 28.8371 25.6951 28.7259 25.5011 28.7894L25.1818 28.8938C25.081 28.9268 24.999 29.0034 24.9571 29.1038V29.1038C24.8638 29.3275 24.9975 29.5825 25.2298 29.6239L25.3827 29.6512C25.5682 29.6843 25.7556 29.6038 25.8638 29.4446L25.9138 29.3711ZM21.7093 34.2721C21.7605 34.2666 21.8087 34.2446 21.8472 34.2094V34.2094C21.9968 34.0724 21.935 33.818 21.7405 33.7703L21.6179 33.7403C21.5663 33.7276 21.5123 33.7287 21.4612 33.7436L21.293 33.7925C21.0892 33.8517 21.0405 34.1272 21.2107 34.2571V34.2571C21.2619 34.2962 21.3254 34.314 21.3886 34.3071L21.7093 34.2721ZM20.8755 29.4341C21.2626 29.1809 21.3179 28.8734 21.0414 28.5116C20.7649 28.1499 20.3225 28.0052 19.7143 28.0775C19.106 28.1499 18.7465 28.385 18.6359 28.7829C18.6303 28.8121 18.6251 28.8405 18.62 28.8682C18.553 29.239 18.6507 29.6184 18.984 29.7722C19.0534 29.8042 19.1309 29.8362 19.2166 29.8682C19.3959 29.9185 19.5516 29.9455 19.6835 29.9492C19.9332 29.9561 20.1694 29.8338 20.3932 29.719C20.5383 29.6445 20.6991 29.5495 20.8755 29.4341ZM17.9723 33.4496C18.47 32.9793 18.47 32.5271 17.9723 32.093C17.6958 31.8398 17.4193 31.6951 17.1428 31.6589C16.9216 31.6589 16.5898 31.7132 16.1474 31.8217C15.5944 31.9302 15.152 32.0207 14.8202 32.093C14.5437 32.1654 14.4055 32.3824 14.4055 32.7442C14.4055 33.1421 14.4884 33.4315 14.6543 33.6124C14.8202 33.8295 15.2073 34.0103 15.8156 34.155C16.3686 34.2636 16.7557 34.2455 16.9769 34.1008C17.2534 33.9561 17.5852 33.739 17.9723 33.4496ZM17.6968 26.2354C17.7806 26.058 17.8702 25.8808 17.9256 25.692C17.9429 25.6333 17.9527 25.5776 17.9551 25.5248C17.9638 25.3375 17.8556 25.1602 17.7108 25.0471C17.5984 24.9592 17.4367 24.866 17.2258 24.7674C16.8387 24.6227 16.5345 24.5866 16.3133 24.6589C16.1474 24.7313 15.8986 24.8579 15.5668 25.0388C15.1797 25.2558 14.8479 25.4186 14.5714 25.5271C14.4361 25.5935 14.3835 25.6938 14.4138 25.8279C14.4635 26.0482 14.6091 26.2339 14.7342 26.4195C14.8603 26.6068 14.9996 26.7253 15.152 26.7752C15.4285 26.8837 15.8433 26.938 16.3963 26.938C16.7214 26.9167 16.97 26.8767 17.1422 26.8179C17.3273 26.7548 17.4754 26.6067 17.5841 26.4395C17.6238 26.3784 17.6614 26.3104 17.6968 26.2354ZM13.4837 29.6814C13.5435 29.6618 13.5951 29.622 13.6303 29.5683V29.5683C13.7301 29.4159 13.6678 29.2071 13.5021 29.1394L13.3329 29.0702C13.2234 29.0254 13.1009 29.0296 12.9945 29.0818L12.8876 29.1343C12.688 29.2322 12.6282 29.4964 12.7652 29.6756V29.6756C12.8538 29.7915 13.0026 29.8387 13.1389 29.7941L13.4837 29.6814ZM11.7981 27.7475C11.9243 27.7842 12.06 27.7538 12.1602 27.6664V27.6664C12.3403 27.5094 12.3483 27.2255 12.1775 27.0579L12.1525 27.0334C12.0563 26.939 11.9232 26.8963 11.7923 26.9177L11.4327 26.9765C11.2188 27.0115 11.0975 27.249 11.1902 27.4513V27.4513C11.2304 27.5389 11.3053 27.6042 11.3955 27.6305L11.7981 27.7475ZM10.258 25.5271C10.7557 25.5271 11.1152 25.491 11.3364 25.4186C11.6129 25.3463 11.8341 25.1473 12 24.8217C12.1106 24.5685 12.0276 24.4057 11.7511 24.3333C11.5299 24.261 11.2258 24.1344 10.8387 23.9535C10.4516 23.7726 10.0645 23.7726 9.67739 23.9535C9.34559 24.1344 9.09674 24.261 8.93084 24.3333C8.76495 24.4057 8.7373 24.5685 8.8479 24.8217C8.94777 24.9959 9.04765 25.1308 9.14752 25.2264C9.26477 25.3386 9.4126 25.4154 9.56713 25.4574C9.73823 25.5039 9.96853 25.5271 10.258 25.5271ZM11.7511 32.907C11.8064 32.6899 11.6129 32.5271 11.1705 32.4186C10.7834 32.3101 10.4792 32.3282 10.258 32.4729C10.0368 32.6176 10.0368 32.8165 10.258 33.0698C10.3026 33.1281 10.3427 33.1805 10.3782 33.227C10.4639 33.3391 10.5536 33.4602 10.6871 33.4972C10.7758 33.5217 10.8817 33.524 11.0046 33.5039C11.447 33.4315 11.6958 33.2326 11.7511 32.907ZM8.86847 29.2357C8.96253 29.2587 9.06139 29.248 9.14872 29.2051L9.20669 29.1767C9.43891 29.0627 9.49579 28.7477 9.31896 28.5549V28.5549C9.23195 28.4601 9.10482 28.4165 8.98018 28.4387L8.57909 28.5103C8.40615 28.5411 8.28924 28.7098 8.31662 28.8889V28.8889C8.33693 29.0218 8.4329 29.1288 8.55956 29.1599L8.86847 29.2357ZM5.03223 29.7054C5.22329 29.6876 5.38741 29.6653 5.52458 29.6386C5.75329 29.5942 5.98362 29.5586 6.15914 29.4007V29.4007C6.32495 29.2515 6.39341 28.9967 6.40026 28.7696C6.40409 28.6427 6.39047 28.5386 6.35942 28.4574C6.30412 28.3127 6.08291 28.168 5.69582 28.0233C5.47226 27.9397 5.28559 27.9044 5.13581 27.9173C4.94157 27.9341 4.80855 28.1074 4.65879 28.2364C4.55825 28.3229 4.43388 28.4147 4.28568 28.5116C4.19253 28.5573 4.10918 28.5998 4.03564 28.6391C3.86773 28.7288 3.66889 28.8616 3.71493 29.0511C3.72744 29.1025 3.75179 29.1579 3.78798 29.2171C4.06448 29.5788 4.47923 29.7416 5.03223 29.7054ZM5.52992 34.3178C5.91702 34.2093 6.08291 34.0646 6.02761 33.8837C5.97231 33.7028 5.91702 33.4677 5.86172 33.1783C5.80642 32.9251 5.75112 32.7261 5.69582 32.5814C5.64052 32.4729 5.41932 32.3824 5.03223 32.3101C4.53453 32.2739 4.14744 32.2558 3.87094 32.2558C3.59444 32.2558 3.34559 32.4005 3.12439 32.6899C2.90319 32.9432 2.90319 33.124 3.12439 33.2326C3.40089 33.3411 3.70504 33.5039 4.03683 33.7209C4.22312 33.8428 4.37455 33.9533 4.49111 34.0523C4.64166 34.1803 4.77438 34.35 4.9673 34.3788C5.11752 34.4012 5.30506 34.3809 5.52992 34.3178Z" fill="url(#paint1_linear_30_768)"/>
<path d="M4.07416 56.3401C3.00522 56.3401 2.13867 55.4447 2.13867 54.3401V45.6221C2.13867 44.5175 3.00522 43.6221 4.07416 43.6221H55.9347C57.0037 43.6221 57.8702 44.5175 57.8702 45.6221V54.3401C57.8702 55.4447 57.0037 56.3401 55.9347 56.3401H4.07416Z" fill="#FEFEFE"/>
<path fill-rule="evenodd" clip-rule="evenodd" d="M3.62212 49.2946C3.40092 49.4031 3.26267 49.6202 3.20737 49.9457C3.15207 50.3075 3.20738 50.5788 3.37328 50.7597C3.53917 50.9044 3.87097 51.0491 4.36866 51.1938C4.86636 51.3385 5.22581 51.3747 5.44701 51.3023C5.6682 51.1938 5.9447 50.9948 6.2765 50.7054C6.58655 50.4736 6.86112 50.2882 7.10021 50.1493C7.11366 50.1415 7.12738 50.1337 7.1412 50.1259C7.24337 50.0682 7.35055 50.0077 7.38901 49.8966C7.44491 49.7353 7.35057 49.5346 7.10599 49.2946C6.77419 48.9328 6.4424 48.77 6.1106 48.8062C5.7788 48.8424 5.3364 48.9147 4.78341 49.0233C4.23042 49.0956 3.84332 49.186 3.62212 49.2946ZM10.341 48.4264C10.4516 48.3902 10.5899 48.4444 10.7558 48.5891L10.1342 49.3501L10.1378 49.3536C10.1492 49.3597 10.1646 49.3671 10.184 49.3748C10.2039 49.3825 10.2295 49.391 10.2601 49.3982L10.7558 48.5891C10.9748 48.7325 10.7971 48.984 10.6303 49.1891C10.6169 49.2055 10.6036 49.2224 10.5902 49.2398V49.2398C10.5688 49.2678 10.5467 49.2964 10.5243 49.324C10.4994 49.3549 10.4738 49.3854 10.4475 49.4147C10.4433 49.4194 10.439 49.4241 10.4347 49.4287C10.2887 49.5877 10.1196 49.709 9.9091 49.6838C9.88774 49.6812 9.86582 49.6781 9.84332 49.6744C9.77869 49.666 9.71747 49.6558 9.65964 49.6439C9.63864 49.6395 9.6181 49.635 9.598 49.6302C9.53963 49.6163 9.48505 49.6005 9.43424 49.5828C9.40198 49.5715 9.37124 49.5595 9.34203 49.5467C9.17077 49.4716 9.05184 49.3699 8.98524 49.2416C8.93222 49.1395 8.9148 49.0124 8.96408 48.9083C9.00255 48.827 9.07443 48.7749 9.17973 48.7519L9.67742 48.5891C9.7564 48.5685 9.83087 48.5493 9.90083 48.5316C9.91 48.5293 9.91909 48.527 9.92811 48.5247C10.0911 48.4836 10.2287 48.4508 10.341 48.4264ZM9.91506 48.6896V48.6896ZM5.14053 50.3371C5.25766 50.2632 5.4263 50.1384 5.65228 49.9413L5.67992 49.9172L5.70923 49.8952C5.72324 49.8848 5.7372 49.8744 5.75113 49.864C5.52769 49.8995 5.26588 49.9464 4.96398 50.0057L4.93462 50.0115L4.90497 50.0153C4.6297 50.0514 4.42942 50.0887 4.28949 50.1213C4.38368 50.1554 4.49679 50.1922 4.63078 50.2312C4.84597 50.2937 5.00105 50.3237 5.10533 50.3342C5.11859 50.3355 5.13029 50.3364 5.14053 50.3371ZM1.1137 57.4108C0.503024 57.0113 0 56.3931 0 55.5349V44.4651C0 43.6069 0.503024 42.9887 1.1137 42.5892C1.73465 42.183 2.44603 42 3.20737 42H56.7926C57.554 42 58.2654 42.183 58.8863 42.5892C59.497 42.9887 60 43.6069 60 44.4651V55.5349C60 56.3931 59.497 57.0113 58.8863 57.4108C58.2654 57.817 57.554 58 56.7926 58H3.20737C2.44603 58 1.73465 57.817 1.1137 57.4108ZM24.0276 47.3953C24.1888 47.5798 24.2619 47.7355 24.247 47.8623C24.2358 47.9568 24.1607 48.026 24.0884 48.085C23.9639 48.1866 23.7778 48.3185 23.53 48.4806C23.3303 48.5851 23.1594 48.6519 23.0175 48.6809C22.9181 48.7012 22.8159 48.6904 22.7166 48.6695C22.5242 48.6289 22.2976 48.5659 22.0369 48.4806C21.7926 48.4007 21.5933 48.3306 21.439 48.2704C21.3394 48.2314 21.2353 48.1872 21.1742 48.0971C21.1017 47.9902 21.0851 47.8467 21.1244 47.6667C21.235 47.3411 21.3456 47.1059 21.4562 46.9612C21.5668 46.7804 21.871 46.6718 22.3687 46.6357C22.8664 46.5995 23.2258 46.6537 23.447 46.7985C23.6129 46.907 23.8065 47.1059 24.0276 47.3953ZM22.9436 47.6538C22.9319 47.6503 22.9089 47.6444 22.8716 47.6387C22.8167 47.6304 22.7434 47.6247 22.649 47.6248C22.736 47.649 22.8138 47.6685 22.8829 47.6838C22.9006 47.6775 22.9224 47.669 22.9486 47.6578C22.9468 47.6564 22.9436 47.6538 22.9436 47.6538ZM28.424 49.5116C28.7005 49.801 29.0323 50.2351 29.4194 50.814C29.6959 51.2481 29.7235 51.5736 29.5023 51.7907C29.2811 52.0078 28.8664 52.2791 28.2581 52.6047C27.7051 52.9302 27.235 53.1654 26.8479 53.3101C26.4608 53.4186 25.9355 53.3463 25.2719 53.093C24.553 52.7674 24.0829 52.478 23.8617 52.2248C23.6406 51.9354 23.6406 51.5194 23.8617 50.9767C24.0587 50.4291 24.2996 50.0105 24.5843 49.721C24.5935 49.7117 24.6026 49.7023 24.6118 49.693C24.6713 49.6322 24.7309 49.5713 24.7962 49.5174C25.1129 49.2563 25.7138 49.1097 26.5991 49.0775C27.5392 49.0413 28.1475 49.186 28.424 49.5116ZM24.6701 51.6342C24.8098 51.7413 25.1025 51.9228 25.6335 52.1649C26.1698 52.3663 26.4534 52.3715 26.5678 52.351C26.8769 52.2306 27.278 52.0308 27.779 51.7358L27.7958 51.7259L27.813 51.7167C28.1437 51.5397 28.3853 51.3944 28.5548 51.2809C28.2125 50.7761 27.9404 50.4288 27.7353 50.2142L27.7153 50.1933L27.7142 50.192C27.6968 50.1823 27.6469 50.1581 27.5433 50.1334C27.3526 50.0881 27.0585 50.0605 26.6351 50.0768L26.6331 50.0769C26.2291 50.0916 25.9252 50.1316 25.7068 50.1849C25.599 50.2112 25.5219 50.2383 25.4693 50.2617C25.4187 50.2842 25.3997 50.2992 25.3997 50.2992C25.3769 50.318 25.3567 50.3385 25.2899 50.4065C25.2817 50.4148 25.2728 50.4239 25.263 50.4338C25.1123 50.5871 24.9356 50.8616 24.7689 51.3251L24.7616 51.3452L24.7536 51.3649C24.7021 51.4913 24.6796 51.5793 24.6701 51.6342ZM43.8525 47.1783C43.4101 47.2868 43.0783 47.3411 42.8571 47.3411C42.5806 47.3049 42.3041 47.1602 42.0276 46.907C41.5299 46.4729 41.5299 46.0207 42.0276 45.5504C42.4147 45.261 42.7465 45.0439 43.023 44.8992C43.2442 44.7545 43.6313 44.7364 44.1843 44.845C44.7926 44.9897 45.1797 45.1705 45.3456 45.3876C45.5115 45.5685 45.5945 45.8579 45.5945 46.2558C45.5945 46.6176 45.4562 46.8346 45.1797 46.907C44.8479 46.9793 44.4055 47.0698 43.8525 47.1783ZM42.7628 46.2373C42.8393 46.2959 42.8961 46.3238 42.9335 46.3373C43.0608 46.3263 43.2839 46.29 43.629 46.2053L43.6504 46.2001L43.672 46.1959C44.0139 46.1287 44.3115 46.069 44.5652 46.0164C44.5555 46.0115 44.5445 46.0061 44.5321 46.0003C44.4198 45.9478 44.2435 45.8861 43.9857 45.8239C43.763 45.7812 43.6135 45.7719 43.523 45.7761C43.5062 45.7769 43.4931 45.7781 43.4835 45.7792L43.4603 45.7913C43.2804 45.8855 43.0493 46.0308 42.7628 46.2373ZM43.4613 45.7828L43.4633 45.7823ZM56.8756 46.3101C56.7779 46.4379 56.6748 46.5375 56.5663 46.6089C56.532 46.6315 56.4971 46.6512 56.4617 46.6681L56.4583 46.6697L56.4551 46.6712C56.351 46.7199 56.2424 46.7442 56.129 46.7442C55.8525 46.7442 55.4654 46.7261 54.9677 46.6899C54.5806 46.6176 54.3594 46.5271 54.3041 46.4186C54.2488 46.2739 54.1935 46.0749 54.1382 45.8217C54.0829 45.5323 54.0276 45.2972 53.9724 45.1163C53.9171 44.9354 54.0829 44.7907 54.47 44.6822C54.7453 44.605 54.9646 44.5919 55.128 44.6427C55.225 44.6729 55.2985 44.7467 55.3719 44.8204C55.3927 44.8412 55.4135 44.862 55.4348 44.8819C55.5584 44.9971 55.7345 45.1295 55.9631 45.2791C56.2949 45.4961 56.5991 45.6589 56.8756 45.7674C57.0968 45.876 57.0968 46.0568 56.8756 46.3101ZM48.6636 53.5814C48.3871 53.6537 48.1659 53.8527 48 54.1783C47.8894 54.4315 47.9724 54.5943 48.2488 54.6667C48.47 54.739 48.7742 54.8656 49.1613 55.0465C49.5484 55.2274 49.9355 55.2274 50.3226 55.0465C50.6544 54.8656 50.9032 54.739 51.0691 54.6667C51.235 54.5943 51.2627 54.4315 51.1521 54.1783C51.0319 53.9686 50.9117 53.8159 50.7914 53.7201C50.7071 53.6529 50.6103 53.602 50.5095 53.5664C50.333 53.504 50.0772 53.4729 49.7419 53.4729C49.2442 53.4729 48.8848 53.509 48.6636 53.5814ZM16.7008 49.1333C16.7008 49.1333 16.7037 49.1364 16.7079 49.1423C16.7026 49.1363 16.7008 49.1333 16.7008 49.1333ZM16.0645 49.0233C16.4516 48.7339 16.894 48.6615 17.3917 48.8062C17.6796 48.8869 17.9063 48.9576 18.0718 49.0183C18.1722 49.0551 18.277 49.1026 18.3243 49.2012C18.3524 49.2598 18.3711 49.3338 18.3803 49.4232C18.3901 49.5178 18.3851 49.6149 18.3538 49.7043C18.2407 50.0274 17.8923 50.2526 17.3088 50.3798C17.0669 50.4062 16.8691 50.4038 16.7154 50.3724C16.6109 50.3512 16.5159 50.2975 16.4305 50.2318C16.3085 50.1379 16.1865 50.0245 16.0645 49.8915C15.7327 49.5659 15.7327 49.2765 16.0645 49.0233ZM35.8894 54.5039C35.6129 54.3953 35.2535 54.2868 34.8111 54.1783C34.3687 54.0698 34.0092 53.9974 33.7327 53.9612C33.4009 53.9251 33.2627 53.7442 33.318 53.4186C33.3733 53.0568 33.5115 52.8036 33.7327 52.6589C33.8986 52.5142 34.2304 52.4057 34.7281 52.3333C35.2258 52.261 35.53 52.3152 35.6406 52.4961C35.7512 52.677 35.917 52.8941 36.1382 53.1473C36.3594 53.4005 36.5806 53.5995 36.8018 53.7442C36.9677 53.8889 36.9124 54.0698 36.6359 54.2868C36.5424 54.3602 36.4521 54.4171 36.3649 54.4574C36.302 54.4865 36.2406 54.507 36.181 54.5188C36.079 54.5391 35.9818 54.5341 35.8894 54.5039ZM33.8301 52.9662L33.8323 52.9665ZM45.4286 53.4729C45.1521 53.5814 44.8203 53.7442 44.4332 53.9612C44.1014 54.1421 43.8525 54.2687 43.6866 54.3411C43.4654 54.4134 43.1613 54.3773 42.7742 54.2326C42.5145 54.1112 42.3295 53.998 42.2192 53.893C42.1302 53.8083 42.0653 53.6928 42.0487 53.569C42.0346 53.4642 42.054 53.3462 42.1069 53.215C42.1346 53.1463 42.1647 53.0785 42.1949 53.0107C42.218 52.9588 42.2411 52.9068 42.2631 52.8545C42.3259 52.7052 42.3959 52.58 42.4733 52.4789C42.5539 52.3736 42.6479 52.2731 42.7665 52.2182C42.9367 52.1395 43.2158 52.0874 43.6037 52.062C44.1567 52.062 44.5714 52.1163 44.8479 52.2248C45.0247 52.2826 45.1839 52.4329 45.3254 52.6757C45.3473 52.7133 45.3699 52.7505 45.3925 52.7878C45.4476 52.8788 45.5028 52.9698 45.5483 53.0659C45.6374 53.2543 45.5975 53.39 45.4286 53.4729ZM43.987 53.0737C43.8855 53.0669 43.7685 53.0626 43.6345 53.0621C43.4802 53.073 43.3621 53.088 43.2755 53.1042C43.2541 53.1082 43.236 53.112 43.2209 53.1154C43.2048 53.1398 43.1801 53.183 43.1508 53.2528C43.1434 53.2704 43.1366 53.2864 43.1303 53.3012C43.1328 53.3024 43.1353 53.3036 43.1379 53.3048C43.2644 53.3499 43.351 53.3686 43.4033 53.3748L43.4074 53.3752C43.5369 53.3136 43.7241 53.2171 43.9767 53.0795C43.9801 53.0775 43.9836 53.0756 43.987 53.0737ZM49.1968 46.29C49.1926 46.3064 49.1864 46.3253 49.1775 46.3457C49.1718 46.3588 49.1649 46.3725 49.1568 46.3865C49.1503 46.3977 49.1435 46.4082 49.1366 46.418C49.1326 46.4236 49.1285 46.429 49.1244 46.4342C49.1119 46.45 49.0993 46.4636 49.0872 46.4749C49.084 46.4742 49.0807 46.4734 49.0773 46.4726C49.0528 46.4667 49.0234 46.4574 48.9907 46.4427C48.9787 46.4373 48.9673 46.4317 48.9565 46.426C48.9473 46.3842 48.941 46.3358 48.9402 46.2811C48.9401 46.2772 48.9401 46.2733 48.9401 46.2694C48.9401 46.2587 48.9403 46.2482 48.9407 46.2376C48.941 46.2313 48.9413 46.225 48.9418 46.2187C48.9503 46.0887 48.9912 45.9674 49.0523 45.8678C49.055 45.8634 49.0578 45.859 49.0606 45.8546C49.0774 45.8285 49.0945 45.8057 49.111 45.7859C49.1286 45.8178 49.1453 45.8536 49.1598 45.8936C49.1705 45.9229 49.1791 45.952 49.186 45.9808C49.1899 45.9971 49.1932 46.0133 49.1959 46.0293C49.2104 46.1134 49.2102 46.1938 49.2005 46.2656C49.1994 46.2739 49.1982 46.282 49.1968 46.29ZM49.0367 46.6169C49.0367 46.6169 49.033 46.6129 49.0278 46.6053C49.0344 46.6131 49.0367 46.6169 49.0367 46.6169ZM54.9677 49.2946C54.7214 49.3176 54.5199 49.3479 54.3632 49.3856C54.3507 49.3886 54.3382 49.3916 54.3256 49.3945C54.1848 49.428 54.0406 49.4622 53.9182 49.5403C53.8572 49.5792 53.8025 49.6305 53.754 49.6942C53.6626 49.8143 53.6218 49.9667 53.607 50.1188C53.5896 50.2974 53.6008 50.4387 53.6405 50.5426C53.6958 50.6873 53.9171 50.832 54.3041 50.9767C54.5785 51.0793 54.7972 51.1092 54.9605 51.0664C55.0602 51.0402 55.1347 50.9643 55.2088 50.8886C55.2283 50.8688 55.2477 50.849 55.2676 50.8301C55.3787 50.7244 55.5276 50.6105 55.7143 50.4884C55.8448 50.4243 55.9561 50.3666 56.0481 50.3152C56.1589 50.2532 56.2854 50.1758 56.2943 50.0459C56.2996 49.9689 56.2721 49.8813 56.212 49.7829C55.9355 49.4212 55.5207 49.2584 54.9677 49.2946ZM9.07931 51.7187C9.14929 51.7548 9.21044 51.8045 9.26043 51.8637C9.28452 51.8922 9.30601 51.9229 9.32465 51.9554C9.33072 51.966 9.33649 51.9768 9.34194 51.9877C9.39633 52.0966 9.41974 52.2225 9.40323 52.3497C9.39747 52.394 9.38687 52.4385 9.37105 52.4825C9.36743 52.4926 9.36353 52.5026 9.35936 52.5126C9.3381 52.5637 9.31038 52.6111 9.27714 52.654C9.24855 52.6595 9.21956 52.6622 9.19056 52.662C9.13791 52.6616 9.08527 52.6518 9.0351 52.6325C9.02187 52.6274 9.00881 52.6216 8.99596 52.6152C8.9913 52.6128 8.98667 52.6104 8.98207 52.6079C8.9778 52.6052 8.97359 52.6025 8.96944 52.5996C8.89383 52.5485 8.83723 52.4791 8.80106 52.4009C8.77819 52.3515 8.76349 52.2986 8.75731 52.2446C8.75463 52.2212 8.75355 52.1975 8.75412 52.1738C8.75643 52.0771 8.78612 51.9801 8.84521 51.8965C8.856 51.8812 8.86777 51.8663 8.88054 51.852C8.90094 51.8291 8.92319 51.8085 8.94694 51.7903C8.98733 51.7593 9.03204 51.7352 9.07931 51.7187ZM9.0214 51.6927C8.98588 51.7058 8.95144 51.723 8.91879 51.7443L8.6134 51.9441C8.55003 51.9856 8.50026 52.0458 8.47058 52.117C8.37034 52.3574 8.52671 52.6289 8.77904 52.6525L9.18805 52.6907C9.20695 52.6925 9.22581 52.6931 9.24455 52.6926C9.25719 52.6923 9.26977 52.6914 9.28228 52.6901C9.40001 52.6776 9.51058 52.6212 9.59222 52.5297C9.80556 52.2904 9.74809 51.9083 9.47454 51.7472L9.44805 51.7316C9.33342 51.6641 9.20026 51.6459 9.07582 51.6761C9.05746 51.6806 9.03929 51.6861 9.0214 51.6927ZM13.381 45.1254C13.4656 45.0874 13.5344 45.0172 13.5717 44.9277C13.661 44.7135 13.5437 44.4675 13.3249 44.4102L13.229 44.3852C13.2583 44.4116 13.2853 44.441 13.3095 44.4732C13.3528 44.5307 13.387 44.597 13.4093 44.6701C13.4293 44.7352 13.4385 44.802 13.4377 44.868C13.4365 44.9572 13.4171 45.0449 13.381 45.1254ZM12.7064 44.4821C12.6979 44.4983 12.6901 44.5149 12.6829 44.532C12.668 44.5679 12.6566 44.6042 12.6485 44.6408C12.6279 44.7344 12.6292 44.829 12.6494 44.9182C12.6761 45.0366 12.7362 45.1454 12.8223 45.2295C12.6708 45.2273 12.5337 45.1254 12.4866 44.9713C12.4431 44.8291 12.4866 44.6738 12.5969 44.5776L12.7064 44.4821ZM15.2426 54.3959C15.3387 54.3326 15.4009 54.2216 15.4009 54.0977C15.4009 53.9413 15.3026 53.8086 15.1664 53.762C15.1874 53.7903 15.2064 53.8206 15.2229 53.853C15.2625 53.9307 15.285 54.014 15.2911 54.0977C15.2986 54.1996 15.282 54.3021 15.2426 54.3959ZM14.4906 53.8271C14.4789 53.8362 14.4676 53.8461 14.4569 53.8566L14.4372 53.8759C14.3203 53.9906 14.2915 54.1715 14.3666 54.3189C14.4101 54.4043 14.4825 54.4666 14.5667 54.4969C14.5162 54.4306 14.4781 54.3539 14.4558 54.2704C14.441 54.2154 14.4332 54.1575 14.4332 54.0977C14.4332 54.0301 14.4433 53.9647 14.4621 53.903C14.4652 53.8929 14.4685 53.883 14.472 53.8731C14.4777 53.8575 14.4838 53.8421 14.4906 53.8271ZM17.3598 52.83C17.3783 52.9074 17.3839 52.9879 17.376 53.0675C17.3665 53.1642 17.3372 53.2595 17.287 53.346C17.3965 53.3042 17.4747 53.1953 17.4747 53.0675C17.4747 52.9715 17.4302 52.8847 17.3598 52.83ZM16.607 52.7002C16.5828 52.7099 16.5597 52.7228 16.5383 52.7388C16.3664 52.8673 16.3753 53.1217 16.5288 53.2446C16.5145 53.1878 16.5069 53.1284 16.5069 53.0675C16.5069 52.9648 16.5282 52.8672 16.5665 52.7792C16.5784 52.7519 16.592 52.7255 16.607 52.7002ZM19.5624 44.8067L19.5503 44.8137C19.3645 44.9217 19.2957 45.163 19.395 45.3579C19.4563 45.4781 19.5689 45.5552 19.6926 45.5719L19.6982 45.5726L19.6944 45.5689C19.6132 45.4914 19.5549 45.3941 19.523 45.2883C19.482 45.1523 19.4847 45.0023 19.5383 44.8618C19.5435 44.8484 19.549 44.8352 19.555 44.8222C19.5574 44.817 19.5598 44.8118 19.5624 44.8067ZM20.2621 45.4224C20.2968 45.3467 20.3157 45.2639 20.3174 45.1797C20.3193 45.0826 20.2981 44.9838 20.2513 44.892C20.2499 44.8892 20.2485 44.8865 20.247 44.8838C20.2272 44.8462 20.2038 44.8116 20.1776 44.7802C20.1402 44.7356 20.097 44.6975 20.0497 44.6667C20.1045 44.6788 20.1577 44.7009 20.2066 44.7329L20.3015 44.795C20.4421 44.8869 20.4996 45.0692 20.4384 45.2291C20.4056 45.315 20.3422 45.3839 20.2621 45.4224ZM21.8907 55.1851C21.8931 55.1827 21.8954 55.1803 21.8977 55.1778C21.9069 55.168 21.9156 55.1579 21.9238 55.1475C21.9881 55.0659 22.0221 54.9678 22.0263 54.8688C22.0267 54.8594 22.0268 54.8501 22.0266 54.8408C22.0265 54.8322 22.0262 54.8236 22.0256 54.815C22.02 54.7309 21.993 54.6483 21.9449 54.5768C21.9198 54.5393 21.8888 54.5048 21.8521 54.4749C21.8144 54.444 21.7729 54.4199 21.729 54.4028C21.7033 54.3928 21.6768 54.3852 21.6498 54.3801C21.5839 54.4365 21.5307 54.5076 21.4944 54.5883C21.4787 54.6234 21.4661 54.6602 21.4571 54.6984C21.4552 54.7065 21.4535 54.7146 21.4519 54.7228C21.4499 54.7334 21.4481 54.744 21.4466 54.7547C21.4355 54.8347 21.4404 54.9139 21.4589 54.9883C21.4705 55.0346 21.4874 55.0791 21.509 55.1209C21.5444 55.1892 21.5925 55.2502 21.6509 55.3C21.6642 55.2981 21.6775 55.2957 21.6905 55.2927C21.7608 55.2763 21.8271 55.2422 21.8831 55.1921C21.8857 55.1898 21.8882 55.1874 21.8907 55.1851ZM22.1261 55.2272C22.2737 55.1833 22.3827 55.054 22.4045 54.8968C22.4317 54.7014 22.318 54.5144 22.1359 54.4549L21.7516 54.3292C21.7444 54.3268 21.7371 54.3246 21.7298 54.3226C21.7187 54.3195 21.7074 54.3167 21.6962 54.3144C21.5299 54.28 21.3562 54.3307 21.2316 54.453L21.217 54.4673C20.993 54.6871 21.0093 55.0609 21.2516 55.259C21.3748 55.3597 21.5358 55.3956 21.6876 55.3571C21.6941 55.3555 21.7005 55.3537 21.707 55.3518L22.1261 55.2272ZM34.778 49.3776C34.8601 49.4502 34.9242 49.5467 34.9592 49.6611C34.9802 49.7298 34.9892 49.8009 34.9866 49.8711C34.9848 49.9196 34.9776 49.9677 34.9649 50.0144C34.9976 49.9809 35.0242 49.9409 35.0429 49.8962C35.1351 49.675 35.0054 49.4233 34.778 49.3776ZM34.3158 50.2211C34.229 50.1442 34.1653 50.0431 34.1316 49.9313C34.1046 49.8415 34.097 49.7447 34.1123 49.6479C34.1168 49.6189 34.1235 49.5899 34.1323 49.5611L34.0862 49.6289C34.0202 49.726 34.0018 49.8493 34.0364 49.9624C34.0783 50.0995 34.1883 50.1948 34.3158 50.2211ZM41.3641 50.2171C41.2535 50.615 40.894 50.8501 40.2857 50.9225C39.6774 50.9948 39.235 50.8501 38.9585 50.4884C38.682 50.1266 38.7373 49.8191 39.1244 49.5659C39.3482 49.4195 39.5467 49.3061 39.7202 49.2255C39.7411 49.2158 39.7621 49.2058 39.7832 49.1958C39.9147 49.1334 40.0483 49.0699 40.1912 49.0551C40.3461 49.039 40.5435 49.0645 40.7834 49.1318C40.9447 49.1921 41.0771 49.2523 41.1808 49.3126C41.3929 49.4359 41.4489 49.6959 41.4113 49.9443C41.3988 50.0267 41.3831 50.1176 41.3641 50.2171ZM47.2429 49.3355C47.2828 49.442 47.2981 49.5581 47.2855 49.6733C47.326 49.5651 47.3152 49.4377 47.2429 49.3355ZM46.3796 49.7687C46.3458 49.6749 46.3346 49.576 46.3442 49.4797C46.3035 49.5773 46.3196 49.6881 46.3796 49.7687ZM48.0444 51.2406C47.9932 51.2979 47.9522 51.3641 47.9231 51.4357C47.8697 51.5673 47.8565 51.7171 47.8947 51.8635C47.8982 51.8766 47.902 51.8897 47.9062 51.9027C47.9144 51.9277 47.924 51.9524 47.9352 51.977C47.9475 52.0036 47.9613 52.0292 47.9766 52.0536C47.9294 52.0332 47.8856 52.004 47.8475 51.9666L47.8225 51.9421C47.6517 51.7745 47.6597 51.4906 47.8397 51.3336C47.8987 51.2821 47.97 51.2505 48.0444 51.2406ZM48.5305 52.0295L48.5672 52.0235C48.7812 51.9885 48.9025 51.751 48.8098 51.5487C48.7696 51.4611 48.6947 51.3958 48.6044 51.3695L48.6005 51.3684C48.6014 51.3702 48.6023 51.372 48.6032 51.3738C48.6418 51.4507 48.6629 51.5345 48.6665 51.6189C48.6722 51.7481 48.637 51.8787 48.5618 51.988C48.552 52.0022 48.5416 52.0161 48.5305 52.0295ZM48.2488 46.093C48.3041 45.7674 48.553 45.5685 48.9954 45.4961C49.15 45.4708 49.2776 45.4809 49.3782 45.5263C49.4622 45.5643 49.5212 45.6414 49.578 45.7158L49.7419 45.9302C49.9631 46.1835 49.9631 46.3824 49.7419 46.5271C49.5207 46.6718 49.2166 46.6899 48.8295 46.5814C48.3871 46.4729 48.1935 46.3101 48.2488 46.093ZM51.4684 50.4774C51.6147 50.4269 51.7081 50.2733 51.6833 50.1111C51.6635 49.9812 51.5713 49.876 51.4489 49.8423C51.5062 49.9322 51.5373 50.0327 51.5439 50.1339C51.5516 50.253 51.5255 50.373 51.4684 50.4774ZM50.8156 49.8124C50.8104 49.8211 50.8053 49.83 50.8005 49.8391C50.7329 49.9649 50.7041 50.1141 50.7275 50.2671C50.7331 50.3041 50.7416 50.34 50.7529 50.3747C50.7729 50.4368 50.8015 50.4949 50.8373 50.5474C50.7787 50.5275 50.7248 50.4928 50.681 50.4451C50.5042 50.2523 50.5611 49.9373 50.7933 49.8233L50.8156 49.8124ZM58.3687 56.5659C58.8111 56.2765 59.0323 55.9328 59.0323 55.5349V44.4651C59.0323 44.0672 58.8111 43.7235 58.3687 43.4341C57.9263 43.1447 57.4009 43 56.7926 43H3.20737C2.59908 43 2.07373 43.1447 1.63134 43.4341C1.18894 43.7235 0.967742 44.0672 0.967742 44.4651V55.5349C0.967742 55.9328 1.18894 56.2765 1.63134 56.5659C2.07373 56.8553 2.59908 57 3.20737 57H56.7926C57.4009 57 57.9263 56.8553 58.3687 56.5659Z" fill="#FEFEFE"/>
<path d="M59.0323 55.5349C59.0323 55.9328 58.8111 56.2765 58.3687 56.5659C57.9263 56.8553 57.401 57 56.7927 57L3.20741 57C2.59911 57 2.07377 56.8553 1.63137 56.5659C1.18897 56.2765 0.967773 55.9328 0.967773 55.5349L0.967773 44.4651C0.967773 44.0672 1.18897 43.7235 1.63137 43.4341C2.07377 43.1447 2.59911 43 3.20741 43H56.7927C57.401 43 57.9263 43.1447 58.3687 43.4341C58.8111 43.7235 59.0323 44.0672 59.0323 44.4651L59.0323 55.5349ZM3.20741 49.9457C3.15211 50.3075 3.20741 50.5788 3.37331 50.7597C3.5392 50.9044 3.871 51.0491 4.3687 51.1938C4.86639 51.3385 5.22584 51.3747 5.44704 51.3023C5.66824 51.1938 5.94473 50.9948 6.27653 50.7054C6.58658 50.4736 6.86115 50.2882 7.10025 50.1493C7.21316 50.0836 7.34538 50.0227 7.38904 49.8966C7.44494 49.7353 7.3506 49.5346 7.10602 49.2946C6.77423 48.9328 6.44243 48.77 6.11063 48.8062C5.77883 48.8424 5.33644 48.9147 4.78344 49.0233C4.23045 49.0956 3.84335 49.186 3.62215 49.2946C3.40095 49.4031 3.2627 49.6202 3.20741 49.9457ZM4.70273 53.7143C4.56653 53.7305 4.47164 53.8619 4.49534 54.0014V54.0014C4.51732 54.1308 4.63376 54.2196 4.7599 54.2031L5.15778 54.151C5.27569 54.1356 5.36409 54.032 5.36409 53.9091V53.9091C5.36409 53.7634 5.24124 53.6503 5.10116 53.6669L4.70273 53.7143ZM8.61343 51.9441C8.55006 51.9856 8.50029 52.0458 8.47062 52.117V52.117C8.37037 52.3574 8.52674 52.6289 8.77907 52.6525L9.18808 52.6907C9.33971 52.7049 9.48909 52.6453 9.59225 52.5297V52.5297C9.80559 52.2904 9.74812 51.9083 9.47457 51.7472L9.44809 51.7316C9.28296 51.6344 9.0794 51.6393 8.91882 51.7443L8.61343 51.9441ZM9.67745 48.5891C9.45625 48.6615 9.29036 48.7158 9.17976 48.7519C9.07446 48.7749 9.00258 48.827 8.96412 48.9083C8.91483 49.0124 8.93225 49.1395 8.98527 49.2416C9.10426 49.4709 9.39029 49.6151 9.84335 49.6744C9.86585 49.6781 9.88777 49.6812 9.90913 49.6838C10.1984 49.7184 10.4094 49.4765 10.5899 49.2403V49.2403C10.6034 49.2227 10.6168 49.2056 10.6303 49.1891C10.7972 48.984 10.9749 48.7325 10.7558 48.5891V48.5891C10.5899 48.4444 10.4516 48.3902 10.341 48.4264C10.1751 48.4625 9.95395 48.5168 9.67745 48.5891ZM10.8567 53.8659C10.791 53.8573 10.7244 53.8698 10.6658 53.9018L10.4712 54.0079C10.3478 54.0751 10.2887 54.224 10.3307 54.3614V54.3614C10.3811 54.5264 10.5564 54.6125 10.712 54.5489L11.047 54.4119C11.0739 54.4009 11.0988 54.3855 11.1209 54.3663V54.3663C11.2984 54.2115 11.2128 53.9125 10.9824 53.8824L10.8567 53.8659ZM12.5969 44.5776C12.4866 44.6738 12.4431 44.8291 12.4866 44.9713V44.9713C12.5405 45.1476 12.7122 45.2556 12.8885 45.2242L13.2973 45.1512C13.4194 45.1294 13.5227 45.0453 13.5718 44.9277V44.9277C13.6611 44.7135 13.5437 44.4675 13.3249 44.4102L13.1651 44.3684C13.0065 44.3269 12.8383 44.367 12.7133 44.476L12.5969 44.5776ZM14.7294 53.7442C14.628 53.7442 14.5305 53.7844 14.4569 53.8566L14.4372 53.8759C14.3204 53.9906 14.2915 54.1715 14.3666 54.3189V54.3189C14.4393 54.4615 14.5926 54.5396 14.7464 54.5121L15.1171 54.446C15.2811 54.4167 15.401 54.2697 15.401 54.0977V54.0977C15.401 53.9024 15.2478 53.7442 15.0589 53.7442H14.7294ZM16.0646 49.0233C15.7328 49.2765 15.7328 49.5659 16.0646 49.8915C16.1865 50.0245 16.3085 50.1379 16.4305 50.2318C16.5159 50.2975 16.6109 50.3512 16.7154 50.3725C16.8691 50.4038 17.0669 50.4062 17.3088 50.3798C17.8924 50.2526 18.2407 50.0274 18.3539 49.7043C18.3852 49.6149 18.3901 49.5178 18.3803 49.4232C18.3711 49.3338 18.3524 49.2598 18.3243 49.2012C18.2771 49.1026 18.1722 49.0551 18.0719 49.0183C17.9063 48.9576 17.6796 48.8869 17.3917 48.8062C16.894 48.6615 16.4516 48.7339 16.0646 49.0233ZM16.7748 52.6844C16.6921 52.6681 16.6065 52.6878 16.5383 52.7388V52.7388C16.3382 52.8885 16.3831 53.2088 16.6162 53.2935L16.7498 53.3421C16.7904 53.3568 16.833 53.3643 16.876 53.3643H17.1874C17.3461 53.3643 17.4747 53.2314 17.4747 53.0675V53.0675C17.4747 52.9249 17.3766 52.8025 17.241 52.7758L16.7748 52.6844ZM19.5504 44.8137C19.3645 44.9217 19.2957 45.163 19.395 45.3579V45.3579C19.4838 45.5321 19.6806 45.6157 19.8623 45.5562L20.2207 45.439C20.3202 45.4065 20.4002 45.3294 20.4385 45.2291V45.2291C20.4996 45.0692 20.4421 44.887 20.3015 44.795L20.2066 44.7329C20.0567 44.6348 19.8667 44.6297 19.7121 44.7197L19.5504 44.8137ZM21.7516 54.3292C21.5694 54.2696 21.3702 54.317 21.2316 54.453L21.2171 54.4673C20.9931 54.6871 21.0094 55.0609 21.2516 55.259V55.259C21.3801 55.364 21.5496 55.3986 21.707 55.3518L22.1261 55.2272C22.2737 55.1833 22.3827 55.054 22.4046 54.8968V54.8968C22.4317 54.7014 22.3181 54.5144 22.136 54.4549L21.7516 54.3292ZM22.3687 46.6357C21.871 46.6718 21.5669 46.7804 21.4563 46.9612C21.3457 47.1059 21.2351 47.3411 21.1245 47.6667C21.0851 47.8467 21.1017 47.9902 21.1742 48.0971C21.2354 48.1872 21.3394 48.2314 21.439 48.2704C21.5934 48.3306 21.7927 48.4007 22.0369 48.4806C22.2976 48.5659 22.5242 48.6289 22.7167 48.6695C22.816 48.6904 22.9181 48.7012 23.0175 48.6809C23.1595 48.6519 23.3303 48.5851 23.53 48.4806C23.7778 48.3185 23.964 48.1866 24.0884 48.085C24.1607 48.026 24.2359 47.9568 24.247 47.8623C24.2619 47.7355 24.1888 47.5798 24.0277 47.3953C23.8065 47.1059 23.6129 46.907 23.447 46.7985C23.2258 46.6537 22.8664 46.5995 22.3687 46.6357ZM23.8618 50.9767C23.6406 51.5194 23.6406 51.9354 23.8618 52.2248C24.083 52.478 24.553 52.7674 25.2719 53.093C25.9355 53.3463 26.4609 53.4186 26.848 53.3101C27.2351 53.1654 27.7051 52.9302 28.2581 52.6047C28.8664 52.2791 29.2811 52.0078 29.5023 51.7907C29.7235 51.5736 29.6959 51.2481 29.4194 50.814C29.0323 50.2351 28.7005 49.801 28.424 49.5116C28.1475 49.186 27.5392 49.0413 26.5991 49.0775C25.7138 49.1097 25.1129 49.2563 24.7963 49.5174C24.7208 49.5796 24.6531 49.6511 24.5843 49.721C24.2996 50.0105 24.0588 50.4291 23.8618 50.9767ZM26.0346 45.974C25.9254 46.0453 25.8716 46.18 25.9 46.3102V46.3102C25.9222 46.412 25.9917 46.4958 26.0856 46.5342L26.3089 46.6255C26.4772 46.6944 26.6691 46.6297 26.7658 46.4716V46.4716C26.8618 46.3146 26.8371 46.1095 26.7068 45.9816L26.6756 45.951C26.5331 45.8112 26.3168 45.7893 26.1508 45.8979L26.0346 45.974ZM33.318 53.4186C33.2627 53.7442 33.401 53.9251 33.7328 53.9612C34.0092 53.9974 34.3687 54.0698 34.8111 54.1783C35.2535 54.2868 35.6129 54.3953 35.8894 54.5039C36.1106 54.5762 36.3595 54.5039 36.636 54.2868C36.9125 54.0698 36.9678 53.8889 36.8019 53.7442C36.5807 53.5995 36.3595 53.4005 36.1383 53.1473C35.9171 52.8941 35.7512 52.677 35.6406 52.4961C35.53 52.3152 35.2258 52.261 34.7281 52.3333C34.2304 52.4057 33.8987 52.5142 33.7328 52.6589C33.5116 52.8036 33.3733 53.0568 33.318 53.4186ZM34.0862 49.6289C34.0203 49.726 34.0019 49.8493 34.0365 49.9624V49.9624C34.0978 50.1629 34.3049 50.2741 34.4989 50.2106L34.8182 50.1062C34.919 50.0732 35.001 49.9966 35.0429 49.8962V49.8962C35.1362 49.6725 35.0025 49.4175 34.7702 49.3761L34.6173 49.3488C34.4318 49.3157 34.2444 49.3962 34.1362 49.5554L34.0862 49.6289ZM38.2907 44.7279C38.2395 44.7334 38.1913 44.7554 38.1528 44.7906V44.7906C38.0032 44.9276 38.065 45.182 38.2595 45.2297L38.3821 45.2597C38.4337 45.2724 38.4877 45.2713 38.5388 45.2564L38.707 45.2075C38.9108 45.1483 38.9595 44.8728 38.7893 44.7429V44.7429C38.7381 44.7038 38.6746 44.686 38.6114 44.6929L38.2907 44.7279ZM39.1245 49.5659C38.7374 49.8191 38.6821 50.1266 38.9586 50.4884C39.2351 50.8501 39.6775 50.9948 40.2857 50.9225C40.894 50.8501 41.2535 50.615 41.3641 50.2171C41.3831 50.1176 41.3988 50.0267 41.4113 49.9443C41.4489 49.6959 41.3929 49.4359 41.1808 49.3126C41.0772 49.2523 40.9447 49.1921 40.7834 49.1318C40.5436 49.0645 40.3462 49.039 40.1912 49.0551C40.0255 49.0723 39.8721 49.1549 39.7202 49.2255C39.5468 49.3061 39.3482 49.4195 39.1245 49.5659ZM42.0277 45.5504C41.53 46.0207 41.53 46.4729 42.0277 46.907C42.3042 47.1602 42.5807 47.3049 42.8572 47.3411C43.0784 47.3411 43.4102 47.2868 43.8526 47.1783C44.4056 47.0698 44.848 46.9793 45.1798 46.907C45.4563 46.8346 45.5945 46.6176 45.5945 46.2558C45.5945 45.8579 45.5116 45.5685 45.3457 45.3876C45.1798 45.1705 44.7927 44.9897 44.1844 44.845C43.6314 44.7364 43.2443 44.7545 43.0231 44.8992C42.7466 45.0439 42.4148 45.261 42.0277 45.5504ZM42.2632 52.8545C42.2125 52.9751 42.1559 53.0936 42.1069 53.215C42.054 53.3462 42.0346 53.4642 42.0487 53.569C42.0654 53.6928 42.1302 53.8083 42.2192 53.893C42.3296 53.998 42.5146 54.1112 42.7742 54.2326C43.1613 54.3773 43.4655 54.4134 43.6867 54.3411C43.8526 54.2687 44.1014 54.1421 44.4332 53.9612C44.8203 53.7442 45.1521 53.5814 45.4286 53.4729C45.5976 53.39 45.6375 53.2543 45.5483 53.0659C45.4842 52.9304 45.4007 52.8049 45.3254 52.6757C45.1839 52.4329 45.0248 52.2826 44.848 52.2248C44.5715 52.1163 44.1567 52.062 43.6037 52.062C43.2158 52.0874 42.9368 52.1395 42.7665 52.2182C42.6479 52.2731 42.554 52.3736 42.4734 52.4789C42.396 52.58 42.3259 52.7052 42.2632 52.8545ZM46.5163 49.3186C46.4565 49.3382 46.4049 49.378 46.3697 49.4317V49.4317C46.2699 49.5841 46.3322 49.7929 46.4979 49.8606L46.6671 49.9298C46.7766 49.9746 46.8991 49.9704 47.0055 49.9182L47.1124 49.8657C47.312 49.7678 47.3718 49.5036 47.2348 49.3244V49.3244C47.1462 49.2085 46.9974 49.1613 46.8611 49.2059L46.5163 49.3186ZM48.2019 51.2525C48.0757 51.2158 47.94 51.2462 47.8398 51.3336V51.3336C47.6597 51.4906 47.6517 51.7745 47.8225 51.9421L47.8475 51.9666C47.9437 52.061 48.0768 52.1037 48.2077 52.0823L48.5673 52.0235C48.7812 51.9885 48.9025 51.751 48.8098 51.5487V51.5487C48.7696 51.4611 48.6947 51.3958 48.6045 51.3695L48.2019 51.2525ZM49.742 53.4729C49.2443 53.4729 48.8848 53.509 48.6636 53.5814C48.3871 53.6537 48.1659 53.8527 48 54.1783C47.8894 54.4315 47.9724 54.5943 48.2489 54.6667C48.4701 54.739 48.7742 54.8656 49.1613 55.0465C49.5484 55.2274 49.9355 55.2274 50.3226 55.0465C50.6544 54.8656 50.9033 54.739 51.0692 54.6667C51.2351 54.5943 51.2627 54.4315 51.1521 54.1783C51.0319 53.9686 50.9117 53.8159 50.7915 53.7201C50.7071 53.6529 50.6103 53.602 50.5095 53.5664C50.3331 53.504 50.0772 53.4729 49.742 53.4729ZM48.2489 46.093C48.1936 46.3101 48.3871 46.4729 48.8295 46.5814C49.2166 46.6899 49.5208 46.6718 49.742 46.5271C49.9632 46.3824 49.9632 46.1835 49.742 45.9302C49.6785 45.8472 49.6241 45.7761 49.5789 45.7168C49.5218 45.6421 49.4626 45.5644 49.3782 45.5263C49.2776 45.4809 49.15 45.4708 48.9954 45.4961C48.553 45.5685 48.3042 45.7674 48.2489 46.093ZM51.1315 49.7643C51.0375 49.7413 50.9386 49.752 50.8513 49.7949L50.7933 49.8233C50.5611 49.9373 50.5042 50.2523 50.681 50.4451V50.4451C50.768 50.5399 50.8952 50.5835 51.0198 50.5613L51.4209 50.4897C51.5939 50.4589 51.7108 50.2902 51.6834 50.1111V50.1111C51.6631 49.9782 51.5671 49.8712 51.4404 49.8401L51.1315 49.7643ZM54.9678 49.2946C54.7215 49.3176 54.5199 49.3479 54.3632 49.3856C54.2107 49.4222 54.0515 49.4553 53.9183 49.5403C53.8572 49.5792 53.8025 49.6305 53.754 49.6942C53.6626 49.8143 53.6218 49.9667 53.607 50.1188C53.5897 50.2974 53.6009 50.4387 53.6406 50.5426C53.6959 50.6873 53.9171 50.832 54.3042 50.9767C54.5785 51.0793 54.7973 51.1092 54.9605 51.0664C55.0864 51.0334 55.172 50.921 55.2676 50.8301C55.3787 50.7244 55.5276 50.6105 55.7143 50.4884C55.8448 50.4243 55.9561 50.3666 56.0481 50.3152C56.1589 50.2532 56.2855 50.1758 56.2943 50.0459C56.2996 49.9689 56.2722 49.8813 56.212 49.7829C55.9355 49.4212 55.5208 49.2584 54.9678 49.2946ZM54.4701 44.6822C54.083 44.7907 53.9171 44.9354 53.9724 45.1163C54.0277 45.2972 54.083 45.5323 54.1383 45.8217C54.1936 46.0749 54.2489 46.2739 54.3042 46.4186C54.3595 46.5271 54.5807 46.6176 54.9678 46.6899C55.4655 46.7261 55.8526 46.7442 56.1291 46.7442C56.4056 46.7442 56.6544 46.5995 56.8756 46.3101C57.0968 46.0568 57.0968 45.876 56.8756 45.7674C56.5991 45.6589 56.295 45.4961 55.9632 45.2791C55.7345 45.1295 55.5584 44.9971 55.4348 44.8819C55.3383 44.7919 55.2525 44.6814 55.1281 44.6427C54.9646 44.5919 54.7453 44.605 54.4701 44.6822Z" fill="url(#paint2_linear_30_768)"/>
<defs>
<linearGradient id="paint0_linear_30_768" x1="57.5" y1="3" x2="-2.43503" y2="64.5613" gradientUnits="userSpaceOnUse">
<stop stop-color="#05BCDB"/>
<stop offset="1" stop-color="#010829"/>
</linearGradient>
<linearGradient id="paint1_linear_30_768" x1="51.5" y1="19.5" x2="12.6255" y2="57.0391" gradientUnits="userSpaceOnUse">
<stop stop-color="#05BCDB"/>
<stop offset="1" stop-color="#010829"/>
</linearGradient>
<linearGradient id="paint2_linear_30_768" x1="65.5" y1="30" x2="14.8279" y2="68.1927" gradientUnits="userSpaceOnUse">
<stop stop-color="#05BCDB"/>
<stop offset="1" stop-color="#010829"/>
</linearGradient>
</defs>
</svg>
