<svg width="1445" height="301" viewBox="0 0 1445 301" fill="none" xmlns="http://www.w3.org/2000/svg">
<path d="M61.9195 291.298C43.7462 209.351 25.4562 127.831 7.04954 46.7377C66.1829 46.0643 125.336 45.3143 184.51 44.4877C202.236 124.094 219.85 204.124 237.35 284.578C219.036 283.998 200.72 283.418 182.4 282.838C168.546 224.811 154.593 167.154 140.54 109.868C121.373 111.768 102.213 113.651 83.0595 115.518C96.7729 172.678 110.38 230.244 123.88 288.218C103.226 289.251 82.5729 290.278 61.9195 291.298Z" fill="#FEFEFE"/>
<path d="M227.04 40.2277C246.08 122.234 265 204.698 283.8 287.618C303.993 285.418 324.193 283.201 344.4 280.968C338.16 255.368 331.896 229.841 325.61 204.388C337.516 202.808 349.42 201.221 361.32 199.628C362.093 193.768 362.863 187.908 363.63 182.048C363.076 175.281 362.52 168.514 361.96 161.748C357.993 158.694 354.023 155.644 350.05 152.598C346.056 150.451 342.063 148.301 338.07 146.148C328.343 146.101 318.616 146.051 308.89 145.998C306.676 136.664 304.46 127.331 302.24 117.998C302.366 109.378 302.49 100.751 302.61 92.1177C314.723 92.0577 326.833 91.9977 338.94 91.9377C342.78 103.984 346.616 116.044 350.45 128.118C355.01 136.298 359.57 144.488 364.13 152.688C366.81 162.501 369.49 172.321 372.17 182.148C381.343 184.221 390.513 186.301 399.68 188.388C404.013 180.728 408.346 173.061 412.68 165.388C410.466 149.581 408.253 133.781 406.04 117.988C401.126 102.401 396.21 86.8243 391.29 71.2577C371.79 60.3643 352.276 49.5177 332.75 38.7177C297.516 39.2177 262.28 39.721 227.04 40.2277Z" fill="#FEFEFE"/>
<path d="M444.17 101.728C449.77 83.4277 455.38 65.0943 461 46.7277C467.973 43.7277 474.95 40.7243 481.93 37.7177C486.963 45.8577 491.993 54.0077 497.02 62.1677C498.72 68.721 500.416 75.281 502.11 81.8477C503.136 88.4143 504.16 94.9843 505.18 101.558C504.96 110.871 504.743 120.181 504.53 129.488C508.516 145.214 512.503 160.958 516.49 176.718C518.063 187.724 519.636 198.734 521.21 209.748C528.33 212.801 535.446 215.861 542.56 218.928C551.966 217.434 561.37 215.941 570.77 214.448C569.616 194.841 568.456 175.244 567.289 155.658C563.696 139.218 560.096 122.791 556.49 106.378C548.763 99.591 541.033 92.8177 533.299 86.0577C523.099 76.591 512.896 67.1477 502.69 57.7277C498.836 49.7343 494.98 41.7477 491.12 33.7677C511.186 33.4743 531.25 33.1843 551.31 32.8977C562.056 40.871 572.796 48.8677 583.529 56.8877C591.176 66.461 598.823 76.0477 606.469 85.6477C611.396 101.628 616.32 117.628 621.24 133.648C625.52 148.401 629.793 163.171 634.06 177.958C633.693 190.478 633.329 202.994 632.969 215.508C630.856 224.814 628.746 234.118 626.64 243.418C615.706 251.931 604.779 260.424 593.859 268.898C583.913 272.524 573.973 276.144 564.039 279.758C552.239 277.944 540.44 276.138 528.64 274.338C518.42 269.284 508.196 264.244 497.97 259.218C489.976 251.178 481.98 243.154 473.98 235.148C468.566 222.868 463.15 210.611 457.73 198.378C453.216 166.118 448.696 133.901 444.17 101.728Z" fill="#FEFEFE"/>
<path d="M832.83 103.528C811.756 105.501 790.683 107.461 769.61 109.408C768.143 108.074 766.676 106.741 765.21 105.408C763.283 97.9677 761.353 90.531 759.42 83.0977C755.313 80.0777 751.21 77.0577 747.11 74.0377C737.95 76.191 728.793 78.341 719.64 80.4877C717.98 90.1543 716.323 99.821 714.67 109.488C715.723 118.574 716.773 127.668 717.82 136.768C719.58 144.548 721.34 152.331 723.1 160.118C723.246 170.931 723.393 181.748 723.54 192.568C731.68 199.521 739.816 206.488 747.95 213.468C757.096 210.374 766.24 207.271 775.38 204.158C778.84 196.158 782.303 188.151 785.77 180.138C794.03 178.684 802.29 177.231 810.55 175.778C822.243 176.858 833.933 177.941 845.62 179.028C846.206 190.274 846.79 201.524 847.37 212.778C842.67 221.998 837.976 231.208 833.29 240.408C825.576 245.654 817.866 250.891 810.16 256.118C804.7 259.258 799.24 262.394 793.78 265.528C782.44 265.248 771.096 264.964 759.75 264.678C746.956 262.838 734.16 261.001 721.36 259.168C708.553 247.121 695.736 235.114 682.91 223.148C677.623 210.061 672.333 196.994 667.04 183.948C665.01 173.398 660.68 151.778 659.54 149.518C658.11 146.698 652.19 125.868 652.22 124.748C652.25 123.848 650.73 107.128 649.97 98.8977C652.05 85.4043 654.133 71.901 656.22 58.3877C665.46 47.961 674.706 37.5143 683.96 27.0477C699.02 25.121 714.083 23.191 729.15 21.2577C746.543 25.3577 763.933 29.4777 781.32 33.6177C790.526 40.011 799.733 46.4177 808.94 52.8377C816.913 69.6977 824.876 86.5943 832.83 103.528Z" fill="#FEFEFE"/>
<path d="M903.24 82.2777C915.693 140.238 928.09 198.414 940.43 256.808C960.423 254.301 980.416 251.781 1000.41 249.248C989.43 193.274 978.403 137.491 967.33 81.8977C984.876 80.611 1002.42 79.3143 1019.97 78.0077C1015.97 57.7877 1011.96 37.6043 1007.93 17.4577C951.936 18.3377 895.94 19.2143 839.94 20.0877C843.72 40.8877 847.493 61.7177 851.26 82.5777C868.586 82.4777 885.913 82.3777 903.24 82.2777Z" fill="#FEFEFE"/>
<path d="M1062.98 41.7277C1070.91 33.8277 1078.85 25.921 1086.79 18.0077C1096 23.0743 1105.2 28.1577 1114.4 33.2577C1113.89 44.131 1113.39 55.011 1112.88 65.8977C1114.7 80.8243 1116.52 95.7677 1118.33 110.728C1121.23 127.341 1124.13 143.974 1127.02 160.628C1126.79 165.294 1126.57 169.961 1126.34 174.628C1137.83 179.621 1149.32 184.631 1160.8 189.658C1167.74 184.824 1174.68 179.984 1181.63 175.138C1179.36 156.891 1177.08 138.664 1174.8 120.458C1171.98 106.171 1169.15 91.901 1166.32 77.6477C1156.2 71.221 1146.08 64.8143 1135.95 58.4277C1130.41 51.0077 1124.87 43.601 1119.32 36.2077C1119.72 27.5543 1120.12 18.901 1120.52 10.2477C1138.29 12.3743 1156.05 14.5077 1173.82 16.6477C1184.14 26.2343 1194.45 35.851 1204.76 45.4977C1210.43 53.2043 1216.11 60.9243 1221.78 68.6577C1224.67 78.0843 1227.55 87.521 1230.42 96.9677C1234.5 112.421 1238.57 127.901 1242.63 143.408C1241.98 155.821 1241.33 168.234 1240.68 180.648C1235.19 192.794 1229.7 204.921 1224.22 217.028C1216.66 224.114 1209.1 231.188 1201.55 238.248C1187.06 240.421 1172.57 242.584 1158.08 244.738C1145.01 242.024 1131.93 239.321 1118.85 236.628C1107.07 227.501 1095.28 218.401 1083.49 209.328C1080.37 200.814 1077.25 192.311 1074.13 183.818C1070.68 174.931 1067.24 166.051 1063.79 157.178C1061.54 136.491 1059.29 115.828 1057.04 95.1877C1059.02 77.361 1061 59.541 1062.98 41.7277Z" fill="#FEFEFE"/>
<path d="M1294.78 230.688C1282.02 156.374 1269.13 82.5477 1256.1 9.20765C1287.65 8.68099 1319.2 8.15432 1350.75 7.62766C1363.6 10.1077 1376.44 12.601 1389.28 15.1077C1390.31 20.9343 1391.34 26.7743 1392.36 32.6277C1384.45 38.5877 1376.55 44.541 1368.65 50.4877C1364.35 52.201 1360.05 53.9177 1355.74 55.6377C1345.97 55.731 1336.21 55.8243 1326.44 55.9177C1328.28 71.751 1330.11 87.611 1331.93 103.498C1340.66 103.478 1349.4 103.461 1358.14 103.448C1362.31 100.914 1366.49 98.3777 1370.66 95.8377C1370.99 89.9443 1371.33 84.0543 1371.66 78.1677C1371.57 70.601 1371.49 63.041 1371.4 55.4877C1377.41 50.401 1383.41 45.3077 1389.42 40.2077C1398.23 39.0677 1407.05 37.9277 1415.87 36.7877C1422.26 51.5477 1428.63 66.3543 1435 81.2077C1435.27 93.9477 1435.53 106.691 1435.8 119.438C1423.63 129.778 1411.46 140.108 1399.29 150.428C1380.94 151.588 1362.59 152.748 1344.24 153.908C1349.06 178.588 1353.87 203.294 1358.68 228.028C1337.37 228.928 1316.07 229.814 1294.78 230.688Z" fill="#FEFEFE"/>
<path d="M68.8295 300.938C66.7695 301.008 64.7895 300.178 62.8795 298.438C60.9195 296.448 59.5895 293.918 58.8895 290.868C39.5795 209.788 20.0095 129.638 0.389537 49.7277C-0.270463 47.0377 -0.0904629 44.6677 0.919537 42.6677C1.94954 40.6677 3.51954 39.6577 5.59954 39.6177C63.4495 38.1877 121.34 36.5977 179.23 35.0077C181.33 34.9377 183.36 35.8677 185.34 37.7777C187.33 39.6977 188.63 41.9877 189.26 44.6777C207.85 123.998 226.37 203.578 244.63 284.068C245.24 286.798 245.02 289.208 243.97 291.258C242.92 293.318 241.37 294.388 239.32 294.468C220.99 295.198 202.66 295.918 184.33 296.638C182.28 296.728 180.28 295.788 178.33 293.848C176.38 291.908 175.08 289.548 174.46 286.798C161.43 230.058 148.22 173.818 134.89 117.808C119.57 118.268 104.23 118.718 88.8895 119.178C102.41 175.278 115.81 231.608 129.01 288.508C129.63 291.258 129.44 293.678 128.4 295.748C127.36 297.818 125.81 298.878 123.76 298.958C105.45 299.648 87.1395 300.308 68.8295 300.938ZM148.67 51.7177C148.09 50.0077 147.52 48.7977 146.96 48.0777C146.34 47.1077 145.44 46.5177 144.23 46.3077C142.85 46.1077 141.96 46.3777 141.56 47.1277C141.11 47.6177 140.76 48.6177 140.54 50.0977C140.17 52.5877 140.88 54.7877 142.69 56.7077C143.86 57.6577 144.72 58.0077 145.23 57.7477C145.67 57.2277 146.33 56.7277 147.16 56.2177C147.93 55.4377 148.45 54.8277 148.72 54.3177C149.17 53.7977 149.16 52.9577 148.67 51.7177ZM35.2695 51.8477C34.8195 52.3377 34.3595 52.8477 33.9095 53.3577C34.4095 54.2077 34.9095 55.0577 35.3995 55.9177C36.3495 56.2577 37.2995 56.6077 38.2395 56.9477C37.2495 55.2377 36.2595 53.5377 35.2695 51.8477ZM36.0395 65.5477C34.6895 62.3577 33.3795 60.1677 32.1295 58.9677C30.8795 57.7677 28.9995 57.0577 26.4595 56.8777C24.1295 56.6877 23.0095 57.5977 23.1195 59.5677C23.4095 61.5477 23.5095 63.8977 23.4195 66.6177C23.3295 68.6077 23.3495 70.2177 23.4595 71.4577C23.6995 72.4477 24.6595 73.6577 26.3595 75.1077C28.0495 76.5577 29.2495 77.1477 29.9295 76.8677C30.7595 76.3477 31.7895 75.4477 32.9995 74.1777C34.3495 72.6477 35.4995 71.4977 36.4495 70.7377C37.4095 69.9677 37.2695 68.2377 36.0395 65.5477ZM48.9595 57.4177C47.1995 56.4677 46.0095 56.2477 45.3595 56.7677C44.6695 57.0277 43.9195 57.9077 43.1395 59.4177C42.4295 61.1777 42.0195 62.6677 41.9395 63.8977C41.8095 64.8977 42.4495 66.3677 43.8795 68.3077C45.1195 70.2577 46.2195 71.2177 47.1595 71.1877C48.0595 70.9377 49.3295 70.6377 50.9795 70.3477C52.3695 69.8077 53.3895 69.2877 54.0395 68.7877C54.8595 68.2677 55.1095 66.8977 54.7595 64.6877C54.3995 62.4677 53.8595 60.9977 53.1095 60.2777C52.2895 59.3077 50.9095 58.3477 48.9595 57.4177ZM162.78 59.0977C161.54 57.9077 160.47 57.0677 159.6 56.5877C158.86 55.8777 158 55.9077 157.03 56.6677C155.88 57.4377 155.44 58.4477 155.73 59.6677C155.97 60.6477 156.38 61.9977 156.98 63.7077C157.63 65.6577 158.13 67.3777 158.48 68.8377C158.97 70.0577 160.02 70.8977 161.65 71.3477C163.42 71.5377 164.5 71.2577 164.9 70.5077C165.44 69.5077 165.81 67.8777 166.06 65.6677C166.27 64.1677 166.11 63.0677 165.55 62.3377C164.94 61.3777 164.01 60.2877 162.78 59.0977ZM111.31 62.3977C110.41 60.1977 109.4 59.2377 108.33 59.5177C107.25 59.7977 105.82 59.8377 104.05 59.6377C102.27 59.4377 100.76 59.1077 99.4995 58.6477C98.4295 58.1877 97.7595 58.9477 97.4595 60.9277C97.2395 63.1577 97.5195 64.7477 98.3295 65.7277C99.1395 66.6877 100.4 68.0077 102.15 69.6877C103.59 70.8977 104.69 71.4677 105.45 71.4477C106.2 71.4377 107.14 70.9277 108.23 69.8877C109.66 68.6177 110.68 67.7177 111.31 67.2177C112.09 66.4577 112.08 64.8477 111.31 62.3977ZM90.4195 67.4277C89.3195 65.2377 88.1595 64.0277 86.9595 63.8077C85.7695 63.5977 84.2095 63.5077 82.3095 63.5677C80.2195 63.6277 78.3795 63.5477 76.7995 63.3377C75.4095 63.1277 74.7595 64.3977 74.8395 67.1077C74.7495 69.8377 75.2195 71.8077 76.2695 73.0077C77.5295 74.2077 79.3095 75.6477 81.6195 77.3177C83.7495 78.9977 85.3195 79.9277 86.3295 80.1577C87.5195 80.3677 88.6595 79.5877 89.7695 77.8277C91.3095 76.2977 92.1395 74.9177 92.2095 73.6877C92.2395 72.1877 91.6395 70.1077 90.4195 67.4277ZM63.7295 80.3977C62.8095 78.9477 61.9895 78.3477 61.2995 78.6077C60.7895 78.8777 59.9595 79.0277 58.8195 79.0477C57.7495 79.3277 56.9095 79.4777 56.3595 79.4877C55.7795 79.5177 55.4895 80.2677 55.4795 81.7577C55.6995 83.4777 55.9395 84.8377 56.1795 85.8277C56.5495 86.5577 57.4195 87.3977 58.8095 88.3577C60.1195 89.0677 61.0195 89.2877 61.5395 89.0277C62.2395 88.7577 63.0095 87.9877 63.8495 86.7277C65.0695 84.7077 65.0395 82.5977 63.7295 80.3977ZM103.55 82.6477C102.55 82.0577 101.55 81.4677 100.55 80.8777C99.5995 81.2777 98.6395 81.6677 97.6695 82.0677C98.6395 83.2777 99.5995 84.4777 100.56 85.6977C101.32 85.6777 102.08 85.6577 102.84 85.6377C103.07 84.6377 103.31 83.6377 103.55 82.6477ZM79.1995 87.4277C78.1595 84.7177 76.5395 83.1477 74.3295 82.7177C72.3695 82.5277 71.1895 83.5577 70.7795 85.7877C70.4395 87.5377 70.1995 88.9077 70.0595 89.8977C70.1095 90.8977 70.7595 91.9877 72.0095 93.1977C73.2395 94.3977 74.2295 94.8777 74.9195 94.6077C75.5695 94.0877 76.4595 93.4377 77.5995 92.6677C78.5695 91.8977 79.1695 91.2577 79.4295 90.7577C79.8295 89.9977 79.7395 88.8877 79.1995 87.4277ZM161.42 87.2777C158.82 84.3977 156.67 82.5977 154.98 81.9077C153.42 80.9677 151.35 81.1577 148.8 82.4677C145.79 84.2777 143.39 85.8277 141.6 87.1277C139.98 88.4077 139.87 91.4977 141.23 96.4277C142.54 101.078 144.29 103.638 146.5 104.078C148.88 104.498 151.92 105.268 155.64 106.398C159.15 107.538 161.92 108.318 163.92 108.748C165.93 109.188 167.39 107.668 168.28 104.158C169.3 100.418 169.1 97.5777 167.69 95.6377C166.41 93.4577 164.31 90.6677 161.42 87.2777ZM180.7 81.5277C179.56 81.5677 178.61 81.5977 177.85 81.6077C177.29 81.6377 176.98 82.3877 176.94 83.8677C176.83 86.5777 177.83 88.7777 179.93 90.4477C181.12 91.4077 181.93 91.6377 182.38 91.1177C182.84 90.6077 183.42 89.8577 184.15 88.8377C185.06 87.8277 185.76 87.1877 186.27 86.9277C186.92 86.4077 186.84 85.3077 186.06 83.5977C185.34 82.1477 184.59 81.4177 183.83 81.4477C183.07 81.4577 182.03 81.4877 180.7 81.5277ZM99.9495 100.968C99.0395 98.0177 97.2795 96.2077 94.6295 95.5377C92.3495 94.8577 90.9495 95.7677 90.4095 98.2577C89.8895 100.018 89.6395 101.378 89.6895 102.388C89.8695 103.118 90.6195 104.218 91.9095 105.668C93.2295 107.118 94.2795 107.968 95.0995 108.178C95.8495 108.158 96.8095 107.768 97.9695 106.988C99.1095 106.198 99.8095 105.568 100.07 105.058C100.46 104.298 100.42 102.938 99.9495 100.968ZM51.5195 103.098C48.6695 98.4477 46.1395 96.6677 43.9195 97.7277C41.8295 98.5277 38.8495 99.2377 34.9895 99.8577C31.3995 100.708 28.4995 101.288 26.2795 101.608C24.2595 101.928 23.4395 104.428 23.8495 109.168C24.2395 113.898 25.6895 116.718 28.1995 117.638C30.6595 118.298 33.7595 119.698 37.5195 121.828C40.2095 123.498 42.2495 124.438 43.6395 124.648C45.2095 124.848 46.6695 123.798 48.0095 121.508C50.0095 117.968 51.7995 115.158 53.3895 113.118C54.9995 111.098 54.3695 107.748 51.5195 103.098ZM182.18 109.678C180.57 108.498 179.22 108.418 178.12 109.428C177.72 110.198 177.61 110.948 177.78 111.668C177.9 112.178 178.17 112.908 178.59 113.888C179.26 115.088 179.77 116.078 180.14 116.818C180.44 117.298 180.98 117.528 181.73 117.508C183.05 117.458 183.78 116.458 183.88 114.468C183.98 112.488 183.41 110.898 182.18 109.678ZM82.2195 137.688C80.6195 134.988 79.1995 133.418 77.9295 132.958C76.6795 132.488 74.9495 132.418 72.7495 132.738C70.5895 133.308 69.0395 133.968 68.0895 134.748C67.1395 135.528 66.8295 137.408 67.1695 140.388C67.3895 143.628 67.9695 145.978 68.8795 147.448C69.9995 148.928 71.7795 150.358 74.2195 151.788C76.4595 153.218 77.9395 153.418 78.6495 152.398C79.3495 151.378 80.2095 149.848 81.2495 147.828C82.5295 146.038 83.3995 144.508 83.8495 143.238C84.3195 141.988 83.7695 140.138 82.2195 137.688ZM199.58 132.578C198.85 131.118 197.73 130.408 196.22 130.458C195.08 130.488 194.5 131.258 194.48 132.748C194.24 134.228 193.94 135.368 193.55 136.118C193.35 136.878 193.83 137.728 195 138.688C196.19 139.628 196.99 139.868 197.45 139.358C198.09 138.848 198.77 138.068 199.49 137.058C200.38 136.028 200.41 134.538 199.58 132.578ZM39.1195 141.248C37.7495 139.548 36.6695 138.218 35.8595 137.238C35.2395 136.258 34.2195 136.048 32.8295 136.588C31.5695 137.628 30.8995 138.768 30.8295 140.018C30.8795 141.008 31.1795 142.638 31.7195 144.858C32.2595 147.088 32.8495 148.698 33.4795 149.678C34.2795 150.648 35.5995 151.358 37.4195 151.808C38.8595 152.248 39.6495 151.988 39.7795 150.978C40.1095 149.968 40.5595 148.698 41.1395 147.188C41.5995 145.168 40.9295 143.198 39.1195 141.248ZM156.99 145.858C156.38 144.868 155.79 144.408 155.23 144.428C154.85 144.428 154.22 144.578 153.32 144.848C152.44 145.128 151.75 145.398 151.24 145.668C150.73 145.928 150.62 146.678 150.91 147.918C151.32 150.408 152.48 152.098 154.41 153.038C155.47 153.508 156.14 153.478 156.4 152.978C156.67 152.468 157.04 151.708 157.57 150.688C158.23 148.668 158.04 147.058 156.99 145.858ZM189.22 149.308C188.8 149.938 188.38 150.578 187.96 151.228C188.12 152.328 188.29 153.448 188.46 154.568C189.3 154.538 190.16 154.508 191 154.488C191.18 153.598 191.35 152.728 191.52 151.848C190.76 150.998 189.99 150.158 189.22 149.308ZM179.07 161.968C177.33 160.278 175.94 159.208 174.88 158.738C174.01 158.268 172.87 158.678 171.46 159.968C169.86 161.278 168.74 162.548 168.09 163.808C167.38 164.838 167.54 166.708 168.56 169.418C169.82 172.378 171.07 174.458 172.3 175.658C173.48 176.628 175.25 177.308 177.63 177.738C179.77 177.918 180.88 177.378 180.97 176.128C181.17 174.618 181.47 172.618 181.83 170.108C182.18 168.358 182.14 166.968 181.72 165.998C181.44 164.758 180.54 163.418 179.07 161.968ZM86.9795 172.778C86.0795 172.168 85.1795 171.568 84.2795 170.978C83.7295 171.868 83.1895 172.768 82.6395 173.658C83.4195 174.878 84.1895 176.108 84.9595 177.338C85.9695 177.178 86.9695 177.018 87.9795 176.868C87.6495 175.488 87.3195 174.128 86.9795 172.778ZM80.6295 192.518C75.0895 189.178 71.0395 188.168 68.5195 189.508C65.9295 190.588 63.2695 193.678 60.5195 198.778C58.0895 202.868 57.6395 206.518 59.1695 209.728C60.8895 212.958 63.3595 217.268 66.5495 222.718C69.4395 227.668 71.8095 231.238 73.6595 233.458C75.6995 235.658 78.7295 236.448 82.7395 235.828C88.0195 234.898 92.1495 234.008 95.1695 233.168C98.1795 232.308 99.3895 228.238 98.7995 220.958C98.2195 212.918 96.5695 207.198 93.8495 203.768C91.3195 200.338 86.9095 196.588 80.6295 192.518ZM212.66 191.158C211.77 188.958 210.79 187.978 209.72 188.268C208.58 188.308 207.02 188.118 205.03 187.678C203.08 187.488 201.99 188.538 201.76 190.798C201.41 192.548 201.07 193.928 200.73 194.948C200.58 195.958 201.25 197.178 202.73 198.638C204.63 200.328 206.04 201.518 206.98 202.238C208.08 202.938 209.43 202.638 211.03 201.338C212.63 200.038 213.47 198.758 213.57 197.508C213.79 195.998 213.49 193.888 212.66 191.158ZM185.15 197.728C184.07 197.138 182.98 196.538 181.89 195.958C181.44 196.848 180.99 197.738 180.53 198.638C180.88 200.128 181.22 201.618 181.57 203.118C182.86 202.938 184.16 202.768 185.44 202.608C185.35 200.978 185.26 199.348 185.15 197.728ZM203.41 223.788C199.18 219.418 195.92 215.888 193.58 213.218C191.2 210.298 188.24 210.158 184.67 212.788C180.8 215.668 179.08 218.868 179.51 222.368C180.14 225.868 181.47 230.828 183.54 237.298C185.53 243.518 187.37 248.228 189.06 251.448C190.92 254.638 194.34 256.778 199.31 257.848C204.1 258.928 206.93 258.078 207.8 255.268C208.61 252.218 209.53 247.918 210.53 242.348C211.42 238.038 211.25 234.788 209.99 232.578C208.85 230.098 206.67 227.178 203.41 223.788ZM108.92 248.228C107.69 246.998 106.64 246.158 105.77 245.678C105.09 245.188 104.31 245.478 103.41 246.528C102.53 247.558 102.11 248.588 102.16 249.588C102.39 250.598 102.9 251.968 103.68 253.708C104.95 256.688 106.65 258.288 108.77 258.468C111.26 258.628 112.62 257.198 112.87 254.158C112.88 252.638 112.52 251.508 111.79 250.778C111.24 250.048 110.27 249.188 108.92 248.228ZM63.4895 252.668C62.1995 251.958 61.1295 251.478 60.3295 251.248C59.4495 250.758 58.6895 251.158 58.0495 252.438C57.4095 253.718 57.4895 254.848 58.2995 255.838C59.0395 256.578 59.8695 257.698 60.7895 259.188C61.6395 260.428 62.3595 261.438 62.9095 262.168C63.3995 262.668 64.1895 262.768 65.2495 262.488C66.9995 261.938 67.6795 260.398 67.2695 257.868C66.9295 255.618 65.6595 253.868 63.4895 252.668ZM94.6095 252.498C93.1995 251.268 92.2895 251.058 91.9095 251.818C91.5195 252.598 90.8495 253.368 89.8995 254.168C89.0195 255.208 88.2595 255.988 87.6295 256.508C87.1195 256.778 87.1595 257.778 87.7595 259.538C88.4895 261.038 89.2095 262.028 89.8795 262.518C90.5595 262.988 91.5895 263.348 92.9595 263.548C94.5195 263.758 95.6695 263.838 96.4095 263.818C97.2895 263.538 97.8095 262.508 97.9595 260.728C98.2495 258.698 98.0695 257.178 97.4795 256.188C97.0395 255.188 96.0895 253.958 94.6095 252.498Z" fill="url(#paint0_linear_19_42)"/>
<path d="M285.46 292.598C283.41 292.678 281.41 291.768 279.47 289.828C277.53 287.898 276.25 285.558 275.64 282.828C257.54 202.478 239.21 122.998 220.8 43.7877C220.17 41.1177 220.4 38.7577 221.47 36.7677C222.54 34.7777 224.13 33.7577 226.21 33.6877C255.08 32.8777 283.94 32.0677 312.79 31.2577C330.13 30.7677 345.91 33.6177 360.14 39.7977C374.51 45.7177 386.7 55.2377 396.72 68.3777C406.86 81.2577 414.16 97.7777 418.64 117.968C423.11 138.198 423.18 154.928 418.86 168.158C414.69 181.148 406.87 190.968 395.4 197.598C384.08 203.978 369.87 207.498 352.75 208.168C346.16 208.418 339.57 208.658 332.98 208.908C338.24 232.488 343.48 256.128 348.68 279.828C349.27 282.538 349.04 284.928 347.98 286.988C346.92 289.038 345.36 290.098 343.29 290.178C324.02 290.998 304.74 291.798 285.46 292.598ZM299.07 46.6977C298.22 46.7177 297.36 46.7477 296.49 46.7777C295.86 47.7677 295.23 48.7677 294.6 49.7677C295.75 50.2177 296.91 50.6777 298.07 51.1377C299.19 50.9677 300.3 50.8177 301.42 50.6577C300.64 49.3277 299.86 48.0177 299.07 46.6977ZM279.89 64.5477C276.85 60.4677 274.34 57.4677 272.38 55.5677C270.34 53.4077 267.69 53.1277 264.42 54.6977C260.94 56.2677 259.46 58.5277 259.95 61.4577C260.57 64.1377 261.34 67.9277 262.27 72.8177C263.17 77.4777 264.01 81.1377 264.81 83.8377C265.62 86.5077 267.94 88.6577 271.75 90.2677C276.37 92.0977 279.79 92.8577 282.01 92.5377C284.42 92.2177 286.43 89.6877 288.02 84.9677C289.54 80.7377 289.35 77.4177 287.46 75.0177C285.71 72.3677 283.18 68.8777 279.89 64.5477ZM349.05 58.0777C347.12 57.1477 345.73 56.9477 344.89 57.4577C344.18 57.7377 343.45 58.7377 342.69 60.4777C341.89 61.9677 341.78 63.1977 342.39 64.1577C343.11 64.8677 344.05 66.0777 345.21 67.7477C345.91 69.1877 346.51 70.1477 347.01 70.6277C347.67 71.0977 348.66 71.1977 349.93 70.9077C351.34 70.3677 352.4 69.9677 353.11 69.7177C354.01 69.4377 354.33 68.3177 354.08 66.3577C353.77 64.1777 353.3 62.4677 352.64 61.2677C351.99 60.0777 350.79 58.9977 349.05 58.0777ZM317.48 70.7977C315.68 69.6077 314.29 69.7877 313.28 71.2777C312.35 73.0277 312.48 74.8677 313.68 76.7877C314.89 78.7177 315.76 80.4377 316.28 81.8877C316.75 83.0877 317.81 83.5577 319.46 83.2477C321.11 82.9577 321.99 82.1877 322.09 80.9577C322.2 79.7277 322.2 78.0177 322.06 75.8077C321.92 74.3477 321.41 73.3777 320.55 72.9077C319.81 72.1977 318.8 71.4877 317.48 70.7977ZM340.76 75.9677C340.24 75.3577 339.72 74.7677 339.19 74.1777C338.74 74.6777 338.29 75.1877 337.81 75.6977C338.08 76.4177 338.34 77.1477 338.6 77.8677C339.47 78.3277 340.34 78.7977 341.22 79.2777C341.06 78.1677 340.91 77.0577 340.76 75.9677ZM246.2 81.4377C244.62 81.2277 243.64 81.5077 243.24 82.2577C242.78 82.7677 242.37 83.8877 242.01 85.6277C241.73 86.8677 241.86 87.8576 242.41 88.5676C242.95 89.2976 243.76 90.2577 244.79 91.4577C246.03 92.6577 246.92 93.6277 247.46 94.3377C248.21 95.0677 249.06 95.0277 250.03 94.2577C251.24 93.7377 251.74 92.9777 251.51 91.9877C251.48 91.0177 251.16 89.6677 250.58 87.9677C249.94 86.0077 249.4 84.5377 248.99 83.5777C248.57 82.5877 247.64 81.8877 246.2 81.4377ZM353.58 94.7077C352.84 94.3577 352.09 94.0177 351.34 93.6777C350.89 94.1777 350.44 94.6877 349.96 95.1877C350.27 96.5277 350.57 97.8777 350.88 99.2177C351.99 99.0577 353.1 98.8977 354.2 98.7477C354 97.3977 353.8 96.0477 353.58 94.7077ZM383.59 98.1577C382.15 95.9977 380.9 94.6877 379.84 94.2377C378.93 93.5277 377.59 93.5777 375.86 94.3577C374.26 94.8977 373.29 95.6677 372.94 96.6677C372.59 97.6477 372.6 99.3876 372.95 101.818C373.2 103.768 373.76 104.988 374.62 105.448C375.68 105.908 376.95 106.478 378.44 107.168C380.12 107.848 381.4 107.188 382.3 105.198C382.92 103.698 383.52 102.588 384.12 101.818C384.9 101.058 384.72 99.8377 383.59 98.1577ZM291.62 98.1577C290.29 98.1877 289.63 99.0677 289.64 100.798C289.47 102.528 289.96 103.878 291.14 104.818C292.05 105.538 292.77 106.118 293.26 106.598C293.94 107.068 294.68 106.928 295.44 106.158C296.18 105.158 296.64 104.268 296.85 103.528C297.06 102.778 296.82 101.678 296.1 100.218C295.57 98.7577 294.94 98.0476 294.17 98.0676C293.6 98.0976 292.75 98.1177 291.62 98.1577ZM316.19 140.668C322.81 140.438 329.43 140.218 336.05 139.998C339.07 139.888 341.67 138.328 343.83 135.278C345.96 131.998 346.22 126.818 344.62 119.718C343.57 115.078 341.57 110.468 338.63 105.888C335.87 101.298 331.94 99.0777 326.82 99.2477C320.18 99.4577 313.54 99.6677 306.9 99.8777C310.01 113.458 313.1 127.058 316.19 140.668ZM366.1 110.898C362.65 110.768 360.68 111.798 360.23 114.038C359.72 116.018 359.24 118.988 358.79 122.948C358.6 127.138 358.58 130.468 358.75 132.928C359.11 135.378 360.92 137.898 364.17 140.498C367.66 143.338 370.37 144.858 372.32 145.038C374.45 145.198 376.83 143.888 379.44 141.078C382.05 138.278 383.47 135.638 383.69 133.188C384.08 130.698 383.2 127.168 381.03 122.568C378.99 117.708 376.95 114.578 374.91 113.178C373.07 111.768 370.13 110.998 366.1 110.898ZM273.68 123.528C272.29 120.858 271.06 119.168 269.93 118.448C268.82 117.758 267.25 117.558 265.22 117.868C263.38 118.178 262.32 118.948 262.03 120.178C261.88 121.188 261.9 122.918 262.08 125.388C262.09 127.848 262.23 129.698 262.51 130.938C262.99 132.158 264.12 133.378 265.91 134.538C267.71 135.718 268.92 136.048 269.57 135.538C270.35 134.778 271.33 133.628 272.5 132.098C273.48 130.588 274.24 129.318 274.78 128.308C275.3 127.318 274.93 125.708 273.68 123.528ZM295.14 129.878C294.01 128.188 292.98 127.468 292.09 127.748C291.14 127.778 289.94 127.948 288.48 128.238C286.7 128.798 285.11 128.958 283.74 128.768C282.36 128.568 281.79 129.818 282.04 132.528C282.46 135.228 283.3 136.808 284.55 137.268C285.79 137.728 287.5 138.528 289.67 139.708C291.41 140.628 292.77 141.198 293.79 141.418C294.78 141.628 295.65 140.858 296.41 139.098C297.14 137.348 297.4 135.978 297.17 134.988C297.08 133.768 296.4 132.058 295.14 129.878ZM401.81 138.828C401.28 137.738 400.76 136.648 400.22 135.568C399.82 136.308 399.42 137.058 399.01 137.818C399.01 138.678 399.02 139.538 399.02 140.398C399.96 139.878 400.88 139.348 401.81 138.828ZM392.35 155.428C389.11 152.828 386.51 151.438 384.57 151.258C382.63 151.088 380.51 152.278 378.22 154.818C375.75 157.378 374.19 159.778 373.54 162.038C373.09 164.268 373.86 167.708 375.84 172.328C377.58 176.718 379.42 179.008 381.35 179.168C383.43 179.098 386.18 179.118 389.63 179.238C392.71 179.378 394.85 179.168 396.06 178.628C397.41 177.848 398.24 175.588 398.56 171.868C398.83 167.898 398.62 164.828 397.95 162.628C397.27 160.428 395.4 158.028 392.35 155.428ZM326.75 159.608C325.89 157.408 324.98 155.948 324.05 155.248C323.33 154.518 322.07 154.078 320.33 153.888C318.76 153.698 317.92 154.218 317.82 155.458C317.67 156.458 317.5 157.828 317.33 159.558C317.26 161.798 317.09 163.538 316.79 164.778C316.7 166.038 317.44 167.238 319.04 168.418C320.93 170.088 322.39 171.038 323.39 171.248C324.51 171.218 325.76 170.418 327.13 168.888C328.37 167.608 328.85 166.338 328.57 165.118C328.48 163.878 327.88 162.038 326.75 159.608ZM284.93 161.428C284.17 161.448 283.42 161.468 282.65 161.508C282.32 162.498 281.98 163.508 281.64 164.518C282.8 165.458 283.98 166.408 285.14 167.368C285.56 166.228 285.96 165.108 286.37 163.978C285.88 163.118 285.4 162.278 284.93 161.428ZM265.61 164.308C264.97 163.958 264.32 163.608 263.66 163.268C262.95 163.908 262.24 164.558 261.53 165.208C262.49 166.028 263.44 166.868 264.4 167.718C265.37 167.808 266.34 167.888 267.31 167.988C266.74 166.748 266.18 165.528 265.61 164.308ZM357.46 166.678C356.77 166.948 356.06 167.218 355.35 167.508C355.58 168.488 355.79 169.468 356.02 170.458C356.8 170.548 357.58 170.638 358.36 170.728C358.8 170.098 359.22 169.468 359.65 168.838C358.92 168.118 358.19 167.398 357.46 166.678ZM319.32 178.468C318.39 176.878 317.46 175.298 316.53 173.728C315.53 174.758 314.52 175.778 313.51 176.808C313.94 178.648 314.35 180.508 314.77 182.348C315.91 181.938 317.05 181.518 318.2 181.108C318.58 180.228 318.94 179.338 319.32 178.468ZM292.59 177.548C291.5 176.098 290.57 175.378 289.82 175.408C289.01 175.188 288.03 175.468 286.88 176.258C285.34 177.048 284.08 177.718 283.06 178.258C282.17 178.538 281.98 179.788 282.49 182.008C283.06 184.478 283.88 186.068 285 186.768C286.04 187.228 287.5 187.808 289.37 188.478C290.98 188.918 291.91 188.758 292.11 188.018C292.51 187.248 292.93 186.118 293.33 184.608C293.93 183.088 294.25 181.968 294.28 181.218C294.44 180.228 293.87 178.988 292.59 177.548ZM347.4 180.428C345.89 178.738 344.66 177.428 343.68 176.478C342.69 175.508 341.5 175.678 340.07 176.968C338.6 178.018 337.93 179.268 338.07 180.758C338.35 181.998 338.86 183.838 339.6 186.298C340.53 188.738 341.26 190.698 341.77 192.158C342.42 193.398 343.74 194.198 345.73 194.628C347.68 194.808 348.69 194.268 348.8 193.028C348.85 191.548 349 189.678 349.26 187.428C349.68 185.928 349.78 184.678 349.57 183.698C349.34 182.708 348.63 181.618 347.4 180.428ZM310.28 197.808C309.12 196.858 307.94 195.898 306.78 194.948C306.23 195.828 305.67 196.718 305.11 197.618C305.23 198.988 305.35 200.348 305.46 201.718C306.74 201.918 308.03 202.118 309.3 202.328C309.63 200.808 309.95 199.298 310.28 197.808ZM296.65 214.378C295.8 213.538 294.94 212.698 294.08 211.858C293.61 212.628 293.12 213.388 292.62 214.148C292.77 215.638 292.91 217.128 293.05 218.628C294.28 218.588 295.5 218.538 296.73 218.498C296.7 217.118 296.67 215.748 296.65 214.378ZM313.09 224.238C310.75 223.088 308.85 222.278 307.43 221.838C306 221.398 304.87 222.308 304.07 224.578C302.87 226.878 302.57 228.888 303.14 230.618C303.71 232.338 304.97 234.538 306.9 237.218C308.33 239.418 309.61 240.488 310.74 240.438C311.86 240.398 313.38 239.958 315.29 239.148C317.05 238.568 318.22 237.898 318.8 237.118C319.59 236.358 319.78 234.728 319.42 232.238C319.06 229.748 318.38 228.028 317.41 227.068C316.44 226.108 315 225.168 313.09 224.238ZM296.55 231.618C294.6 229.688 293.03 228.618 291.84 228.418C290.61 227.968 289.19 228.398 287.59 229.698C286.04 231.258 285.25 232.788 285.22 234.298C285.36 235.788 285.93 237.908 286.91 240.608C287.79 242.818 288.74 244.048 289.73 244.248C290.9 244.458 292.36 244.658 294.11 244.848C295.66 245.028 296.81 244.978 297.49 244.698C298.14 244.178 298.54 243.048 298.71 241.278C298.97 239.028 299.04 237.268 298.96 236.008C299 234.508 298.19 233.048 296.55 231.618ZM327.45 258.158C326.52 258.198 325.59 258.228 324.65 258.268C325.17 259.378 325.7 260.488 326.23 261.598C327.03 262.188 327.82 262.778 328.61 263.378C329.27 262.468 329.92 261.568 330.57 260.668C329.54 259.828 328.5 258.988 327.45 258.158ZM300.21 264.518C298.48 263.578 297.49 263.738 297.19 264.998C296.54 266.288 296.87 267.778 298.19 269.478C299.38 271.448 300.61 272.278 301.87 271.968C302.88 271.428 303.23 270.038 302.92 267.788C302.54 266.048 301.62 264.958 300.21 264.518ZM333.81 267.658C333.32 268.438 332.83 269.208 332.33 269.978C332.6 270.708 332.86 271.458 333.11 272.198C334 272.778 334.88 273.368 335.77 273.968C336 272.828 336.22 271.688 336.44 270.568C335.57 269.598 334.7 268.628 333.81 267.658Z" fill="url(#paint1_linear_19_42)"/>
<path d="M565.52 283.878C547.15 284.758 530.26 281.828 514.83 275.108C499.58 268.368 486.35 257.798 475.13 243.418C464.01 228.788 455.71 210.568 450.22 188.798C445.07 167.788 440.36 146.318 436.1 124.358C432.14 102.938 432.5 84.6977 437.21 69.6677C441.92 54.6577 450.48 43.0977 462.86 34.9677C475.25 26.8477 490.8 22.5477 509.47 22.0177C528.14 21.4677 545.359 24.8077 561.109 32.0577C576.849 39.2977 590.27 50.0677 601.38 64.4077C612.66 78.7377 620.819 96.4377 625.849 117.538C630.969 139.158 635.41 160.338 639.19 181.098C642.91 202.648 642.249 220.988 637.219 236.158C632.339 251.098 623.699 262.568 611.339 270.538C599.159 278.528 583.88 282.988 565.52 283.878ZM528.93 45.3377C524.46 43.2877 520.9 41.4777 518.26 39.8577C515.6 38.2477 513.39 39.5177 511.62 43.6877C509.65 47.8577 509.72 51.2377 511.82 53.8477C514.11 56.4477 516.79 59.9877 519.88 64.5077C522.61 68.2777 524.83 71.0077 526.52 72.6477C528.16 74.0377 530.59 74.2077 533.81 73.1377C537.01 72.0677 538.57 70.4377 538.49 68.2677C538.55 65.8477 538.279 62.4577 537.729 58.1277C537.089 54.2677 536.2 51.5177 535.08 49.8477C533.95 48.1977 531.9 46.6877 528.93 45.3377ZM563.349 46.4477C561.379 45.2977 559.96 45.3377 559.08 46.5777C558.33 47.5677 557.75 48.4377 557.33 49.1577C557.11 49.9077 557.34 50.9777 558.02 52.3977C558.96 54.0577 559.74 55.0077 560.37 55.2377C561.12 55.2077 562.17 55.1677 563.5 55.1377C564.46 55.1077 564.949 54.7177 564.979 53.9877C565.009 53.2677 565.089 52.2977 565.219 51.0977C565.139 48.9277 564.509 47.3677 563.349 46.4477ZM491.2 60.6677C490.08 57.3077 488.64 55.5277 486.88 55.3477C485.11 55.1577 482.84 54.8677 480.08 54.4677C477.31 54.0577 475.04 53.7677 473.28 53.5777C471.7 53.3777 470.69 54.8777 470.24 58.0477C469.59 61.2177 470 63.5277 471.47 64.9377C473.06 66.0977 475.17 67.8677 477.78 70.1977C479.96 72.3277 481.71 73.7277 483.02 74.4177C484.31 75.1177 485.85 74.6977 487.62 73.1677C489.72 71.4077 491.18 69.7877 492 68.2977C492.84 66.8177 492.55 64.2677 491.2 60.6677ZM564.87 64.1377C563.82 63.6877 562.77 63.2377 561.71 62.7977C561.56 63.8777 561.41 64.9677 561.26 66.0777C561.75 67.0277 562.24 67.9677 562.75 68.9177C563.64 68.6477 564.54 68.3877 565.43 68.1077C565.24 66.7877 565.06 65.4577 564.87 64.1377ZM583.13 68.9777C581.26 68.3177 579.81 67.7677 578.75 67.3177C577.9 66.8577 577.059 67.4877 576.289 69.2077C575.509 70.9177 575.339 72.3777 575.789 73.5777C576.189 74.5177 577.069 75.9477 578.419 77.8377C579.359 79.4977 580.229 80.4477 581.039 80.6577C581.989 80.6177 583.1 80.4677 584.38 80.1777C585.61 79.6577 586.23 79.0377 586.27 78.3077C586.31 77.5677 586.24 76.3677 586.08 74.6777C585.95 73.2377 585.72 72.1477 585.39 71.4577C584.99 70.4877 584.23 69.6777 583.13 68.9777ZM467.29 78.5777C465.57 78.6377 464.36 78.7977 463.67 79.0577C462.96 79.3377 462.53 80.4377 462.39 82.3877C462.24 84.3477 462.46 85.8077 463.06 86.7677C463.79 87.4577 464.95 88.4177 466.54 89.5677C468.43 91.2177 469.89 92.6277 470.91 93.8177C472.07 94.7477 473.35 94.4677 474.75 92.9477C476.12 91.4477 476.57 89.9777 476.07 88.5277C475.55 87.0877 474.72 85.0377 473.57 82.3977C472.77 80.4677 471.86 79.3977 470.87 79.1977C470 78.7377 468.8 78.5377 467.29 78.5777ZM563.43 80.1577C562.63 80.4277 561.829 80.6977 561.029 80.9677C561.359 82.0477 561.68 83.1177 562 84.1877C562.84 84.5177 563.68 84.8577 564.52 85.2077C564.91 84.3377 565.3 83.4877 565.69 82.6177C564.94 81.7977 564.19 80.9677 563.43 80.1577ZM550.49 212.408C556.7 212.148 561.21 209.628 563.99 204.838C566.74 199.818 567.119 192.208 565.159 181.988C561.279 161.118 556.94 140.768 552.14 120.978C549.77 110.838 546.1 103.548 541.14 99.1077C536.3 94.4077 530.849 92.1777 524.779 92.3777C518.709 92.5877 514.3 95.1577 511.55 100.128C508.76 104.848 508.28 112.298 510.1 122.488C513.83 142.388 518.23 162.788 523.27 183.688C525.84 193.908 529.439 201.378 534.039 206.098C538.799 210.588 544.29 212.678 550.49 212.408ZM577.93 103.658C575.45 102.758 573.76 102.948 572.89 104.188C572.15 105.188 571.27 106.918 570.27 109.378C569.27 111.838 568.64 113.808 568.39 115.278C568.12 116.748 568.94 118.788 570.83 121.388C572.73 123.988 574.38 125.508 575.81 125.948C577.18 126.138 579.019 125.828 581.339 125.008C583.779 123.948 585.6 123.028 586.77 122.248C588.07 121.238 588.439 118.918 587.849 115.288C587.229 111.438 586.21 108.938 584.82 107.758C583.38 106.368 581.08 104.988 577.93 103.658ZM591.13 102.458C590.48 102.968 589.84 103.468 589.18 103.968C589.5 105.048 589.819 106.128 590.149 107.208C591.079 107.538 592 107.868 592.93 108.208C592.9 107.108 592.86 106.018 592.82 104.948C592.26 104.108 591.7 103.278 591.13 102.458ZM486.82 114.158C485.44 113.958 484.32 113.618 483.45 113.168C482.54 112.468 481.85 112.848 481.42 114.348C480.98 115.818 481.05 117.038 481.65 117.998C482.18 118.708 483.08 119.778 484.34 121.198C485.56 122.378 486.53 123.328 487.25 124.028C487.93 124.498 488.78 124.468 489.81 123.928C490.97 123.168 491.35 122.298 490.95 121.328C490.74 120.358 490.45 119.028 490.09 117.328C489.77 115.878 488.68 114.808 486.82 114.158ZM468.41 120.298C467.66 118.608 466.52 117.788 465 117.848C464.07 117.878 463.33 118.018 462.82 118.278C462.24 118.308 462 118.938 462.07 120.148C461.99 122.358 462.76 124.168 464.41 125.578C465.95 126.508 467.35 126.338 468.58 125.048C469.46 123.808 469.4 122.218 468.41 120.298ZM497.7 140.548C496.31 137.658 494.94 136.108 493.56 135.918C492.37 135.718 490.54 135.658 488.09 135.748C486.37 135.808 485.35 136.338 484.99 137.318C484.83 138.318 484.7 139.908 484.61 142.118C484.51 144.338 484.44 146.168 484.38 147.648C484.45 148.868 485.4 150.188 487.23 151.588C489.06 152.988 490.39 153.438 491.23 152.908C492.08 152.388 493.1 151.378 494.29 149.858C495.86 148.318 497.11 147.048 498.04 146.038C498.96 145.018 498.85 143.188 497.7 140.548ZM575.44 133.618C572.72 132.508 570.959 133.178 570.149 135.648C569.149 138.118 569.6 140.668 571.49 143.278C572.56 144.688 573.459 145.378 574.229 145.348C574.969 145.318 575.98 145.048 577.19 144.508C578.27 144.228 578.83 143.718 578.87 142.988C578.85 142.008 578.69 140.798 578.37 139.358C578.07 137.898 577.809 136.688 577.599 135.728C577.399 134.758 576.68 134.058 575.44 133.618ZM607.25 133.878C605.64 133.448 604.649 133.728 604.289 134.708C604.059 135.458 603.749 136.678 603.359 138.408C602.809 140.358 603.309 142.288 604.849 144.168C606.299 145.578 607.43 146.878 608.25 148.048C609.02 149.008 609.97 148.968 611.08 147.928C612.64 147.158 613.499 146.268 613.669 145.288C613.799 144.058 613.54 142.368 612.89 140.218C611.94 136.608 610.06 134.488 607.25 133.878ZM606.13 158.358C604.76 158.168 603.84 158.328 603.37 158.838C603.1 159.328 602.929 160.318 602.849 161.778C602.539 162.998 602.399 164.118 602.409 165.088C602.569 165.808 603.12 166.648 604.08 167.578C605.08 168.758 605.849 169.208 606.359 168.948C607.019 168.438 607.769 167.918 608.609 167.388C610.049 166.118 610.51 164.628 609.96 162.948C609.47 161.508 608.949 160.438 608.419 159.728C608.079 159.008 607.33 158.558 606.13 158.358ZM582.12 163.718C579.17 162.348 577.12 163.058 576 165.788C574.67 168.518 575.07 171.328 577.19 174.168C578.35 176.078 579.349 177.128 580.149 177.338C581.149 177.548 582.37 177.498 583.83 177.188C585.24 176.648 586.04 175.878 586.2 174.898C586.37 173.908 586.35 172.458 586.13 170.508C585.91 168.558 585.509 167.108 584.919 166.148C584.529 165.208 583.59 164.378 582.12 163.718ZM476.6 176.308C475 174.158 473.7 173.478 472.73 174.248C471.76 175.028 470.31 175.808 468.4 176.628C466.86 177.438 465.67 178.088 464.83 178.608C463.99 179.148 463.85 180.628 464.38 183.068C465.02 185.998 465.7 188.318 466.45 190.008C467.15 191.458 468.73 192.648 471.21 193.518C473.63 194.168 475.22 194.108 476.01 193.328C476.93 192.318 477.78 190.558 478.57 188.058C479.36 185.558 479.7 183.578 479.57 182.098C479.63 180.628 478.64 178.698 476.6 176.308ZM623.02 184.358C620.12 183.248 618.12 183.218 617 184.238C615.89 185.258 614.78 187.258 613.69 190.238C612.6 193.218 612.079 195.678 612.099 197.638C612.319 199.578 613.58 201.978 615.88 204.808C617.99 207.648 619.79 208.918 621.24 208.608C622.69 208.308 624.63 207.598 627.08 206.518C628.75 205.468 629.549 204.208 629.419 202.748C629.309 201.298 628.979 199.228 628.409 196.568C627.759 193.418 627.33 190.868 627.12 188.928C627.04 186.738 625.68 185.208 623.02 184.358ZM514.969 192.878C514.179 190.948 513.279 189.868 512.289 189.658C511.489 189.438 510.32 189.368 508.82 189.428C506.69 189.278 505.54 190.548 505.36 193.268C505.11 194.748 505.09 195.978 505.3 196.968C505.7 197.928 506.48 198.888 507.62 199.818C509.02 200.988 509.97 201.438 510.48 201.178C511.12 200.668 511.939 200.008 512.909 199.228C513.779 197.968 514.54 197.068 515.19 196.558C515.79 195.798 515.729 194.568 514.969 192.878ZM584.969 194.758C583.779 193.578 582.58 192.408 581.38 191.238C580.87 192.848 580.35 194.458 579.83 196.068C580.81 197.128 581.799 198.198 582.779 199.268C584.009 199.208 585.23 199.158 586.45 199.108C585.96 197.658 585.469 196.208 584.969 194.758ZM489.98 198.678C489.23 198.208 488.47 197.748 487.71 197.308C487.71 198.168 487.7 199.028 487.69 199.888C488.19 200.848 488.68 201.818 489.17 202.788C489.82 202.268 490.47 201.748 491.11 201.238C490.74 200.378 490.37 199.528 489.98 198.678ZM511.84 215.538C510.53 213.868 509.09 213.308 507.5 213.878C506.28 214.398 505.24 214.828 504.35 215.108C503.46 215.398 503.19 216.388 503.55 218.108C503.97 220.048 504.58 221.518 505.35 222.468C506.07 223.188 507.26 223.868 508.93 224.538C510.15 224.988 510.89 224.828 511.1 224.068C511.27 223.088 511.7 221.948 512.37 220.688C513.08 218.678 512.9 216.968 511.84 215.538ZM589.149 217.378C588.489 214.218 587.05 212.318 584.82 211.668C583.59 211.228 582.89 211.508 582.71 212.508C582.68 213.238 582.409 214.228 581.919 215.478C581.419 216.728 580.96 217.728 580.56 218.488C580.14 219.238 580.37 220.348 581.24 221.768C582.44 222.948 583.32 223.518 583.89 223.498C584.59 223.218 585.51 222.688 586.68 221.908C587.71 221.368 588.449 220.838 588.919 220.318C589.369 219.818 589.459 218.828 589.149 217.378ZM606.409 214.028C604.599 212.648 603.229 212.088 602.349 212.378C601.469 212.658 600.39 213.448 599.14 214.718C597.89 215.998 597.299 217.258 597.359 218.478C597.379 219.468 597.899 221.038 598.919 223.198C600.139 226.338 602.089 227.958 604.789 228.088C607.469 228.208 608.959 226.668 609.229 223.468C609.339 221.248 609.369 219.538 609.289 218.318C609.169 216.858 608.219 215.428 606.409 214.028ZM479.25 220.228C478.04 219.048 476.77 218.858 475.42 219.648C474.78 220.168 474.21 220.698 473.76 221.208C473.43 221.458 473.41 222.208 473.67 223.418C473.99 224.908 474.31 225.998 474.67 226.738C475.2 227.448 476.06 227.908 477.25 228.108C478.66 228.528 479.75 228.738 480.5 228.708C481.24 228.668 481.85 227.918 482.28 226.418C482.72 224.908 482.58 223.798 481.85 223.088C481.12 222.388 480.26 221.418 479.25 220.228ZM567.83 225.678C567.09 224.848 566.339 224.018 565.599 223.188C564.679 223.348 563.769 223.518 562.849 223.678C563.299 224.888 563.729 226.108 564.169 227.308C565.039 227.768 565.9 228.228 566.75 228.688C567.1 227.678 567.46 226.678 567.83 225.678ZM528.529 227.028C528.019 227.288 527.5 227.558 526.99 227.828C527.27 228.688 527.54 229.538 527.82 230.388C528.53 230.608 529.25 230.818 529.94 231.028C529.47 229.698 529.009 228.358 528.529 227.028ZM542.25 228.648C540.45 228.228 539.27 228.898 538.7 230.658C538.25 232.148 537.85 233.408 537.49 234.408C537.32 235.408 537.77 236.618 538.83 238.038C540.08 239.468 541.07 240.038 541.75 239.758C542.6 239.248 543.6 238.578 544.75 237.778C545.91 236.998 546.839 236.458 547.549 236.178C548.179 235.658 548.309 234.418 547.899 232.468C547.539 230.768 546.87 229.798 545.87 229.608C544.88 229.398 543.67 229.088 542.25 228.648ZM555.409 230.288C554.219 230.088 553.05 229.888 551.87 229.698C552.28 231.158 552.68 232.618 553.08 234.088C553.97 234.658 554.839 235.238 555.729 235.808C556.009 234.928 556.309 234.068 556.589 233.188C556.199 232.228 555.809 231.248 555.409 230.288ZM509.05 237.128C506.29 235.758 504.13 235.008 502.58 234.818C501.21 234.628 499.88 235.908 498.57 238.698C497.22 241.238 496.84 243.468 497.45 245.418C498 247.128 499.27 249.548 501.27 252.678C503.02 255.588 504.57 257.488 505.89 258.428C507.18 259.108 508.99 259.148 511.32 258.548C513.79 257.698 515.369 256.638 516.049 255.368C516.919 254.088 517.18 251.728 516.82 248.278C516.53 245.088 515.75 242.768 514.5 241.348C513.43 239.898 511.61 238.498 509.05 237.128ZM596.93 240.968C596.13 241.618 595.32 242.268 594.5 242.918C594.09 244.158 593.689 245.408 593.279 246.658C594.559 246.848 595.839 247.038 597.099 247.228C597.819 246.578 598.54 245.928 599.25 245.278C598.48 243.838 597.71 242.398 596.93 240.968ZM565.159 242.788C561.859 242.438 559.589 242.908 558.339 244.208C557.089 245.498 556.13 248.128 555.45 252.088C554.96 256.068 555.06 259.278 555.76 261.718C556.6 263.898 558.61 266.278 561.81 268.858C564.86 271.668 567.25 273.148 568.99 273.318C570.92 273.478 573.07 272.378 575.43 270.058C577.77 267.718 579.03 265.568 579.18 263.588C579.48 261.348 578.81 258.178 577.2 254.068C575.77 249.938 574.239 247.188 572.609 245.768C571.129 244.118 568.649 243.118 565.159 242.788ZM529.93 259.188C528.57 259.008 527.539 259.048 526.839 259.328C526.279 259.358 525.849 259.998 525.539 261.238C524.879 263.508 525.44 265.708 527.21 267.858C528.99 270.008 530.72 270.528 532.39 269.478C534.44 268.378 535.08 266.498 534.32 263.818C534.01 262.348 533.52 261.378 532.87 260.908C532.14 260.208 531.17 259.628 529.93 259.188Z" fill="url(#paint2_linear_19_42)"/>
<path d="M774.63 273.238C756.6 274.208 739.96 271.658 724.71 265.618C709.45 259.568 696.19 249.468 684.97 235.368C673.9 221.248 665.61 202.728 660.1 179.848C657.87 169.988 655.56 159.388 653.2 148.088C650.84 136.788 648.67 125.988 646.7 115.678C642.78 93.3777 643.47 74.9277 648.81 60.3377C654.33 45.7577 663.42 34.8377 676.06 27.5177C688.9 20.2377 704.19 16.3377 721.91 15.8077C734.11 15.4377 746.2 16.8577 758.17 20.0577C770.29 23.0077 781.67 27.9577 792.32 34.9477C802.96 41.9377 812.12 51.0777 819.79 62.3977C827.61 73.4877 833.24 87.0177 836.67 103.008C837.1 105.138 836.81 107.048 835.82 108.758C834.97 110.208 833.69 110.958 831.99 111.028C812.65 111.788 793.32 112.558 773.99 113.318C770.95 113.438 768.54 112.828 766.73 111.468C765.06 109.848 763.28 107.178 761.35 103.418C757.71 95.8977 753.8 90.9177 749.67 88.4377C745.52 85.9677 740.98 84.8277 736.04 84.9977C729.78 85.2277 725.2 87.5277 722.28 91.9577C719.52 96.1277 719.08 103.708 720.96 114.678C724.45 134.238 728.57 154.298 733.34 174.858C735.97 185.848 739.52 193.438 743.98 197.588C748.58 201.498 753.99 203.288 760.21 202.988C765.11 202.768 769.06 201.138 772.07 198.098C775.25 195.038 777.07 189.888 777.5 182.648C777.63 178.548 778.3 175.758 779.52 174.238C780.74 172.748 782.87 171.938 785.89 171.808C805.15 170.928 824.42 170.048 843.68 169.178C845.38 169.098 846.96 169.858 848.43 171.468C850.03 172.818 851.05 174.568 851.47 176.708C854.5 192.838 854.43 206.868 851.27 218.798C848.27 230.488 842.98 240.278 835.43 248.168C827.88 256.068 818.82 262.118 808.25 266.318C797.85 270.288 786.64 272.598 774.63 273.238ZM744.34 35.0577C741.99 33.9377 740.13 33.2977 738.75 33.0977C737.32 32.6577 736.07 33.5277 734.99 35.6977C733.62 38.3577 732.85 40.6377 732.68 42.5477C732.46 44.2177 733.41 46.5677 735.58 49.5877C737.79 52.8477 739.66 54.9377 741.19 55.8277C742.86 56.4877 745.01 56.2977 747.68 55.2677C750.76 54.4477 752.85 53.4177 753.93 52.1977C755.16 50.7277 755.56 47.9777 755.1 43.9677C754.55 40.4177 753.38 38.4577 751.57 38.0377C749.71 37.3777 747.3 36.3877 744.34 35.0577ZM701.85 51.7577C700.34 47.2777 699.19 43.6177 698.4 40.7777C697.61 37.9577 695.34 36.2377 691.57 35.6377C687.18 34.8177 684.09 35.1477 682.3 36.6477C680.69 38.1277 679.44 41.2577 678.54 46.0677C677.44 50.8877 677.39 54.7077 678.38 57.5577C679.49 60.1577 681.94 63.1777 685.73 66.6477C689.13 70.1377 691.74 71.5977 693.55 71.0577C695.48 70.2677 697.94 68.7577 700.92 66.4977C703.18 64.5077 704.21 62.5577 704.01 60.6477C703.75 58.5177 703.03 55.5377 701.85 51.7577ZM773.84 38.7277C772.87 36.8777 771.97 35.7177 771.11 35.2677C770.26 34.8277 769.09 34.7377 767.61 35.0277C766.33 35.2977 765.69 35.9277 765.7 36.8677C765.65 37.5877 765.61 38.7577 765.57 40.4177C765.72 42.0577 765.71 43.3777 765.52 44.3277C765.52 45.2877 766.2 46.2077 767.53 47.1277C769.11 48.2477 770.39 48.9277 771.39 49.1177C772.34 49.0877 773.25 48.3477 774.1 46.9077C775.14 45.4377 775.56 44.2477 775.37 43.3077C775.31 42.1177 774.81 40.5977 773.84 38.7277ZM785.78 40.8377C784.4 40.6377 783.4 40.9177 782.78 41.6277C782.31 42.1177 781.93 43.0877 781.66 44.5177C781.28 46.4277 781.03 47.9777 780.89 49.1577C780.89 50.1177 781.61 51.2777 783.04 52.6477C784.23 53.7977 785.14 54.0077 785.75 53.2777C786.32 52.2877 787.19 51.4477 788.38 50.6877C789.38 49.9477 790.23 49.4477 790.95 49.1877C791.6 48.6877 791.67 47.6277 791.14 45.9877C790.18 43.1677 788.39 41.4477 785.78 40.8377ZM723.7 44.9777C722.61 44.2877 721.51 43.6077 720.41 42.9377C719.91 43.7877 719.42 44.6377 718.92 45.4777C719.34 46.5477 719.76 47.6077 720.17 48.6677C720.98 48.3977 721.78 48.1277 722.58 47.8677C722.95 46.8977 723.33 45.9377 723.7 44.9777ZM804.53 59.3777C803.89 59.9877 803.25 60.5977 802.62 61.2277C803.09 62.1477 803.57 63.0877 804.04 64.0277C804.86 64.2277 805.67 64.4277 806.47 64.6377C806.63 63.5777 806.8 62.5077 806.96 61.4277C806.16 60.7477 805.34 60.0577 804.53 59.3777ZM767.28 68.1477C766.13 68.5377 764.97 68.9377 763.8 69.3477C764.28 70.7377 764.77 72.1577 765.24 73.5777C766.3 74.0177 767.34 74.4477 768.39 74.8877C768.75 73.8077 769.1 72.7177 769.44 71.6377C768.73 70.4777 768.01 69.3177 767.28 68.1477ZM791.16 68.3977C789.79 68.1977 788.71 68.1177 787.95 68.1477C787.18 68.1777 786.7 69.0177 786.46 70.6877C786.05 72.3577 785.87 73.8077 785.92 74.9877C786.1 75.9377 786.95 77.2077 788.43 78.8177C789.61 79.9577 790.54 80.2877 791.2 79.7777C792.01 79.0477 793 78.2977 794.18 77.5477C795.19 76.7977 795.92 76.1677 796.39 75.6677C796.81 74.9577 796.79 73.8777 796.3 72.4777C795.77 70.8277 795.09 69.7877 794.23 69.3477C793.56 68.8877 792.53 68.5677 791.16 68.3977ZM675.33 73.1177C674.06 73.0277 672.8 72.9577 671.54 72.8777C671.73 74.6777 671.92 76.4677 672.1 78.2577C673.26 78.3377 674.43 78.4177 675.59 78.5077C676.3 77.7577 677.01 77.0177 677.7 76.2677C676.91 75.2077 676.13 74.1677 675.33 73.1177ZM810.45 84.0777C809.48 83.0377 808.5 81.9977 807.51 80.9677C806.31 81.5977 805.11 82.2377 803.89 82.8777C804.54 84.6277 805.18 86.3877 805.82 88.1477C807.04 87.9877 808.26 87.8277 809.45 87.6677C809.78 86.4677 810.11 85.2677 810.45 84.0777ZM706.51 94.6877C705.83 95.0677 705.14 95.4477 704.45 95.8377C704.87 96.8977 705.29 97.9777 705.7 99.0377C706.62 99.3577 707.54 99.6777 708.47 100.018C708.7 98.7977 708.93 97.5877 709.15 96.3877C708.27 95.8177 707.39 95.2577 706.51 94.6877ZM819.36 92.6377C818.19 92.5477 817.04 92.4777 815.87 92.4077C815.76 93.7177 815.64 95.0377 815.53 96.3477C816.45 97.1477 817.38 97.9377 818.3 98.7377C818.81 97.8877 819.3 97.0477 819.79 96.1877C819.65 95.0077 819.51 93.8177 819.36 92.6377ZM675.48 101.218C674.51 99.3377 673.38 98.5276 672.1 98.8176C671.03 99.0976 670.49 100.208 670.5 102.138C670.57 103.328 670.59 104.288 670.54 105.018C670.69 105.748 671.19 106.318 672.05 106.768C673.33 107.458 674.3 107.878 674.9 108.108C675.71 108.318 676.39 107.918 676.97 106.948C677.7 105.958 677.82 105.108 677.29 104.408C676.96 103.698 676.35 102.638 675.48 101.218ZM775.19 96.7977C774.34 96.3577 773.47 95.9177 772.62 95.4677C772.65 96.5477 772.68 97.6177 772.7 98.6777C773.31 99.7377 773.91 100.788 774.5 101.838C775.21 101.098 775.91 100.358 776.62 99.6177C776.15 98.6777 775.67 97.7377 775.19 96.7977ZM693.47 107.778C691.95 107.828 690.72 107.878 689.77 107.908C688.77 107.708 688.19 108.578 688.02 110.518C687.9 112.688 688.13 114.238 688.71 115.178C689.47 116.118 690.67 117.268 692.3 118.648C693.68 119.808 694.69 120.118 695.36 119.628C695.97 118.878 696.71 117.888 697.6 116.648C698.87 115.398 698.98 113.588 697.9 111.218C696.85 108.848 695.36 107.708 693.47 107.778ZM665.25 122.218C664.1 120.328 663.14 118.928 662.37 117.978C661.79 117.048 660.67 116.718 659.02 117.018C657.36 117.328 656.34 117.968 655.98 118.948C655.61 119.928 655.46 121.508 655.55 123.668C655.75 125.588 656.23 126.918 656.93 127.608C657.79 128.058 658.98 128.748 660.51 129.648C662.03 130.568 663.23 131.238 664.08 131.688C664.9 131.908 665.74 131.378 666.63 130.138C667.47 128.648 667.68 127.438 667.3 126.488C666.91 125.528 666.22 124.118 665.25 122.218ZM708.33 140.798C705.39 140.418 703.05 140.148 701.3 139.998C699.74 139.818 698.61 141.298 697.94 144.478C697.16 148.118 697.01 151.028 697.45 153.198C698.08 155.328 699.86 157.928 702.77 160.938C705.63 163.738 707.96 165.318 709.76 165.728C711.75 166.118 714.05 165.298 716.68 163.248C719.16 161.468 720.4 159.598 720.39 157.668C720.52 155.488 719.97 152.378 718.75 148.318C717.68 144.998 716.35 143.128 714.74 142.708C713.27 142.038 711.13 141.408 708.33 140.798ZM688.82 155.708C686.72 153.878 685.01 152.968 683.69 153.028C682.5 152.838 681.14 153.628 679.6 155.378C677.87 157.138 676.78 158.758 676.32 160.228C676.01 161.468 676.45 163.628 677.66 166.728C679.17 170.298 680.49 173.028 681.64 174.918C682.75 176.568 684.83 177.458 687.91 177.568C690.98 177.678 692.83 176.988 693.48 175.508C694.27 173.778 694.86 171.078 695.24 167.438C695.55 164.278 695.08 161.998 693.83 160.588C692.79 159.188 691.12 157.558 688.82 155.708ZM682 196.038C680.87 195.118 679.83 195.158 678.9 196.178C678.48 196.928 678.13 197.548 677.85 198.038C677.59 198.538 677.74 199.258 678.3 200.218C679.03 201.888 680.24 202.678 681.93 202.608C683.26 202.548 684 201.538 684.17 199.588C684.06 198.138 683.34 196.938 682 196.038ZM796.97 204.148C795.21 201.108 793.78 199.128 792.65 198.208C791.45 197.068 789.66 196.658 787.26 197.018C784.53 197.628 782.72 198.558 781.83 199.808C780.88 200.808 780.47 203.008 780.58 206.378C780.55 210.008 780.92 212.768 781.68 214.668C782.63 216.558 784.61 218.388 787.64 220.178C790.47 221.968 792.48 222.468 793.65 221.698C794.96 220.658 796.42 218.898 798.01 216.398C799.28 214.168 799.75 212.328 799.47 210.888C799.32 209.218 798.49 206.968 796.97 204.148ZM717.21 210.478C715.71 210.538 714.75 210.938 714.32 211.688C713.86 212.208 713.55 213.428 713.36 215.388C713.24 217.578 713.22 219.278 713.27 220.488C713.52 221.708 714.41 222.878 715.98 224.008C718.02 225.618 719.56 226.648 720.6 227.088C721.78 227.258 723.06 226.598 724.47 225.068C726.05 223.528 726.79 222.038 726.69 220.588C726.58 219.138 725.97 217.098 724.87 214.468C723.82 212.108 722.71 210.818 721.52 210.628C720.53 210.428 719.1 210.378 717.21 210.478ZM826.76 214.608C826.15 212.948 825.53 211.308 824.91 209.648C823.55 210.438 822.18 211.228 820.82 212.018C821.39 213.918 821.96 215.808 822.52 217.718C823.74 217.648 824.97 217.588 826.2 217.538C826.38 216.568 826.57 215.588 826.76 214.608ZM752.39 219.348C751.34 218.918 750.5 218.468 749.84 218.028C749.18 217.568 748.59 217.968 748.08 219.198C747.14 221.178 747.57 223.228 749.32 225.328C750.12 226.498 750.79 226.948 751.31 226.678C751.77 226.168 752.46 225.768 753.35 225.488C754.19 224.968 754.77 224.568 755.1 224.308C755.62 224.048 755.75 223.318 755.51 222.108C755.32 221.148 755 220.548 754.59 220.328C754.11 219.888 753.38 219.548 752.39 219.348ZM769.53 229.418C767.36 228.078 765.69 228.278 764.53 230.038C763.96 231.018 763.88 232.008 764.26 232.958C764.6 233.658 765.19 234.718 766.03 236.148C766.95 237.798 768.12 238.458 769.58 238.138C771.03 237.828 771.76 236.698 771.76 234.758C771.65 233.318 771.53 232.238 771.38 231.508C771.24 230.788 770.63 230.098 769.53 229.418ZM805.46 226.538C803.33 226.398 801.92 226.968 801.22 228.198C800.67 229.188 800.24 230.908 799.97 233.338C799.61 235.288 799.89 236.728 800.83 237.648C801.92 238.318 803.26 239.338 804.87 240.708C806.05 241.858 807.04 242.528 807.84 242.738C808.64 242.938 809.6 242.518 810.73 241.488C811.99 240.218 812.93 239.208 813.54 238.448C814.1 237.448 813.89 235.888 812.89 233.778C811.99 231.158 811.06 229.388 810.11 228.468C809.13 227.318 807.58 226.678 805.46 226.538ZM823.82 229.948C822.93 229.278 822.14 228.708 821.49 228.258C821.01 227.808 820.48 227.948 819.86 228.698C818.97 229.948 819.14 231.758 820.37 234.108C821.03 235.518 822.21 236.178 823.91 236.098C825.04 236.038 825.88 235.998 826.44 235.968C826.96 235.698 827.19 234.968 827.15 233.748C827.28 232.548 827.05 231.828 826.44 231.618C825.78 231.178 824.9 230.618 823.82 229.948ZM751.59 249.258C749.33 248.398 747.74 248.968 746.8 250.958C746.49 252.198 746.5 253.168 746.83 253.888C747.35 254.578 748.04 255.648 748.89 257.058C750.45 259.168 751.91 259.828 753.27 259.028C755.06 258.448 755.68 256.838 755.15 254.188C754.62 251.538 753.42 249.898 751.59 249.258ZM798.13 249.768C796.8 247.898 795.51 247.118 794.24 247.438C793.03 247.988 792.05 248.398 791.36 248.668C790.65 248.948 790.38 249.938 790.52 251.638C790.72 253.558 791.19 254.988 791.94 255.908C792.66 256.608 793.74 257.288 795.2 257.918C796.85 258.568 798.05 258.878 798.79 258.838C799.5 258.558 800.17 257.658 800.83 256.178C801.53 254.928 801.52 253.958 800.82 253.268C800.07 252.338 799.17 251.188 798.13 249.768Z" fill="url(#paint3_linear_19_42)"/>
<path d="M942.53 260.288C940.47 260.408 938.5 259.568 936.63 257.758C934.76 255.948 933.55 253.728 933.05 251.138C922.48 196.998 911.86 143.118 901.17 89.4977C885.43 90.1077 869.68 90.7177 853.92 91.3177C851.83 91.4077 849.84 90.5277 847.94 88.7077C846.04 86.8877 844.82 84.6877 844.31 82.1077C840.46 63.2077 836.61 44.3577 832.76 25.5277C832.23 22.9777 832.54 20.7277 833.68 18.8177C834.82 16.8977 836.43 15.9177 838.53 15.8477C894.37 14.1377 950.22 12.4177 1006.07 10.6877C1008.16 10.6277 1010.16 11.4777 1012.06 13.2577C1013.95 15.0477 1015.14 17.2077 1015.64 19.7177C1019.32 38.1577 1022.98 56.6377 1026.63 75.1477C1027.13 77.6877 1026.81 79.8977 1025.65 81.7977C1024.49 83.7077 1022.87 84.7077 1020.77 84.7877C1005.01 85.4177 989.25 86.0477 973.5 86.6777C983.97 139.848 994.37 193.318 1004.73 247.038C1005.23 249.618 1004.91 251.898 1003.77 253.878C1002.62 255.848 1001 256.888 998.93 257.018C980.14 258.108 961.33 259.198 942.53 260.288ZM873.55 25.3077C871.4 24.1977 869.74 23.5577 868.54 23.3577C867.5 22.9277 866.48 23.5377 865.47 25.2177C864.42 26.6477 864.29 27.9377 865.11 29.0877C866.12 30.2277 867.2 31.8377 868.4 33.9177C869.49 35.5177 870.25 36.9077 870.69 38.0577C871.3 39.2077 872.34 39.6477 873.82 39.3577C875.87 39.0577 877.2 38.5377 877.82 37.8177C878.63 37.0877 878.99 35.5677 878.9 33.2177C878.99 30.8877 878.56 29.2377 877.62 28.3377C876.66 27.4177 875.3 26.4177 873.55 25.3077ZM856.68 28.6477C855.57 27.8577 854.45 27.0677 853.32 26.2977C852.43 27.0277 851.53 27.7577 850.61 28.4977C851.46 29.7577 852.29 31.0277 853.12 32.2877C854.2 32.3777 855.27 32.4677 856.33 32.5477C856.46 31.2477 856.58 29.9577 856.68 28.6477ZM980.09 37.5377C977.46 33.0077 975.12 29.9477 973.08 28.3877C971 26.5977 968.01 26.0077 964.1 26.5877C960.19 27.1777 957.92 28.7677 957.28 31.3477C956.8 33.6977 956.65 37.1777 956.8 41.8277C956.93 46.2477 957.5 49.5977 958.53 51.8777C959.52 53.9477 961.86 56.0877 965.56 58.2777C969.67 60.6877 972.85 62.1977 975.07 62.8177C977.5 63.4377 979.98 61.9377 982.52 58.3577C985.07 54.7777 985.97 51.6177 985.22 48.8577C984.48 46.0977 982.77 42.3177 980.09 37.5377ZM917.87 32.6477C914.49 32.0477 912.05 32.2477 910.52 33.2377C909.18 34.2177 908.04 36.5877 907.07 40.3577C906.25 44.8277 905.82 48.3477 905.76 50.9377C905.91 53.5177 907.72 56.3777 911.22 59.5277C915.06 63.3777 918.22 65.7277 920.69 66.5777C923.1 67.1877 926.05 66.1477 929.54 63.4477C931.54 61.9577 932.38 60.4077 932.05 58.7877C931.87 56.9277 931.18 54.9577 930 52.8877C928.78 50.6077 927.67 47.9577 926.67 44.9477C925.37 41.2677 924.3 38.3777 923.5 36.3077C922.89 34.2377 921.02 33.0177 917.87 32.6477ZM893.55 60.1577C891.18 56.9577 889.45 54.0977 888.36 51.5377C887.22 48.7677 885.22 47.8977 882.38 48.9377C878.99 50.2277 877.15 52.0377 876.87 54.4077C876.72 56.5177 877.02 59.8177 877.72 64.2477C878.38 68.4677 879.18 71.4977 880.12 73.3377C881.26 75.1877 883.62 76.8677 887.17 78.3877C890.73 79.8877 893.31 80.3877 894.93 79.8577C896.54 79.3177 898.15 77.3777 899.79 74.0277C901.12 71.1677 900.97 68.9277 899.3 67.3477C897.79 65.5277 895.86 63.1177 893.55 60.1577ZM856.62 56.5177C855.43 55.3677 854.58 54.4777 854.05 53.7677C853.47 52.8577 852.79 52.7677 851.99 53.5077C850.98 54.2377 850.49 55.0877 850.49 56.0277C850.44 56.7377 850.68 57.9077 851.2 59.5377C851.68 60.9277 852.08 61.9877 852.41 62.6777C852.94 63.3677 853.92 63.9277 855.34 64.3477C856.52 64.5277 857.25 64.2777 857.48 63.5577C857.72 62.8477 858 61.8877 858.32 60.6977C858.71 59.7477 858.67 59.0377 858.19 58.5877C857.85 57.8877 857.33 57.1977 856.62 56.5177ZM1002.68 51.3677C1000.74 49.3377 998.76 48.9477 996.69 50.1977C995.36 51.1577 994.28 52.0277 993.47 52.7277C992.61 53.2377 992.5 54.6277 993.16 56.9277C993.85 59.4477 994.52 61.3977 995.18 62.7877C996.02 64.1477 997.63 65.0077 1000 65.3777C1002.23 66.0077 1003.4 65.5977 1003.51 64.2077C1003.56 62.5877 1003.94 60.5977 1004.62 58.2477C1005.25 55.6777 1004.61 53.3877 1002.68 51.3677ZM952.72 58.7477C951.49 56.4577 950.34 54.9877 949.25 54.3077C948.36 53.6477 946.85 53.3577 944.76 53.4277C942.48 53.5077 940.84 53.9277 939.83 54.6577C938.79 55.1577 938.24 56.6977 938.18 59.2777C938.21 62.3077 938.48 64.6377 939 66.2477C939.66 67.6277 941.19 69.0877 943.61 70.6377C945.83 72.1877 947.45 72.6077 948.45 71.8677C949.4 70.8877 950.57 69.5577 951.95 67.8877C953.19 66.4277 953.89 65.1177 954.05 63.9477C954.19 62.7677 953.75 61.0377 952.72 58.7477ZM918.95 75.0677C916.62 74.9177 914.79 74.8877 913.47 74.9377C912.28 74.7477 911.44 75.8177 910.96 78.1977C910.52 80.7877 910.73 82.7777 911.58 84.1477C912.57 85.3077 914.13 86.8777 916.26 88.9177C918.34 90.7277 920.08 92.1777 921.44 93.2977C922.77 94.1877 924.33 93.8877 926.14 92.4077C927.94 90.9177 928.41 89.3777 927.51 87.7677C926.76 85.9277 925.92 83.5977 924.97 80.8277C924.18 78.7477 923.43 77.3777 922.72 76.6877C921.95 75.7877 920.69 75.2377 918.95 75.0677ZM930.1 113.758C927.5 112.228 925.38 112.548 923.7 114.728C922.99 115.948 922.82 117.008 923.19 117.938C923.76 118.858 924.46 119.998 925.31 121.388C926.49 123.458 927.31 125.198 927.78 126.588C928.25 127.988 929.3 128.528 930.97 128.218C932.62 127.908 933.44 127.158 933.38 125.988C933.3 124.588 933.22 122.698 933.13 120.348C933 118.708 932.75 117.418 932.37 116.488C932.14 115.328 931.38 114.408 930.1 113.758ZM952.78 124.088C952.04 123.638 951.28 123.198 950.51 122.778C949.76 123.268 949 123.778 948.24 124.288C948.9 125.198 949.56 126.108 950.22 127.018C951.21 127.208 952.2 127.408 953.19 127.608C953.06 126.428 952.92 125.258 952.78 124.088ZM938.55 143.448C937.3 139.968 935.13 138.178 932.05 138.068C930.31 137.908 929.13 138.198 928.51 138.938C928.07 139.688 927.69 141.108 927.34 143.258C927.15 145.158 927.26 146.688 927.69 147.848C928.06 148.778 929.04 149.918 930.64 151.258C932.02 152.388 933.03 152.688 933.69 152.198C934.32 151.438 935.09 150.578 936.05 149.598C937.18 148.588 938.09 147.848 938.75 147.348C939.37 146.618 939.3 145.308 938.55 143.448ZM957.31 139.778C956.48 139.928 955.65 140.078 954.83 140.238C955.16 141.408 955.48 142.578 955.79 143.738C956.6 143.928 957.41 144.128 958.21 144.328C958.52 143.478 958.83 142.648 959.14 141.818C958.53 141.128 957.92 140.448 957.31 139.778ZM976.51 154.418C975.71 153.288 974.93 152.738 974.18 152.768C973.6 152.798 972.78 152.948 971.7 153.238C969.84 153.558 968.9 154.558 968.84 156.198C968.97 157.848 970.01 159.348 971.99 160.648C973.27 161.298 974.33 160.908 975.19 159.448C975.78 158.468 976.29 157.738 976.77 157.248C977.25 156.758 977.16 155.808 976.51 154.418ZM958.59 162.358C956.76 160.788 955.27 160.038 954.14 160.098C953.15 159.898 951.83 160.448 950.16 161.708C948.84 162.698 948.29 163.808 948.52 164.968C948.75 166.148 949.19 167.908 949.84 170.228C950.62 172.318 951.25 174.068 951.71 175.468C952.14 176.628 953.33 177.398 955.32 177.778C957.44 177.918 958.81 177.608 959.42 176.858C960.23 176.118 960.78 174.558 961.08 172.168C961.62 170.008 961.77 168.358 961.54 167.178C961.26 165.768 960.28 164.168 958.59 162.358ZM947.4 201.658C946.84 199.798 945.87 198.658 944.45 198.248C943.65 198.048 943.1 198.208 942.81 198.698C942.54 199.188 942.3 199.908 942.1 200.878C941.91 201.828 941.68 202.558 941.38 203.048C941.28 203.518 941.62 204.228 942.36 205.138C943.35 206.278 944.59 206.338 946.1 205.298C947.29 204.528 947.72 203.308 947.4 201.658ZM988.51 205.918C986.9 201.498 984.87 199.348 982.42 199.478C980.15 199.598 977.09 199.528 973.22 199.258C970.54 199.158 968.5 199.508 967.14 200.288C965.91 200.828 965.05 202.758 964.56 206.108C963.87 210.428 963.3 213.908 962.86 216.548C962.38 218.948 963.87 221.728 967.33 224.868C971.41 228.218 974.64 230.178 977.04 230.758C979.39 231.098 982.29 229.878 985.76 227.068C988.97 224.038 990.69 221.088 990.89 218.228C991.3 215.358 990.51 211.258 988.51 205.918ZM939.79 210.978C938.89 210.328 938 210.608 937.11 211.848C936.29 212.598 936.31 213.678 937.15 215.058C937.77 216.218 938.17 217.268 938.35 218.208C938.53 219.158 939.19 219.608 940.32 219.538C941.45 219.478 942.13 219.088 942.37 218.358C942.61 217.628 942.76 216.428 942.81 214.758C942.77 213.568 942.51 212.748 942.05 212.298C941.58 211.848 940.82 211.408 939.79 210.978Z" fill="url(#paint4_linear_19_42)"/>
<path d="M1171.14 250.028C1152.69 251.198 1135.85 248.718 1120.62 242.598C1105.55 236.458 1092.65 226.628 1081.9 213.158C1071.29 199.418 1063.61 182.258 1058.89 161.668C1054.49 141.808 1050.57 121.508 1047.11 100.748C1043.9 80.5077 1044.92 63.2277 1050.16 48.9577C1055.4 34.7277 1064.35 23.7577 1077 16.0177C1089.67 8.28766 1105.35 4.14766 1124.03 3.56766C1142.7 2.99766 1159.82 6.06766 1175.33 12.8077C1190.85 19.5377 1203.93 29.5677 1214.56 42.9377C1225.38 56.2577 1232.95 72.7577 1237.27 92.4277C1241.67 112.578 1245.39 132.348 1248.46 151.748C1251.45 171.908 1250.16 189.178 1244.6 203.558C1239.22 217.748 1230.18 228.758 1217.51 236.548C1205.04 244.338 1189.58 248.848 1171.14 250.028ZM1142.72 25.4677C1138.33 23.5777 1134.83 21.8777 1132.23 20.3777C1129.63 18.8677 1127.38 20.0777 1125.47 24.0077C1123.34 27.9477 1123.32 31.1377 1125.33 33.5677C1127.52 35.9977 1130.1 39.3277 1133.03 43.5477C1135.64 47.0977 1137.74 49.6477 1139.39 51.1777C1140.99 52.4877 1143.41 52.6177 1146.68 51.5877C1149.92 50.5577 1151.53 49.0177 1151.53 46.9677C1151.65 44.6877 1151.5 41.5077 1151.1 37.4377C1150.59 33.8277 1149.79 31.2377 1148.73 29.6877C1147.65 28.1377 1145.65 26.7277 1142.72 25.4677ZM1177.11 26.3377C1175.18 25.2577 1173.74 25.3177 1172.83 26.4877C1172.06 27.4077 1171.44 28.2277 1171.02 28.9177C1170.75 29.5977 1170.95 30.6077 1171.61 31.9477C1172.47 33.4877 1173.23 34.3777 1173.85 34.5877C1174.61 34.5577 1175.65 34.5177 1176.98 34.4777C1177.94 34.4377 1178.43 34.0777 1178.49 33.3977C1178.55 32.7377 1178.67 31.8177 1178.8 30.6877C1178.82 28.6377 1178.25 27.1977 1177.11 26.3377ZM1104.48 40.1277C1103.46 36.9577 1102.1 35.2977 1100.33 35.1277C1098.57 34.9577 1096.31 34.6877 1093.56 34.3377C1090.81 33.9777 1088.55 33.7177 1086.79 33.5477C1085.22 33.3677 1084.16 34.7777 1083.6 37.7777C1082.86 40.7777 1083.18 42.9477 1084.59 44.2677C1086.13 45.3577 1088.2 47.0177 1090.74 49.2077C1092.85 51.1977 1094.55 52.4977 1095.82 53.1477C1097.09 53.7977 1098.64 53.3877 1100.47 51.9477C1102.63 50.2577 1104.14 48.7177 1105.01 47.3077C1105.9 45.9077 1105.7 43.5177 1104.48 40.1277ZM1178.05 42.9277C1177.01 42.5077 1175.96 42.0877 1174.94 41.6877C1174.75 42.6977 1174.55 43.7277 1174.37 44.7677C1174.84 45.6377 1175.3 46.5277 1175.76 47.4177C1176.66 47.1677 1177.57 46.8977 1178.48 46.6477C1178.32 45.4077 1178.19 44.1577 1178.05 42.9277ZM1196.15 47.3477C1194.31 46.7377 1192.87 46.2277 1191.84 45.8077C1190.97 45.3877 1190.15 45.9877 1189.3 47.5977C1188.47 49.2177 1188.25 50.5777 1188.65 51.6977C1189.02 52.5877 1189.86 53.9177 1191.15 55.6777C1192.02 57.2277 1192.85 58.1077 1193.67 58.3077C1194.61 58.2677 1195.75 58.1077 1197.04 57.8277C1198.27 57.3277 1198.93 56.7477 1198.98 56.0577C1199.05 55.3777 1199.02 54.2477 1198.9 52.6677C1198.84 51.3177 1198.64 50.2977 1198.31 49.6377C1197.96 48.7477 1197.23 47.9877 1196.15 47.3477ZM1079.94 57.1877C1078.22 57.2577 1077 57.4077 1076.3 57.6677C1075.58 57.9277 1075.12 58.9777 1074.91 60.8177C1074.69 62.6777 1074.86 64.0477 1075.41 64.9577C1076.12 65.6077 1077.26 66.4877 1078.81 67.5677C1080.65 69.1077 1082.06 70.4377 1083.04 71.5577C1084.16 72.4377 1085.44 72.1477 1086.9 70.7177C1088.33 69.2777 1088.83 67.8777 1088.38 66.5177C1087.91 65.1477 1087.15 63.2277 1086.1 60.7377C1085.35 58.9377 1084.5 57.9277 1083.5 57.7477C1082.65 57.3177 1081.46 57.1277 1079.94 57.1877ZM1176.06 57.9577C1175.25 58.2177 1174.43 58.4777 1173.63 58.7377C1173.93 59.7477 1174.21 60.7677 1174.49 61.7777C1175.33 62.0677 1176.15 62.3777 1176.97 62.7077C1177.4 61.8977 1177.81 61.0677 1178.24 60.2577C1177.51 59.4877 1176.79 58.7277 1176.06 57.9577ZM1158.52 182.568C1164.75 182.218 1169.35 179.778 1172.31 175.218C1175.24 170.438 1175.89 163.248 1174.26 153.658C1171.11 134.038 1167.48 114.968 1163.37 96.4077C1161.36 86.8977 1157.94 80.0877 1153.11 75.9577C1148.43 71.5777 1143.06 69.5277 1136.98 69.7677C1130.9 70.0077 1126.39 72.4677 1123.47 77.1777C1120.51 81.6377 1119.77 88.6677 1121.22 98.2477C1124.26 116.978 1127.94 136.168 1132.25 155.828C1134.48 165.458 1137.8 172.468 1142.28 176.858C1146.88 181.018 1152.29 182.908 1158.52 182.568ZM1189.77 79.8977C1187.32 79.0777 1185.65 79.2577 1184.69 80.4477C1183.94 81.3877 1183.01 83.0177 1181.92 85.3377C1180.84 87.6577 1180.14 89.5077 1179.83 90.8977C1179.52 92.2677 1180.27 94.1777 1182.07 96.5977C1183.88 99.0277 1185.47 100.438 1186.89 100.838C1188.28 100.998 1190.12 100.688 1192.46 99.8877C1194.94 98.8677 1196.79 97.9877 1197.98 97.2477C1199.34 96.2877 1199.78 94.1077 1199.31 90.7177C1198.81 87.1077 1197.91 84.7677 1196.54 83.6777C1195.15 82.3777 1192.88 81.1177 1189.77 79.8977ZM1203.05 78.6477C1202.37 79.1277 1201.7 79.6077 1201.03 80.0977C1201.3 81.0977 1201.6 82.1077 1201.89 83.1077C1202.81 83.4077 1203.71 83.7177 1204.64 84.0177C1204.63 82.9877 1204.62 81.9777 1204.63 80.9677C1204.11 80.1877 1203.57 79.4177 1203.05 78.6477ZM1098.23 90.6277C1096.86 90.4477 1095.74 90.1377 1094.9 89.7177C1094 89.0677 1093.31 89.4377 1092.82 90.8377C1092.32 92.2477 1092.36 93.3977 1092.93 94.2977C1093.44 94.9577 1094.29 95.9677 1095.5 97.2977C1096.68 98.3977 1097.61 99.2877 1098.32 99.9377C1098.98 100.368 1099.82 100.328 1100.88 99.8176C1102.07 99.0876 1102.48 98.2577 1102.12 97.3577C1101.94 96.4377 1101.7 95.1777 1101.39 93.5877C1101.12 92.2177 1100.08 91.2177 1098.23 90.6277ZM1079.59 96.5877C1078.89 95.0177 1077.79 94.2477 1076.27 94.2977C1075.31 94.3377 1074.57 94.4877 1074.04 94.7477C1073.49 94.7677 1073.22 95.3577 1073.26 96.5177C1073.08 98.6077 1073.79 100.308 1075.39 101.618C1076.9 102.498 1078.3 102.308 1079.6 101.088C1080.51 99.9077 1080.51 98.4077 1079.59 96.5877ZM1108.2 115.418C1106.91 112.708 1105.56 111.268 1104.21 111.098C1103.02 110.918 1101.21 110.888 1098.73 110.998C1097.02 111.068 1095.97 111.578 1095.58 112.508C1095.38 113.458 1095.2 114.968 1095.02 117.048C1094.85 119.148 1094.71 120.888 1094.59 122.278C1094.62 123.428 1095.54 124.668 1097.3 125.978C1099.1 127.268 1100.42 127.668 1101.26 127.168C1102.14 126.658 1103.19 125.688 1104.43 124.248C1106.07 122.778 1107.36 121.568 1108.33 120.598C1109.29 119.628 1109.24 117.908 1108.2 115.418ZM1186.27 108.038C1183.58 107.018 1181.79 107.668 1180.89 109.998C1179.81 112.318 1180.16 114.708 1181.97 117.158C1182.99 118.468 1183.88 119.108 1184.63 119.068C1185.38 119.028 1186.38 118.758 1187.62 118.248C1188.73 117.958 1189.31 117.468 1189.37 116.798C1189.39 115.868 1189.27 114.738 1189.01 113.388C1188.76 112.028 1188.54 110.898 1188.36 109.988C1188.2 109.098 1187.49 108.428 1186.27 108.038ZM1218.1 107.918C1216.51 107.538 1215.5 107.808 1215.11 108.738C1214.84 109.428 1214.49 110.578 1214.04 112.208C1213.43 114.038 1213.86 115.848 1215.33 117.578C1216.75 118.888 1217.83 120.088 1218.62 121.188C1219.35 122.068 1220.3 122.018 1221.46 121.048C1223.03 120.298 1223.93 119.448 1224.12 118.528C1224.3 117.378 1224.09 115.798 1223.53 113.788C1222.7 110.418 1220.89 108.458 1218.1 107.918ZM1216.15 130.878C1214.76 130.718 1213.84 130.878 1213.36 131.368C1213.08 131.828 1212.85 132.748 1212.73 134.138C1212.37 135.278 1212.19 136.328 1212.17 137.228C1212.3 137.918 1212.83 138.698 1213.76 139.558C1214.74 140.648 1215.47 141.068 1216 140.808C1216.68 140.328 1217.45 139.828 1218.3 139.328C1219.79 138.108 1220.29 136.708 1219.81 135.138C1219.37 133.788 1218.89 132.798 1218.37 132.128C1218.06 131.468 1217.33 131.058 1216.15 130.878ZM1191.9 136.228C1188.99 134.988 1186.91 135.658 1185.7 138.248C1184.27 140.838 1184.57 143.468 1186.61 146.108C1187.7 147.888 1188.65 148.878 1189.45 149.068C1190.45 149.238 1191.67 149.178 1193.15 148.868C1194.57 148.338 1195.4 147.598 1195.6 146.678C1195.79 145.758 1195.84 144.378 1195.68 142.558C1195.52 140.728 1195.18 139.378 1194.63 138.478C1194.25 137.588 1193.36 136.818 1191.9 136.228ZM1085.78 149.478C1084.24 147.468 1082.96 146.838 1081.97 147.578C1080.97 148.328 1079.49 149.098 1077.54 149.898C1075.98 150.668 1074.77 151.308 1073.91 151.818C1073.06 152.318 1072.83 153.738 1073.29 156.038C1073.81 158.808 1074.43 160.998 1075.12 162.598C1075.77 163.958 1077.31 165.058 1079.75 165.858C1082.15 166.438 1083.77 166.348 1084.57 165.608C1085.53 164.638 1086.45 162.958 1087.34 160.578C1088.21 158.208 1088.62 156.318 1088.54 154.928C1088.65 153.538 1087.74 151.718 1085.78 149.478ZM1232.15 155.038C1229.29 154.038 1227.27 154.038 1226.12 155.028C1224.95 155.998 1223.8 157.878 1222.6 160.708C1221.41 163.518 1220.8 165.848 1220.75 167.688C1220.91 169.508 1222.09 171.748 1224.3 174.368C1226.33 177.008 1228.06 178.178 1229.54 177.858C1231.01 177.548 1232.97 176.868 1235.46 175.808C1237.17 174.778 1238.01 173.598 1237.93 172.218C1237.88 170.848 1237.61 168.928 1237.16 166.428C1236.61 163.488 1236.25 161.098 1236.09 159.278C1236.1 157.218 1234.77 155.808 1232.15 155.038ZM1123.63 164.628C1122.89 162.808 1122.04 161.808 1121.03 161.628C1120.26 161.428 1119.09 161.378 1117.58 161.458C1115.46 161.348 1114.27 162.568 1113.98 165.148C1113.67 166.548 1113.62 167.708 1113.8 168.628C1114.15 169.548 1114.9 170.438 1116.02 171.298C1117.37 172.378 1118.3 172.808 1118.83 172.538C1119.5 172.048 1120.34 171.428 1121.33 170.668C1122.25 169.468 1123.05 168.598 1123.71 168.118C1124.34 167.378 1124.31 166.218 1123.63 164.628ZM1193.68 165.398C1192.52 164.298 1191.36 163.208 1190.19 162.128C1189.61 163.648 1189.05 165.178 1188.48 166.708C1189.41 167.688 1190.36 168.668 1191.32 169.658C1192.55 169.598 1193.78 169.518 1195.01 169.458C1194.56 168.098 1194.11 166.748 1193.68 165.398ZM1098.4 170.478C1097.64 170.048 1096.89 169.628 1096.15 169.218C1096.11 170.028 1096.08 170.838 1096.04 171.648C1096.5 172.558 1096.96 173.478 1097.42 174.388C1098.08 173.878 1098.76 173.368 1099.42 172.878C1099.08 172.078 1098.73 171.288 1098.4 170.478ZM1119.69 186.118C1118.44 184.558 1117 184.048 1115.39 184.618C1114.16 185.138 1113.08 185.548 1112.19 185.828C1111.29 186.108 1111 187.058 1111.3 188.678C1111.66 190.518 1112.19 191.898 1112.94 192.778C1113.64 193.448 1114.8 194.078 1116.43 194.698C1117.66 195.088 1118.4 194.928 1118.65 194.218C1118.85 193.278 1119.31 192.188 1120.04 190.998C1120.83 189.078 1120.7 187.458 1119.69 186.118ZM1197.08 186.638C1196.52 183.668 1195.16 181.908 1192.94 181.328C1191.72 180.938 1191.01 181.208 1190.81 182.148C1190.73 182.848 1190.45 183.788 1189.9 184.968C1189.36 186.158 1188.86 187.108 1188.43 187.838C1187.99 188.548 1188.18 189.578 1189.01 190.918C1190.16 192.008 1191.04 192.548 1191.59 192.518C1192.31 192.238 1193.26 191.708 1194.46 190.958C1195.51 190.428 1196.27 189.918 1196.75 189.438C1197.22 188.948 1197.33 188.008 1197.08 186.638ZM1214.48 183.208C1212.72 181.938 1211.4 181.428 1210.49 181.718C1209.59 181.998 1208.48 182.758 1207.18 183.988C1205.87 185.208 1205.25 186.408 1205.27 187.558C1205.26 188.478 1205.72 189.958 1206.68 191.978C1207.79 194.908 1209.69 196.418 1212.38 196.488C1215.05 196.568 1216.61 195.098 1216.99 192.058C1217.16 189.968 1217.26 188.348 1217.24 187.208C1217.17 185.838 1216.26 184.498 1214.48 183.208ZM1086.86 191.068C1085.69 189.968 1084.42 189.798 1083.04 190.568C1082.38 191.078 1081.81 191.578 1081.32 192.078C1080.99 192.318 1080.94 193.028 1081.15 194.188C1081.42 195.588 1081.71 196.618 1082.04 197.308C1082.55 197.978 1083.39 198.398 1084.57 198.568C1085.97 198.948 1087.06 199.128 1087.81 199.088C1088.56 199.048 1089.19 198.318 1089.68 196.878C1090.17 195.448 1090.06 194.408 1089.38 193.728C1088.67 193.078 1087.83 192.188 1086.86 191.068ZM1175.43 194.828C1174.7 194.058 1173.99 193.288 1173.28 192.518C1172.35 192.688 1171.42 192.858 1170.5 193.018C1170.91 194.158 1171.31 195.298 1171.72 196.438C1172.55 196.858 1173.4 197.268 1174.25 197.688C1174.63 196.728 1175.03 195.778 1175.43 194.828ZM1136 196.738C1135.47 196.998 1134.95 197.258 1134.43 197.538C1134.68 198.328 1134.93 199.128 1135.18 199.938C1135.88 200.118 1136.58 200.308 1137.29 200.518C1136.85 199.248 1136.42 197.988 1136 196.738ZM1149.69 198.048C1147.91 197.688 1146.69 198.348 1146.06 200.008C1145.57 201.438 1145.13 202.628 1144.72 203.588C1144.52 204.538 1144.93 205.668 1145.95 206.998C1147.15 208.328 1148.12 208.868 1148.81 208.588C1149.67 208.088 1150.7 207.438 1151.89 206.658C1153.07 205.898 1154.03 205.368 1154.74 205.098C1155.42 204.588 1155.57 203.418 1155.23 201.578C1154.92 199.968 1154.27 199.068 1153.3 198.908C1152.31 198.718 1151.12 198.438 1149.69 198.048ZM1162.83 199.388C1161.64 199.228 1160.46 199.068 1159.3 198.898C1159.65 200.268 1160 201.638 1160.35 203.018C1161.21 203.548 1162.08 204.088 1162.95 204.618C1163.26 203.788 1163.59 202.938 1163.92 202.118C1163.55 201.198 1163.19 200.298 1162.83 199.388ZM1116.12 206.618C1113.4 205.378 1111.27 204.688 1109.72 204.538C1108.37 204.378 1106.98 205.618 1105.58 208.288C1104.12 210.718 1103.68 212.848 1104.21 214.688C1104.71 216.298 1105.9 218.578 1107.79 221.508C1109.45 224.248 1110.92 226.038 1112.24 226.888C1113.5 227.528 1115.32 227.538 1117.65 226.918C1120.17 226.078 1121.79 225.038 1122.52 223.818C1123.43 222.588 1123.75 220.358 1123.54 217.078C1123.34 214.058 1122.63 211.858 1121.43 210.528C1120.42 209.188 1118.65 207.898 1116.12 206.618ZM1204.08 208.788C1203.23 209.418 1202.39 210.048 1201.54 210.688C1201.1 211.868 1200.65 213.058 1200.23 214.248C1201.48 214.398 1202.75 214.558 1204.03 214.718C1204.76 214.088 1205.51 213.468 1206.25 212.838C1205.51 211.488 1204.79 210.128 1204.08 208.788ZM1172.18 211.058C1168.87 210.788 1166.58 211.268 1165.27 212.518C1163.98 213.768 1162.94 216.268 1162.12 220.048C1161.48 223.828 1161.48 226.858 1162.1 229.148C1162.86 231.218 1164.81 233.448 1167.91 235.818C1170.89 238.438 1173.22 239.818 1174.96 239.938C1176.89 240.058 1179.08 238.968 1181.53 236.738C1183.97 234.468 1185.29 232.408 1185.51 230.528C1185.89 228.398 1185.32 225.408 1183.84 221.528C1182.55 217.648 1181.12 215.068 1179.52 213.748C1178.09 212.218 1175.65 211.318 1172.18 211.058ZM1136.3 227.208C1134.94 227.058 1133.91 227.118 1133.18 227.398C1132.64 227.438 1132.16 228.048 1131.82 229.238C1131.08 231.388 1131.57 233.478 1133.28 235.498C1134.99 237.508 1136.68 237.978 1138.41 236.938C1140.5 235.868 1141.21 234.058 1140.53 231.528C1140.28 230.148 1139.83 229.228 1139.17 228.798C1138.47 228.138 1137.52 227.608 1136.3 227.208Z" fill="url(#paint5_linear_19_42)"/>
<path d="M1298.52 238.218C1296.44 238.348 1294.48 237.558 1292.66 235.838C1290.82 234.098 1289.67 231.978 1289.21 229.478C1275.74 156.418 1262.14 83.8577 1248.34 12.0977C1247.87 9.66766 1248.23 7.51765 1249.4 5.69765C1250.57 3.85765 1252.2 2.92766 1254.32 2.84766C1283.19 1.92766 1312.08 0.997655 1340.98 0.0776554C1358.34 -0.482345 1373.98 1.98766 1387.89 7.44766C1401.93 12.6577 1413.6 21.0377 1422.91 32.6277C1432.31 44.0177 1438.7 58.7577 1442.05 76.8277C1445.39 94.9277 1444.52 109.928 1439.48 121.838C1434.56 133.518 1426.18 142.438 1414.32 148.598C1402.6 154.558 1388.13 158.068 1370.91 159.068C1364.29 159.458 1357.66 159.838 1351.05 160.228C1354.95 181.548 1358.85 202.988 1362.75 224.508C1363.2 226.998 1362.84 229.208 1361.63 231.138C1360.47 233.058 1358.85 234.088 1356.77 234.228C1337.34 235.578 1317.92 236.908 1298.52 238.218ZM1326.44 14.1777C1325.57 14.1977 1324.71 14.2177 1323.86 14.2577C1323.16 15.1677 1322.47 16.0777 1321.77 16.9877C1322.92 17.3877 1324.06 17.7877 1325.2 18.1977C1326.31 18.0577 1327.43 17.8977 1328.56 17.7477C1327.84 16.5577 1327.13 15.3577 1326.44 14.1777ZM1306.27 30.5077C1303.46 26.8477 1301.11 24.1377 1299.24 22.4377C1297.33 20.4977 1294.71 20.2677 1291.33 21.7077C1287.79 23.1577 1286.18 25.2277 1286.5 27.8777C1286.96 30.3177 1287.53 33.7377 1288.19 38.1777C1288.8 42.3977 1289.44 45.7077 1290.09 48.1477C1290.75 50.5677 1292.93 52.4777 1296.67 53.8977C1301.19 55.4977 1304.56 56.1477 1306.82 55.8277C1309.24 55.5077 1311.38 53.1977 1313.25 48.9177C1314.99 45.0577 1315.01 42.0577 1313.26 39.9077C1311.64 37.5177 1309.31 34.3877 1306.27 30.5077ZM1375.8 24.0177C1373.93 23.2077 1372.54 23.0377 1371.68 23.5077C1370.96 23.7577 1370.17 24.6677 1369.33 26.2377C1368.43 27.5877 1368.27 28.6977 1368.81 29.5477C1369.5 30.1777 1370.37 31.2477 1371.43 32.7477C1372.07 34.0477 1372.61 34.8877 1373.08 35.3177C1373.72 35.7377 1374.71 35.8077 1376 35.5377C1377.44 35.0377 1378.51 34.6677 1379.24 34.4277C1380.14 34.1677 1380.53 33.1577 1380.38 31.4077C1380.2 29.4477 1379.81 27.9277 1379.22 26.8577C1378.64 25.7877 1377.48 24.8277 1375.8 24.0177ZM1343.53 35.7877C1341.79 34.7377 1340.39 34.8977 1339.31 36.2677C1338.27 37.8477 1338.31 39.5077 1339.39 41.2277C1340.49 42.9677 1341.26 44.4877 1341.7 45.7977C1342.1 46.8777 1343.13 47.2977 1344.81 46.9977C1346.48 46.7077 1347.4 46.0077 1347.57 44.9077C1347.74 43.7877 1347.83 42.2577 1347.84 40.2477C1347.78 38.9377 1347.33 38.0577 1346.48 37.6477C1345.79 37.0177 1344.8 36.3977 1343.53 35.7877ZM1366.52 40.1877C1366.03 39.6577 1365.55 39.1277 1365.07 38.5877C1364.58 39.0477 1364.09 39.5177 1363.61 39.9877C1363.82 40.6377 1364.03 41.2777 1364.26 41.9177C1365.11 42.3377 1365.95 42.7477 1366.8 43.1577C1366.69 42.1577 1366.61 41.1677 1366.52 40.1877ZM1271.6 46.1677C1270.05 46.0077 1269.03 46.2677 1268.59 46.9677C1268.1 47.4177 1267.63 48.4477 1267.17 50.0377C1266.81 51.1677 1266.88 52.0577 1267.39 52.7077C1267.9 53.3577 1268.63 54.2277 1269.61 55.3077C1270.78 56.3777 1271.61 57.2377 1272.13 57.8877C1272.82 58.5377 1273.68 58.5077 1274.68 57.7877C1275.94 57.2977 1276.48 56.5977 1276.3 55.7077C1276.34 54.8177 1276.1 53.5977 1275.61 52.0577C1275.07 50.2777 1274.62 48.9477 1274.27 48.0777C1273.91 47.1877 1273.03 46.5677 1271.6 46.1677ZM1378.31 56.8877C1377.58 56.5877 1376.86 56.2777 1376.13 55.9877C1375.64 56.4477 1375.15 56.9177 1374.66 57.3677C1374.89 58.5777 1375.11 59.7777 1375.35 60.9777C1376.47 60.8177 1377.59 60.6577 1378.71 60.4977C1378.57 59.2877 1378.44 58.0977 1378.31 56.8877ZM1408.13 59.5677C1406.81 57.6477 1405.65 56.4977 1404.6 56.0977C1403.73 55.4777 1402.39 55.5377 1400.61 56.2777C1398.99 56.7777 1397.96 57.4777 1397.57 58.3777C1397.14 59.2677 1397.06 60.8277 1397.29 62.9977C1397.42 64.7577 1397.91 65.8377 1398.75 66.2377C1399.78 66.6277 1401.02 67.1277 1402.47 67.7177C1404.12 68.3077 1405.43 67.7077 1406.43 65.8977C1407.16 64.5577 1407.82 63.5377 1408.46 62.8477C1409.29 62.1477 1409.18 61.0577 1408.13 59.5677ZM1316.08 60.7977C1314.76 60.8477 1314.05 61.6577 1313.96 63.2177C1313.68 64.7777 1314.11 65.9977 1315.21 66.8377C1316.11 67.4677 1316.78 67.9877 1317.26 68.4177C1317.9 68.8377 1318.65 68.6977 1319.45 67.9877C1320.25 67.0677 1320.76 66.2677 1321.03 65.5877C1321.27 64.9077 1321.1 63.9277 1320.46 62.6077C1320.02 61.2877 1319.4 60.6577 1318.66 60.6877C1318.08 60.7177 1317.24 60.7477 1316.08 60.7977ZM1338.21 98.8377C1344.84 98.5177 1351.49 98.2177 1358.14 97.8977C1361.18 97.7477 1363.88 96.2877 1366.24 93.5177C1368.54 90.5277 1369.11 85.8677 1367.91 79.5077C1367.13 75.3477 1365.4 71.2177 1362.7 67.1477C1360.21 63.0477 1356.4 61.1077 1351.26 61.3177C1344.6 61.6077 1337.95 61.8777 1331.3 62.1577C1333.61 74.3577 1335.92 86.5877 1338.21 98.8377ZM1389.92 71.2477C1386.46 71.1877 1384.44 72.1477 1383.84 74.1577C1383.24 75.9477 1382.6 78.6177 1381.92 82.1877C1381.48 85.9477 1381.26 88.9377 1381.29 91.1477C1381.51 93.3477 1383.17 95.5877 1386.29 97.8777C1389.62 100.368 1392.25 101.688 1394.2 101.818C1396.32 101.928 1398.77 100.708 1401.55 98.1477C1404.33 95.5977 1405.88 93.2077 1406.24 90.9977C1406.79 88.7677 1406.1 85.6077 1404.18 81.5077C1402.42 77.1877 1400.56 74.4077 1398.62 73.1677C1396.84 71.9377 1393.95 71.2877 1389.92 71.2477ZM1296.64 84.0377C1295.42 81.6277 1294.27 80.1077 1293.19 79.4877C1292.12 78.8677 1290.56 78.7177 1288.51 79.0277C1286.65 79.3277 1285.54 80.0477 1285.18 81.1777C1284.97 82.0877 1284.89 83.6577 1284.93 85.8977C1284.77 88.1377 1284.8 89.8177 1285.01 90.9377C1285.41 92.0377 1286.46 93.1177 1288.21 94.1577C1289.94 95.1977 1291.13 95.4777 1291.82 94.9877C1292.64 94.2877 1293.68 93.2177 1294.95 91.8277C1296.04 90.4377 1296.87 89.2777 1297.46 88.3477C1298.05 87.4377 1297.78 85.9877 1296.64 84.0377ZM1317.78 89.4377C1316.72 87.9277 1315.75 87.2977 1314.83 87.5577C1313.88 87.6077 1312.67 87.7676 1311.19 88.0676C1309.37 88.5976 1307.79 88.7677 1306.42 88.6177C1305.05 88.4577 1304.39 89.5977 1304.46 92.0577C1304.76 94.4977 1305.48 95.9176 1306.71 96.3176C1307.93 96.7076 1309.6 97.4077 1311.71 98.4277C1313.4 99.2277 1314.74 99.7277 1315.73 99.9177C1316.71 100.088 1317.61 99.3677 1318.47 97.7777C1319.33 96.1677 1319.67 94.9277 1319.51 94.0377C1319.48 92.9377 1318.91 91.3977 1317.78 89.4377ZM1424.06 95.7877C1423.59 94.8177 1423.13 93.8477 1422.66 92.8777C1422.2 93.5577 1421.75 94.2377 1421.31 94.9277C1421.27 95.6877 1421.22 96.4677 1421.18 97.2277C1422.13 96.7477 1423.09 96.2677 1424.06 95.7877ZM1413.65 110.828C1410.55 108.538 1408.04 107.338 1406.08 107.208C1404.15 107.078 1401.96 108.178 1399.53 110.498C1396.91 112.848 1395.22 115.028 1394.44 117.058C1393.85 119.068 1394.41 122.158 1396.14 126.268C1397.63 130.188 1399.34 132.208 1401.27 132.318C1403.36 132.208 1406.12 132.178 1409.58 132.218C1412.64 132.288 1414.81 132.068 1416.05 131.568C1417.45 130.838 1418.41 128.798 1418.93 125.458C1419.43 121.908 1419.39 119.138 1418.84 117.188C1418.29 115.228 1416.56 113.098 1413.65 110.828ZM1347.7 115.748C1346.94 113.778 1346.14 112.488 1345.24 111.858C1344.54 111.218 1343.32 110.848 1341.58 110.698C1340.02 110.568 1339.16 111.058 1338.99 112.178C1338.77 113.078 1338.53 114.318 1338.25 115.888C1338.05 117.918 1337.77 119.488 1337.39 120.618C1337.23 121.758 1337.91 122.828 1339.44 123.858C1341.24 125.338 1342.65 126.158 1343.63 126.338C1344.77 126.278 1346.06 125.538 1347.52 124.118C1348.84 122.938 1349.39 121.788 1349.19 120.698C1349.17 119.568 1348.67 117.918 1347.7 115.748ZM1305.65 118.218C1304.89 118.248 1304.13 118.278 1303.39 118.338C1302.97 119.248 1302.56 120.158 1302.16 121.078C1303.27 121.918 1304.39 122.758 1305.51 123.608C1305.99 122.568 1306.47 121.528 1306.95 120.498C1306.52 119.728 1306.08 118.968 1305.65 118.218ZM1286.11 121.218C1285.47 120.908 1284.85 120.598 1284.22 120.298C1283.46 120.898 1282.72 121.508 1281.98 122.108C1282.89 122.848 1283.8 123.598 1284.7 124.348C1285.67 124.398 1286.64 124.458 1287.61 124.518C1287.09 123.418 1286.6 122.318 1286.11 121.218ZM1378.05 121.538C1377.33 121.788 1376.61 122.058 1375.9 122.318C1376.05 123.198 1376.22 124.078 1376.39 124.968C1377.16 125.038 1377.94 125.098 1378.73 125.168C1379.19 124.578 1379.65 124.008 1380.12 123.428C1379.43 122.798 1378.74 122.178 1378.05 121.538ZM1339.12 132.948C1338.28 131.528 1337.44 130.128 1336.61 128.718C1335.54 129.658 1334.47 130.618 1333.41 131.568C1333.72 133.238 1334.03 134.898 1334.34 136.558C1335.51 136.158 1336.67 135.778 1337.84 135.378C1338.26 134.558 1338.69 133.748 1339.12 132.948ZM1312.37 132.698C1311.38 131.398 1310.49 130.758 1309.74 130.808C1308.94 130.618 1307.93 130.888 1306.73 131.638C1305.15 132.388 1303.84 133.028 1302.77 133.538C1301.86 133.808 1301.6 134.948 1301.97 136.958C1302.39 139.198 1303.13 140.618 1304.21 141.228C1305.23 141.628 1306.68 142.128 1308.51 142.688C1310.1 143.058 1311.02 142.898 1311.27 142.208C1311.72 141.508 1312.19 140.478 1312.7 139.088C1313.4 137.698 1313.79 136.668 1313.85 135.988C1314.06 135.088 1313.58 133.978 1312.37 132.698ZM1367.18 134.128C1365.76 132.638 1364.57 131.468 1363.67 130.638C1362.74 129.788 1361.53 129.968 1360.03 131.158C1358.49 132.138 1357.75 133.288 1357.8 134.628C1358.01 135.738 1358.41 137.398 1359.01 139.598C1359.78 141.778 1360.39 143.538 1360.84 144.858C1361.43 145.948 1362.7 146.648 1364.68 146.988C1366.61 147.108 1367.67 146.598 1367.85 145.468C1367.97 144.128 1368.24 142.448 1368.62 140.408C1369.13 139.038 1369.32 137.918 1369.16 137.028C1368.99 136.138 1368.33 135.178 1367.18 134.128ZM1328.92 150.678C1327.8 149.848 1326.7 149.008 1325.59 148.178C1324.96 148.988 1324.36 149.818 1323.75 150.648C1323.78 151.878 1323.82 153.118 1323.85 154.358C1325.12 154.498 1326.39 154.658 1327.67 154.818C1328.09 153.438 1328.5 152.068 1328.92 150.678ZM1314.26 166.098C1313.45 165.358 1312.64 164.608 1311.84 163.858C1311.3 164.568 1310.75 165.288 1310.21 165.998C1310.29 167.358 1310.34 168.708 1310.41 170.078C1311.64 169.998 1312.86 169.928 1314.09 169.858C1314.14 168.598 1314.2 167.348 1314.26 166.098ZM1330.18 174.668C1327.9 173.678 1326.05 172.988 1324.64 172.628C1323.24 172.248 1322.06 173.108 1321.11 175.218C1319.78 177.338 1319.34 179.188 1319.83 180.738C1320.31 182.308 1321.43 184.278 1323.21 186.678C1324.52 188.658 1325.75 189.588 1326.89 189.528C1328.02 189.448 1329.56 189.018 1331.52 188.218C1333.32 187.648 1334.55 186.988 1335.17 186.268C1336 185.538 1336.29 184.058 1336.07 181.798C1335.86 179.538 1335.28 177.978 1334.37 177.138C1333.44 176.288 1332.04 175.468 1330.18 174.668ZM1313.12 181.838C1311.31 180.128 1309.79 179.198 1308.61 179.048C1307.41 178.658 1305.95 179.098 1304.28 180.318C1302.63 181.788 1301.74 183.208 1301.62 184.598C1301.68 185.958 1302.13 187.868 1302.95 190.328C1303.71 192.328 1304.58 193.428 1305.56 193.598C1306.74 193.748 1308.18 193.888 1309.92 194.008C1311.49 194.138 1312.62 194.068 1313.34 193.788C1313.99 193.288 1314.48 192.238 1314.74 190.618C1315.15 188.548 1315.33 186.948 1315.31 185.798C1315.44 184.418 1314.71 183.108 1313.12 181.838ZM1342.65 205.258C1341.71 205.328 1340.76 205.388 1339.82 205.448C1340.29 206.438 1340.75 207.448 1341.23 208.448C1341.99 208.968 1342.75 209.498 1343.51 210.018C1344.21 209.168 1344.91 208.328 1345.63 207.478C1344.63 206.728 1343.64 205.998 1342.65 205.258ZM1314.91 211.898C1313.25 211.088 1312.22 211.258 1311.87 212.418C1311.12 213.628 1311.37 214.988 1312.62 216.518C1313.68 218.288 1314.87 219.018 1316.15 218.708C1317.21 218.168 1317.65 216.888 1317.46 214.818C1317.18 213.238 1316.32 212.248 1314.91 211.898ZM1348.5 213.798C1347.95 214.518 1347.41 215.248 1346.87 215.968C1347.09 216.638 1347.3 217.318 1347.53 217.988C1348.38 218.498 1349.24 219.008 1350.1 219.528C1350.38 218.478 1350.67 217.418 1350.96 216.388C1350.14 215.508 1349.31 214.658 1348.5 213.798Z" fill="url(#paint6_linear_19_42)"/>
<defs>
<linearGradient id="paint0_linear_19_42" x1="53821.5" y1="387.802" x2="53822.6" y2="127.443" gradientUnits="userSpaceOnUse">
<stop stop-color="#03184D"/>
<stop offset="1" stop-color="#05BCDB"/>
</linearGradient>
<linearGradient id="paint1_linear_19_42" x1="66906.2" y1="423.091" x2="66907.1" y2="143.852" gradientUnits="userSpaceOnUse">
<stop stop-color="#03184D"/>
<stop offset="1" stop-color="#05BCDB"/>
</linearGradient>
<linearGradient id="paint2_linear_19_42" x1="50684.9" y1="458.248" x2="50685.9" y2="168.054" gradientUnits="userSpaceOnUse">
<stop stop-color="#03184D"/>
<stop offset="1" stop-color="#05BCDB"/>
</linearGradient>
<linearGradient id="paint3_linear_19_42" x1="38633.1" y1="501.666" x2="38634.3" y2="190.72" gradientUnits="userSpaceOnUse">
<stop stop-color="#03184D"/>
<stop offset="1" stop-color="#05BCDB"/>
</linearGradient>
<linearGradient id="paint4_linear_19_42" x1="34302.7" y1="560.148" x2="34303.9" y2="216.661" gradientUnits="userSpaceOnUse">
<stop stop-color="#03184D"/>
<stop offset="1" stop-color="#05BCDB"/>
</linearGradient>
<linearGradient id="paint5_linear_19_42" x1="18246.4" y1="604.563" x2="18248" y2="243.176" gradientUnits="userSpaceOnUse">
<stop stop-color="#03184D"/>
<stop offset="1" stop-color="#05BCDB"/>
</linearGradient>
<linearGradient id="paint6_linear_19_42" x1="1562.99" y1="373.573" x2="1590.2" y2="158.916" gradientUnits="userSpaceOnUse">
<stop stop-color="#03184D"/>
<stop offset="1" stop-color="#05BCDB"/>
</linearGradient>
</defs>
</svg>
